<svg width="106" height="110" viewBox="0 0 106 110" fill="none" xmlns="http://www.w3.org/2000/svg">
<rect x="50" y="17" width="6" height="10" fill="#98AAB3"/>
<circle cx="52" cy="64" r="39" fill="#98AAB3"/>
<path d="M77.2479 32C79.3916 32 81.5028 32.6615 83.1267 34.061C92.2588 41.9307 98 53.324 98 66C98 89.7482 77.8528 109 53 109C28.1472 109 8 89.7482 8 66C8 53.324 13.7412 41.9307 22.8733 34.061C24.4972 32.6615 26.6084 32 28.7521 32H77.2479Z" fill="#95A8B1"/>
<path d="M77.5314 32C79.4992 32 81.4432 32.5559 83.0049 33.7531C92.2077 40.8083 98 51.0581 98 62.4675C98 83.7484 93 101 53 101C15 101 8 83.7484 8 62.4675C8 51.0581 13.7923 40.8083 22.9951 33.7531C24.5568 32.5559 26.5008 32 28.4686 32H77.5314Z" fill="#BDD0DC"/>
<circle cx="53" cy="9" r="9" fill="black"/>
<rect x="16" y="42" width="75" height="41" rx="20" fill="#96A9B0"/>
<rect x="19" y="45" width="69" height="35" rx="17.5" fill="black"/>
<path d="M29 63.1808C29.038 54.9449 41.5437 54.9345 41.5 63.1809" stroke="#0EABF7" stroke-width="4" stroke-linecap="round"/>
<path d="M64.5001 63.1808C64.5381 54.9449 77.0438 54.9345 77.0001 63.1809" stroke="#0EABF7" stroke-width="4" stroke-linecap="round"/>
<path d="M45 69H62C62 73.4183 58.4183 77 54 77H53C48.5817 77 45 73.4183 45 69Z" fill="white"/>
<circle cx="97" cy="101" r="9" fill="#BDD0DC"/>
<circle cx="9" cy="101" r="9" fill="#BDD0DC"/>
</svg>
