<svg width="63" height="60" viewBox="0 0 63 60" fill="none" xmlns="http://www.w3.org/2000/svg">
<path d="M12.4341 57.8615L12.4342 57.8615C13.9512 58.9632 15.7114 59.4946 17.4598 59.4946C20.0932 59.4946 22.6887 58.2893 24.3585 56.0275L24.3807 55.9975L24.3893 55.9889L24.3894 55.9888L24.3897 55.9885L24.3907 55.9871L24.394 55.9823L24.3992 55.975L24.4017 55.9715L30.6599 47.3659L31.0642 46.8098L31.4686 47.3659L37.7267 55.9715L37.7293 55.975L37.7342 55.9812C37.7432 55.9927 37.7506 56.0029 37.7562 56.0109C40.5422 59.7999 45.8917 60.6338 49.6988 57.8662L49.699 57.866C53.5115 55.0979 54.365 49.7433 51.6138 45.9197L51.605 45.9075L51.6032 45.9046L51.5923 45.8895L45.3477 37.2791L44.9443 36.7228L45.5977 36.5101L55.7151 33.2168C60.205 31.7553 62.6735 26.9068 61.2125 22.4149C59.7517 17.9232 54.909 15.4539 50.4144 16.9112L50.2614 16.4391L50.4144 16.9112L40.2974 20.1911L39.6435 20.4031L39.6432 19.7157L39.6386 9.06885C39.6341 4.34516 35.7897 0.5 31.0688 0.5C26.348 0.5 22.5035 4.34499 22.4992 9.07335L22.4901 19.7113L22.4895 20.3984L21.8359 20.1866L11.7502 16.9169C11.7402 16.9146 11.7316 16.9123 11.7245 16.9103C11.724 16.9102 11.7236 16.91 11.7231 16.9099L11.7236 16.9082L11.7187 16.9066L11.7604 16.7779L11.8591 16.4287M12.4341 57.8615L6.26327 33.6877L6.25567 33.6851M12.4341 57.8615C8.62131 55.0931 7.76389 49.7342 10.519 45.911L10.5425 45.8783L10.5454 45.8725C10.546 45.8716 10.5466 45.8708 10.5472 45.8699L16.7807 37.2746L17.1841 36.7184L16.5308 36.5056L6.42602 33.2149M12.4341 57.8615L6.42602 33.2149M11.8591 16.4287L11.7901 16.6864L11.8729 16.431C11.8689 16.431 11.864 16.4301 11.8591 16.4287ZM11.8591 16.4287C11.8527 16.427 11.8462 16.4245 11.8411 16.4219M11.8411 16.4219C7.09311 14.8977 1.98687 17.5107 0.44503 22.256C-1.09684 27.0011 1.49714 32.1136 6.22695 33.6741M11.8411 16.4219L11.6184 16.8696C11.6341 16.8774 11.6509 16.8849 11.6684 16.8917M11.8411 16.4219L11.6882 16.898C11.6816 16.8959 11.675 16.8938 11.6684 16.8917M6.22695 33.6741C6.23132 33.6754 6.23524 33.677 6.239 33.6786M6.22695 33.6741L6.38361 33.1993C6.38266 33.199 6.38172 33.1987 6.38077 33.1984M6.22695 33.6741L6.37257 33.1958C6.37536 33.1966 6.3781 33.1975 6.38077 33.1984M6.239 33.6786L6.25567 33.6851M6.239 33.6786L6.34541 33.4289L6.25567 33.6851M6.239 33.6786L6.41798 33.2126L6.4181 33.2123L6.41827 33.2119L6.42478 33.2144M6.25567 33.6851L6.31135 33.5401L6.35288 33.4319L6.433 33.2233L6.43499 33.2187L6.43488 33.2186C6.43486 33.2186 6.43484 33.2186 6.43482 33.2186L6.43493 33.2183L6.42859 33.2158L6.42797 33.2156L6.42602 33.2149M6.42478 33.2144C6.42507 33.2145 6.42536 33.2146 6.42565 33.2147L6.42602 33.2149M6.42478 33.2144L6.42602 33.2149M6.42478 33.2144C6.41465 33.2103 6.39924 33.2043 6.38077 33.1984M6.42602 33.2149L11.6684 16.8917M6.38077 33.1984C1.91414 31.7229 -0.53593 26.8928 0.920556 22.4105L0.445065 22.256L0.920559 22.4105C2.37516 17.9337 7.18842 15.4653 11.6684 16.8917M24.4046 55.9736C24.4054 55.9727 24.4063 55.9719 24.4071 55.9711L24.4046 55.9736ZM51.5893 45.8826L51.5897 45.8833L51.5893 45.8826Z" fill="#27AE60" stroke="black"/>
</svg>
