<svg width="40" height="41" viewBox="0 0 40 41" fill="none" xmlns="http://www.w3.org/2000/svg">
<path d="M27 22.086V18.5C27 15.283 24.815 12.573 21.855 11.758C21.562 11.02 20.846 10.5 20 10.5C19.154 10.5 18.438 11.02 18.145 11.758C15.185 12.574 13 15.283 13 18.5V22.086L11.293 23.793C11.2 23.8857 11.1262 23.9959 11.0759 24.1172C11.0256 24.2386 10.9998 24.3687 11 24.5V26.5C11 26.7652 11.1054 27.0196 11.2929 27.2071C11.4804 27.3946 11.7348 27.5 12 27.5H28C28.2652 27.5 28.5196 27.3946 28.7071 27.2071C28.8946 27.0196 29 26.7652 29 26.5V24.5C29.0002 24.3687 28.9744 24.2386 28.9241 24.1172C28.8738 23.9959 28.8 23.8857 28.707 23.793L27 22.086ZM27 25.5H13V24.914L14.707 23.207C14.8 23.1143 14.8738 23.0041 14.9241 22.8828C14.9744 22.7614 15.0002 22.6313 15 22.5V18.5C15 15.743 17.243 13.5 20 13.5C22.757 13.5 25 15.743 25 18.5V22.5C25 22.766 25.105 23.02 25.293 23.207L27 24.914V25.5ZM20 30.5C20.6193 30.5008 21.2235 30.3086 21.7285 29.9502C22.2335 29.5917 22.6143 29.0849 22.818 28.5H17.182C17.3857 29.0849 17.7665 29.5917 18.2715 29.9502C18.7765 30.3086 19.3807 30.5008 20 30.5Z" fill="black"/>
</svg>
