<svg width="19" height="20" viewBox="0 0 19 20" fill="none" xmlns="http://www.w3.org/2000/svg">
<mask id="path-1-inside-1_271_3567" fill="white">
<path fill-rule="evenodd" clip-rule="evenodd" d="M12.3974 9.59116C12.5696 9.7633 12.5696 10.0423 12.3974 10.2145L7.90359 14.7083C7.73145 14.8804 7.45241 14.8804 7.28027 14.7083L7.07246 14.5005C6.90033 14.3284 6.90033 14.0493 7.07246 13.8772L11.0468 9.90282L7.07246 5.92845C6.90033 5.75631 6.90033 5.47727 7.07246 5.30513L7.28027 5.09732C7.45241 4.92519 7.73145 4.92519 7.90359 5.09732L12.3974 9.59116Z"/>
</mask>
<path fill-rule="evenodd" clip-rule="evenodd" d="M12.3974 9.59116C12.5696 9.7633 12.5696 10.0423 12.3974 10.2145L7.90359 14.7083C7.73145 14.8804 7.45241 14.8804 7.28027 14.7083L7.07246 14.5005C6.90033 14.3284 6.90033 14.0493 7.07246 13.8772L11.0468 9.90282L7.07246 5.92845C6.90033 5.75631 6.90033 5.47727 7.07246 5.30513L7.28027 5.09732C7.45241 4.92519 7.73145 4.92519 7.90359 5.09732L12.3974 9.59116Z" fill="white"/>
<path d="M12.3974 9.59116L13.8116 8.17695L12.3974 9.59116ZM12.3974 10.2145L13.8116 11.6287L13.8116 11.6287L12.3974 10.2145ZM7.90359 14.7083L9.31778 16.1225L9.3178 16.1225L7.90359 14.7083ZM7.28027 14.7083L8.69446 13.2941L8.69441 13.294L7.28027 14.7083ZM7.07246 14.5005L5.65827 15.9148L5.65833 15.9148L7.07246 14.5005ZM7.07246 13.8772L5.65825 12.463L5.65825 12.463L7.07246 13.8772ZM11.0468 9.90282L12.461 11.317L13.8753 9.90282L12.461 8.48861L11.0468 9.90282ZM7.07246 5.92845L5.65825 7.34266L7.07246 5.92845ZM7.90359 5.09732L6.48937 6.51154L7.90359 5.09732ZM10.9832 11.0054C10.3743 10.3965 10.3743 9.40917 10.9832 8.80026L13.8116 11.6287C14.7648 10.6755 14.7648 9.13013 13.8116 8.17695L10.9832 11.0054ZM10.9832 8.80026L6.48937 13.2941L9.3178 16.1225L13.8116 11.6287L10.9832 8.80026ZM6.4894 13.2941C7.0983 12.6852 8.08556 12.6852 8.69446 13.2941L5.86608 16.1225C6.81926 17.0757 8.3646 17.0757 9.31778 16.1225L6.4894 13.2941ZM8.69441 13.294L8.4866 13.0862L5.65833 15.9148L5.86614 16.1226L8.69441 13.294ZM8.48665 13.0863C9.09561 13.6952 9.09557 14.6825 8.48668 15.2914L5.65825 12.463C4.70508 13.4161 4.70504 14.9616 5.65827 15.9148L8.48665 13.0863ZM8.48667 15.2914L12.461 11.317L9.63263 8.4886L5.65825 12.463L8.48667 15.2914ZM12.461 8.48861L8.48668 4.51423L5.65825 7.34266L9.63262 11.317L12.461 8.48861ZM8.48668 4.51423C9.09559 5.12314 9.09559 6.11043 8.48668 6.71935L5.65825 3.89092C4.70506 4.8441 4.70506 6.38947 5.65825 7.34266L8.48668 4.51423ZM8.48668 6.71935L8.69449 6.51154L5.86606 3.68311L5.65825 3.89092L8.48668 6.71935ZM8.69449 6.51154C8.08557 7.12045 7.09828 7.12045 6.48937 6.51154L9.3178 3.68311C8.36461 2.72992 6.81924 2.72992 5.86606 3.68311L8.69449 6.51154ZM6.48937 6.51154L10.9832 11.0054L13.8116 8.17695L9.3178 3.68311L6.48937 6.51154Z" fill="white" mask="url(#path-1-inside-1_271_3567)"/>
</svg>
