<svg width="24" height="20" viewBox="0 0 24 20" fill="none" xmlns="http://www.w3.org/2000/svg">
<path d="M23 0H1C0.734784 0 0.48043 0.105357 0.292893 0.292893C0.105357 0.48043 0 0.734784 0 1L0 19C0 19.2652 0.105357 19.5196 0.292893 19.7071C0.48043 19.8946 0.734784 20 1 20H23C23.2652 20 23.5196 19.8946 23.7071 19.7071C23.8946 19.5196 24 19.2652 24 19V1C24 0.734784 23.8946 0.48043 23.7071 0.292893C23.5196 0.105357 23.2652 0 23 0ZM22 18H20V17H15V18H2V2H22V18ZM10.29 7.71C10.29 7.25648 10.4702 6.82154 10.7908 6.50085C11.1115 6.18016 11.5465 6 12 6C12.95 6 13.71 6.77 13.71 7.71C13.71 8.66 12.95 9.43 12 9.43C11.05 9.43 10.29 8.66 10.29 7.71ZM5.71 9.29C5.71 8.58 6.29 8 7 8C7.34213 8 7.67025 8.13591 7.91217 8.37783C8.15409 8.61975 8.29 8.94787 8.29 9.29C8.29 10 7.71 10.57 7 10.57C6.29 10.57 5.71 10 5.71 9.29ZM15.71 9.29C15.71 8.94787 15.8459 8.61975 16.0878 8.37783C16.3298 8.13591 16.6579 8 17 8C17.3421 8 17.6702 8.13591 17.9122 8.37783C18.1541 8.61975 18.29 8.94787 18.29 9.29C18.29 10 17.71 10.57 17 10.57C16.29 10.57 15.71 10 15.71 9.29ZM20 13.14V14H4V13.14C4 12.2 5.55 11.43 7 11.43C7.55 11.43 8.11 11.54 8.6 11.73C9.35 11.04 10.7 10.57 12 10.57C13.3 10.57 14.65 11.04 15.4 11.73C15.89 11.54 16.45 11.43 17 11.43C18.45 11.43 20 12.2 20 13.14Z" fill="black"/>
</svg>
