<svg width="415" height="137" viewBox="0 0 415 137" fill="none" xmlns="http://www.w3.org/2000/svg">
<rect x="19.5" y="18.5" width="395" height="118" rx="9.5" fill="#DCF7E7" stroke="black"/>
<g filter="url(#filter0_d_423_3639)">
<path d="M25.3328 0.592654C25.4267 -0.197551 26.5733 -0.197551 26.6672 0.592654L27.4537 7.22176C28.4694 15.7817 35.2183 22.5306 43.7782 23.5463L50.4073 24.3328C51.1976 24.4267 51.1976 25.5733 50.4073 25.6672L43.7782 26.4537C35.2183 27.4694 28.4694 34.2183 27.4537 42.7782L26.6672 49.4073C26.5733 50.1976 25.4267 50.1976 25.3328 49.4073L24.5463 42.7782C23.5306 34.2183 16.7817 27.4694 8.22176 26.4537L1.59265 25.6672C0.802449 25.5733 0.802449 24.4267 1.59265 24.3328L8.22176 23.5463C16.7817 22.5306 23.5306 15.7817 24.5463 7.22176L25.3328 0.592654Z" fill="#56CCF2"/>
<path d="M25.8293 0.651619C25.8378 0.580655 25.8636 0.551934 25.8821 0.536967C25.9069 0.516884 25.9482 0.5 26 0.5C26.0518 0.5 26.0931 0.516884 26.1179 0.536967C26.1364 0.551934 26.1622 0.580655 26.1707 0.651619L26.9572 7.28067C28.0001 16.0701 34.9299 22.9999 43.7193 24.0428L50.3483 24.8293C50.3483 24.8293 50.3483 24.8294 50.3484 24.8294C50.4193 24.8378 50.4481 24.8636 50.463 24.8821C50.4831 24.907 50.5 24.9482 50.5 25C50.5 25.0518 50.4831 25.0931 50.463 25.1179C50.4481 25.1364 50.4193 25.1622 50.3484 25.1707C50.3483 25.1707 50.3483 25.1707 50.3483 25.1707L43.7193 25.9572C34.9299 27.0001 28.0001 33.9299 26.9572 42.7193L26.1707 49.3483C26.1707 49.3483 26.1707 49.3483 26.1707 49.3484C26.1622 49.4193 26.1364 49.4481 26.1179 49.463C26.0931 49.4831 26.0518 49.5 26 49.5C25.9482 49.5 25.907 49.4831 25.8821 49.463C25.8636 49.4481 25.8378 49.4193 25.8294 49.3484C25.8294 49.3483 25.8293 49.3483 25.8293 49.3483L25.0428 42.7193C23.9999 33.9299 17.0701 27.0001 8.28067 25.9572L1.65162 25.1707C1.58066 25.1622 1.55193 25.1364 1.53697 25.1179C1.51688 25.0931 1.5 25.0518 1.5 25C1.5 24.9482 1.51688 24.9069 1.53697 24.8821C1.55193 24.8636 1.58066 24.8378 1.65162 24.8293L8.28067 24.0428C17.0701 22.9999 23.9999 16.0701 25.0428 7.28067L25.8293 0.651619Z" stroke="#031926" stroke-linejoin="round"/>
</g>
<defs>
<filter id="filter0_d_423_3639" x="0.9" y="0" width="50.1" height="50.3" filterUnits="userSpaceOnUse" color-interpolation-filters="sRGB">
<feFlood flood-opacity="0" result="BackgroundImageFix"/>
<feColorMatrix in="SourceAlpha" type="matrix" values="0 0 0 0 0 0 0 0 0 0 0 0 0 0 0 0 0 0 127 0" result="hardAlpha"/>
<feOffset dx="-0.1" dy="0.3"/>
<feComposite in2="hardAlpha" operator="out"/>
<feColorMatrix type="matrix" values="0 0 0 0 0.0117647 0 0 0 0 0.0980392 0 0 0 0 0.14902 0 0 0 1 0"/>
<feBlend mode="normal" in2="BackgroundImageFix" result="effect1_dropShadow_423_3639"/>
<feBlend mode="normal" in="SourceGraphic" in2="effect1_dropShadow_423_3639" result="shape"/>
</filter>
</defs>
</svg>
