<svg width="1463" height="716" viewBox="0 0 1463 716" fill="none" xmlns="http://www.w3.org/2000/svg">
<path d="M7.42773 716H5.625L0 712.249V711.048L7.42773 716ZM1425.5 19.8545L1463 44.8574V46.0596L1424.6 20.458L1385.93 46.4287L1425.04 72.5L1463 47.002V48.2061L1425.94 73.0996L1463 97.8076V99.0098L1425.04 73.7031L1386.37 99.6748L1425.48 125.75L1463 100.551V101.755L1426.38 126.35L1463 150.76V151.963L1425.48 126.953L1386.82 152.924L1425.92 178.995L1463 154.092V155.295L1426.82 179.595L1463 203.714V204.915L1425.92 180.198L1387.25 206.17L1426.37 232.245L1463 207.642V208.847L1427.27 232.846L1463 256.666V257.868L1426.37 233.448L1387.7 259.42L1426.81 285.489L1463 261.181V262.385L1427.71 286.09L1463 309.617V310.819L1426.81 286.692L1388.14 312.664L1427.25 338.739L1463 314.729V315.934L1428.15 339.339L1463 362.57V363.772L1427.25 339.942L1388.58 365.914L1427.7 391.987L1463 368.274V369.479L1428.6 392.587L1463 415.522V416.726L1427.7 393.19L1389.03 419.162L1428.14 445.233L1463 421.816V423.021L1429.04 445.833L1463 468.476V469.679L1428.14 446.437L1389.47 472.407L1428.58 498.481L1463 475.363V476.568L1429.48 499.081L1463 521.427V522.629L1428.58 499.685L1389.91 525.656L1429.02 551.729L1463 528.907V530.111L1429.92 552.329L1463 574.381V575.582L1429.02 552.933L1390.36 578.902L1429.47 604.977L1463 582.454V583.659L1430.37 605.576L1463 627.33V628.533L1429.47 606.18L1390.8 632.152L1429.91 658.224L1463 635.996V637.2L1430.81 658.823L1463 680.285V681.487L1429.91 659.427L1391.24 685.397L1430.35 711.471L1463 689.542V690.745L1431.25 712.07L1437.15 716H1435.34L1430.35 712.674L1425.4 716H1423.61L1429.45 712.074L1390.34 686L1351.67 711.972L1357.72 716H1355.91L1350.78 712.575L1345.68 716H1343.88L1349.88 711.975L1310.77 685.903L1272.1 711.876L1278.29 716H1276.48L1271.2 712.479L1265.96 716H1264.17L1270.3 711.879L1231.19 685.806L1192.52 711.777L1198.85 716H1197.05L1191.62 712.381L1186.23 716H1184.44L1190.72 711.78L1151.61 685.709L1112.95 711.679L1119.43 716H1117.63L1112.05 712.282L1106.51 716H1104.72L1111.15 711.682L1072.04 685.607L1033.37 711.58L1040 716H1038.2L1032.47 712.183L1026.79 716H1024.99L1031.57 711.583L992.463 685.512L953.796 711.482L960.572 716H958.769L952.897 712.086L947.069 716H945.276L951.998 711.485L912.888 685.412L874.22 711.384L881.145 716H879.34L873.321 711.987L867.347 716H865.553L872.421 711.387L833.309 685.312L794.641 711.283L801.716 716H799.912L793.742 711.887L787.618 716H785.824L792.843 711.286L753.738 685.217L715.068 711.188L722.286 716H720.483L714.171 711.792L707.905 716H706.111L713.271 711.191L674.157 685.116L635.487 711.088L642.855 716H641.053L634.59 711.691L628.175 716H626.38L633.689 711.091L594.583 685.021L555.914 710.992L563.426 716H561.623L555.017 711.596L548.459 716H546.665L554.116 710.995L515.004 684.92L476.337 710.891L484.001 716H482.197L475.438 711.494L468.729 716H466.937L474.538 710.895L435.432 684.823L396.764 710.794L404.573 716H402.77L395.865 711.397L389.013 716H387.219L394.966 710.797L355.855 684.724L317.188 710.695L325.145 716H323.343L316.289 711.298L309.288 716H307.496L315.39 710.698L276.278 684.624L237.609 710.596L245.716 716H243.912L236.711 711.199L229.563 716H227.771L235.812 710.6L196.704 684.528L158.036 710.499L166.287 716H164.483L157.138 711.103L149.846 716H148.053L156.237 710.503L117.128 684.429L78.46 710.4L86.8594 716H85.0566L77.5615 711.003L70.1211 716H68.3281L76.6611 710.403L37.5527 684.331L0 709.552V708.348L36.6533 683.73L0 659.295V658.095L37.5508 683.128L76.2188 657.156L37.1084 631.083L0 656.006V654.802L36.209 630.483L0 606.344V605.142L37.1074 629.88L75.7754 603.908L36.665 577.835L0 602.459V601.255L35.7646 577.234L0 553.392V552.189L36.6631 576.632L75.332 550.66L36.2236 524.588L0 548.916V547.712L35.3242 523.987L0 500.438V499.236L36.2217 523.385L74.8906 497.413L35.7803 471.341L0 495.371V494.167L34.8809 470.74L0 447.487V446.284L35.7793 470.137L74.4463 444.166L35.3379 418.094L0 441.827V440.622L34.4375 417.493L0 394.535V393.334L35.3359 416.891L74.0029 390.92L34.8945 364.848L0 388.283V387.078L33.9941 364.247L0 341.585V340.383L34.8926 363.644L73.5615 337.672L34.4521 311.6L0 334.738V333.534L33.5518 311L0 288.632V287.43L34.4502 310.396L73.1201 284.424L34.0098 258.351L0 281.192V279.987L33.1094 257.751L0 235.678V234.476L34.0078 257.147L72.6768 231.176L33.5664 205.103L0 227.646V226.442L32.667 204.503L0 182.725V181.522L33.5645 203.899L72.2324 177.928L33.1221 151.854L0 174.1V172.895L32.2217 151.254L0 129.773V128.571L33.1201 150.651L71.7891 124.68L32.6816 98.6074L0 120.557V119.353L31.7812 98.0078L0 76.8213V75.6182L32.6797 97.4043L71.3467 71.4336L32.2383 45.3613L0 67.0127V65.8076L31.3379 44.7607L0 23.8691V22.667L32.2354 44.1582L70.9053 18.1865L43.626 0H45.4297L71.8037 17.583L97.9824 0H99.7754L72.7031 18.1826L111.812 44.2559L150.479 18.2852L123.051 0H124.854L151.377 17.6816L177.704 0H179.497L152.277 18.2822L191.385 44.3535L230.055 18.3818L202.482 0H204.284L230.953 17.7783L257.423 0H259.217L231.853 18.3789L270.964 44.4521L309.634 18.4795L281.913 0H283.717L310.532 17.877L337.148 0H338.941L311.432 18.4766L350.542 44.5498L389.211 18.5791L361.343 0H363.145L390.108 17.9756L416.872 0H418.665L391.009 18.5752L430.119 44.6494L468.786 18.6787L440.769 0H442.571L469.685 18.0752L496.597 0H498.39L470.584 18.6748L509.693 44.748L548.363 18.7754L520.2 0H522.003L549.262 18.1719L576.318 0H578.111L550.161 18.7725L589.271 44.8447L627.937 18.874L599.626 0H601.429L628.835 18.2705L656.038 0H657.833L629.735 18.8711L668.844 44.9434L707.514 18.9717L679.057 0H680.858L708.411 18.3682L735.76 0H737.554L709.312 18.9688L748.421 45.041L787.088 19.0713L758.481 0H760.285L787.986 18.4678L815.482 0H817.276L788.887 19.0674L827.995 45.1396L866.664 19.168L837.912 0H839.714L867.562 18.5654L895.204 0H896.996L868.462 19.165L907.573 45.2393L946.242 19.2676L917.341 0H919.145L947.141 18.6641L974.929 0H976.722L948.04 19.2637L987.15 45.3379L1025.82 19.3662L996.769 0H998.572L1026.72 18.7627L1054.65 0H1056.45L1027.62 19.3633L1066.73 45.4355L1105.39 19.4639L1076.2 0H1078L1106.29 18.8604L1134.37 0H1136.17L1107.19 19.4609L1146.3 45.5342L1184.97 19.5625L1155.63 0H1157.43L1185.87 18.959L1214.1 0H1215.89L1186.77 19.5596L1225.88 45.6309L1264.54 19.6592L1235.05 0H1236.86L1265.44 19.0557L1293.81 0H1295.61L1266.34 19.6562L1305.45 45.7295L1344.12 19.7578L1314.48 0H1316.29L1345.02 19.1553L1373.54 0H1375.33L1345.92 19.7549L1385.03 45.8281L1423.7 19.8574L1393.91 0H1395.71L1424.6 19.2549L1453.26 0H1455.06L1425.5 19.8545ZM1311.67 685.301L1350.77 711.372L1389.44 685.4L1350.34 659.329L1311.67 685.301ZM1232.09 685.202L1271.2 711.276L1309.87 685.304L1270.76 659.229L1232.09 685.202ZM1152.51 685.105L1191.62 711.178L1230.29 685.205L1191.18 659.133L1152.51 685.105ZM1072.94 685.005L1112.05 711.079L1150.71 685.108L1111.6 659.034L1072.94 685.005ZM993.361 684.908L1032.47 710.979L1071.14 685.008L1032.03 658.937L993.361 684.908ZM913.786 684.809L952.896 710.883L991.563 684.912L952.453 658.839L913.786 684.809ZM834.207 684.709L873.319 710.783L911.987 684.812L872.876 658.737L834.207 684.709ZM754.636 684.613L793.74 710.684L832.408 684.712L793.304 658.643L754.636 684.613ZM675.055 684.513L714.168 710.588L752.838 684.616L713.725 658.541L675.055 684.513ZM595.481 684.417L634.588 710.488L673.257 684.516L634.151 658.445L595.481 684.417ZM515.902 684.317L555.015 710.393L593.684 684.421L554.571 658.346L515.902 684.317ZM436.33 684.22L475.437 710.291L514.104 684.32L474.997 658.249L436.33 684.22ZM356.754 684.12L395.864 710.193L434.531 684.223L395.422 658.149L356.754 684.12ZM277.177 684.021L316.287 710.095L354.955 684.124L315.845 658.05L277.177 684.021ZM197.603 683.925L236.709 709.996L275.379 684.024L236.271 657.953L197.603 683.925ZM118.025 683.826L157.136 709.899L195.805 683.928L156.694 657.854L118.025 683.826ZM38.4512 683.728L77.5596 709.8L116.228 683.829L77.1191 657.757L38.4512 683.728ZM1351.23 658.726L1390.34 684.797L1429.01 658.826L1389.9 632.755L1351.23 658.726ZM1271.66 658.627L1310.77 684.7L1349.44 658.729L1310.33 632.655L1271.66 658.627ZM1192.08 658.53L1231.19 684.602L1269.86 658.63L1230.75 632.558L1192.08 658.53ZM1112.5 658.432L1151.61 684.505L1190.28 658.533L1151.17 632.459L1112.5 658.432ZM1032.93 658.333L1072.04 684.404L1110.7 658.435L1071.6 632.363L1032.93 658.333ZM953.352 658.235L992.461 684.309L1031.13 658.337L992.021 632.263L953.352 658.235ZM873.773 658.134L912.886 684.209L951.553 658.238L912.441 632.163L873.773 658.134ZM794.203 658.039L833.308 684.108L871.976 658.138L832.871 632.067L794.203 658.039ZM714.622 657.938L753.735 684.013L792.403 658.042L753.29 631.967L714.622 657.938ZM635.049 657.842L674.155 683.913L712.824 657.94L673.719 631.87L635.049 657.842ZM555.469 657.742L594.581 683.817L633.251 657.845L594.139 631.771L555.469 657.742ZM475.896 657.646L515.002 683.717L553.671 657.745L514.564 631.674L475.896 657.646ZM396.319 657.547L435.43 683.62L474.097 657.649L434.987 631.576L396.319 657.547ZM316.743 657.446L355.854 683.521L394.521 657.55L355.411 631.476L316.743 657.446ZM237.17 657.35L276.276 683.421L314.944 657.45L275.838 631.379L237.17 657.35ZM157.592 657.251L196.702 683.324L235.371 657.353L196.262 631.279L157.592 657.251ZM78.0176 657.153L117.126 683.226L155.794 657.254L116.686 631.182L78.0176 657.153ZM1311.22 632.052L1350.33 658.126L1389 632.155L1349.89 606.081L1311.22 632.052ZM1231.65 631.954L1270.76 658.026L1309.42 632.055L1270.32 605.982L1231.65 631.954ZM1152.07 631.855L1191.18 657.93L1229.85 631.957L1190.74 605.884L1152.07 631.855ZM1072.49 631.76L1111.6 657.831L1150.27 631.858L1111.16 605.787L1072.49 631.76ZM992.919 631.66L1032.03 657.733L1070.7 631.763L1031.59 605.689L992.919 631.66ZM913.339 631.561L952.451 657.635L991.121 631.663L952.009 605.588L913.339 631.561ZM833.769 631.465L872.873 657.534L911.541 631.563L872.437 605.494L833.769 631.465ZM754.189 631.363L793.302 657.438L831.971 631.467L792.857 605.392L754.189 631.363ZM674.616 631.267L713.723 657.338L752.391 631.367L713.284 605.296L674.616 631.267ZM595.036 631.167L634.149 657.242L672.818 631.271L633.706 605.195L595.036 631.167ZM515.462 631.071L554.568 657.143L593.238 631.17L554.132 605.099L515.462 631.071ZM435.885 630.973L474.995 657.046L513.664 631.074L474.554 605.001L435.885 630.973ZM356.309 630.873L395.42 656.946L434.087 630.976L394.977 604.902L356.309 630.873ZM276.736 630.775L315.843 656.847L354.511 630.876L315.403 604.805L276.736 630.775ZM197.159 630.676L236.27 656.75L274.938 630.778L235.828 604.705L197.159 630.676ZM117.584 630.579L156.692 656.651L195.361 630.68L156.253 604.607L117.584 630.579ZM38.0068 630.479L77.1172 656.554L115.785 630.582L76.6758 604.509L38.0068 630.479ZM1350.79 605.479L1389.9 631.553L1428.57 605.58L1389.46 579.506L1350.79 605.479ZM1271.21 605.38L1310.32 631.452L1348.99 605.481L1309.88 579.409L1271.21 605.38ZM1191.64 605.28L1230.75 631.354L1269.42 605.383L1230.31 579.309L1191.64 605.28ZM1112.06 605.185L1151.17 631.256L1189.84 605.283L1150.73 579.212L1112.06 605.185ZM1032.48 605.087L1071.59 631.16L1110.26 605.188L1071.15 579.114L1032.48 605.087ZM952.907 604.985L992.019 631.06L1030.69 605.09L991.573 579.015L952.907 604.985ZM873.334 604.891L912.439 630.96L951.108 604.988L912.004 578.919L873.334 604.891ZM793.755 604.789L832.868 630.864L871.536 604.894L832.423 578.818L793.755 604.789ZM714.183 604.692L753.289 630.763L791.957 604.792L752.852 578.721L714.183 604.692ZM634.604 604.592L673.717 630.667L712.385 604.696L673.271 578.621L634.604 604.592ZM555.029 604.496L594.137 630.567L632.806 604.595L593.699 578.523L555.029 604.496ZM475.452 604.397L514.562 630.471L553.231 604.499L514.122 578.426L475.452 604.397ZM395.874 604.299L434.985 630.372L473.654 604.4L434.543 578.327L395.874 604.299ZM316.302 604.201L355.409 630.272L394.076 604.302L354.97 578.23L316.302 604.201ZM236.726 604.102L275.836 630.175L314.504 604.204L275.394 578.131L236.726 604.102ZM157.151 604.004L196.26 630.076L234.928 604.105L195.819 578.032L157.151 604.004ZM77.5732 603.905L116.684 629.979L155.353 604.007L116.243 577.934L77.5732 603.905ZM1310.78 578.806L1349.89 604.878L1388.56 578.905L1349.45 552.833L1310.78 578.806ZM1231.2 578.705L1270.31 604.779L1308.98 578.809L1269.87 552.734L1231.2 578.705ZM1151.63 578.608L1190.74 604.68L1229.41 578.709L1190.3 552.638L1151.63 578.608ZM1072.05 578.511L1111.16 604.584L1149.83 578.612L1110.72 552.539L1072.05 578.511ZM992.472 578.412L1031.58 604.486L1070.25 578.514L1031.14 552.439L992.472 578.412ZM912.902 578.315L952.007 604.385L990.674 578.415L951.568 552.345L912.902 578.315ZM833.32 578.215L872.434 604.29L911.104 578.318L871.99 552.243L833.32 578.215ZM753.749 578.118L792.855 604.188L831.522 578.218L792.417 552.147L753.749 578.118ZM674.171 578.018L713.283 604.093L751.951 578.121L712.839 552.046L674.171 578.018ZM594.597 577.921L633.704 603.992L672.372 578.021L633.265 551.95L594.597 577.921ZM515.02 577.822L554.13 603.896L592.799 577.924L553.688 551.851L515.02 577.822ZM435.441 577.724L474.552 603.798L513.222 577.825L474.111 551.752L435.441 577.724ZM355.867 577.627L394.975 603.698L433.644 577.727L394.536 551.655L355.867 577.627ZM276.292 577.527L315.401 603.602L354.069 577.631L314.959 551.557L276.292 577.527ZM196.718 577.43L235.826 603.502L274.493 577.531L235.385 551.459L196.718 577.43ZM117.141 577.33L156.251 603.404L194.919 577.433L155.809 551.359L117.141 577.33ZM37.5625 577.231L76.6738 603.306L115.343 577.334L76.2324 551.26L37.5625 577.231ZM1350.35 552.229L1389.46 578.302L1428.12 552.332L1389.01 526.26L1350.35 552.229ZM1270.77 552.132L1309.88 578.206L1348.55 552.233L1309.44 526.159L1270.77 552.132ZM1191.2 552.034L1230.3 578.105L1268.97 552.135L1229.86 526.063L1191.2 552.034ZM1111.62 551.936L1150.73 578.009L1189.4 552.037L1150.29 525.964L1111.62 551.936ZM1032.04 551.836L1071.15 577.911L1109.82 551.938L1070.71 525.864L1032.04 551.836ZM952.467 551.742L991.571 577.812L1030.24 551.839L991.137 525.77L952.467 551.742ZM872.889 551.64L912.002 577.715L950.668 551.745L911.556 525.669L872.889 551.64ZM793.314 551.544L832.421 577.615L871.091 551.643L831.984 525.572L793.314 551.544ZM713.736 551.443L752.85 577.519L791.517 551.548L752.404 525.473L713.736 551.443ZM634.164 551.346L673.271 577.417L711.938 551.446L672.832 525.375L634.164 551.346ZM554.587 551.247L593.697 577.32L632.365 551.35L593.255 525.276L554.587 551.247ZM475.009 551.148L514.12 577.223L552.789 551.251L513.678 525.177L475.009 551.148ZM395.435 551.053L434.541 577.124L473.211 551.151L434.104 525.08L395.435 551.053ZM315.857 550.954L354.967 577.027L393.636 551.056L354.526 524.982L315.857 550.954ZM236.283 550.855L275.392 576.928L314.059 550.957L274.95 524.885L236.283 550.855ZM156.707 550.756L195.817 576.829L234.485 550.858L195.375 524.785L156.707 550.756ZM77.1299 550.656L116.241 576.73L154.909 550.76L115.798 524.686L77.1299 550.656ZM1310.34 525.556L1349.45 551.63L1388.12 525.66L1349 499.586L1310.34 525.556ZM1230.76 525.461L1269.87 551.531L1308.54 525.56L1269.43 499.488L1230.76 525.461ZM1151.19 525.361L1190.3 551.435L1228.96 525.464L1189.85 499.391L1151.19 525.361ZM1071.61 525.261L1110.72 551.335L1149.39 525.364L1110.28 499.289L1071.61 525.261ZM992.035 525.166L1031.14 551.236L1069.81 525.264L1030.71 499.194L992.035 525.166ZM912.453 525.066L951.566 551.142L990.236 525.169L951.123 499.094L912.453 525.066ZM832.883 524.969L871.988 551.04L910.655 525.069L871.549 498.999L832.883 524.969ZM753.303 524.869L792.415 550.944L831.084 524.973L791.972 498.897L753.303 524.869ZM673.729 524.771L712.837 550.843L751.504 524.872L712.397 498.801L673.729 524.771ZM594.153 524.673L633.264 550.746L671.932 524.774L632.822 498.701L594.153 524.673ZM514.576 524.573L553.687 550.647L592.354 524.677L553.244 498.603L514.576 524.573ZM435.002 524.478L474.109 550.549L512.778 524.577L473.671 498.505L435.002 524.478ZM355.424 524.379L394.534 550.452L433.204 524.48L394.094 498.407L355.424 524.379ZM275.849 524.281L314.957 550.354L353.626 524.382L314.518 498.31L275.849 524.281ZM196.273 524.182L235.383 550.256L274.051 524.285L234.94 498.211L196.273 524.182ZM116.696 524.082L155.808 550.156L194.475 524.186L155.364 498.111L116.696 524.082ZM37.1221 523.984L76.2305 550.057L114.898 524.086L75.79 498.014L37.1221 523.984ZM1349.9 498.982L1389.01 525.057L1427.68 499.084L1388.57 473.011L1349.9 498.982ZM1270.33 498.885L1309.44 524.956L1348.1 498.985L1309 472.914L1270.33 498.885ZM1190.75 498.787L1229.86 524.86L1268.53 498.888L1229.42 472.814L1190.75 498.787ZM1111.17 498.687L1150.29 524.761L1188.95 498.79L1149.84 472.716L1111.17 498.687ZM1031.6 498.591L1070.71 524.66L1109.38 498.689L1070.27 472.619L1031.6 498.591ZM952.021 498.49L991.135 524.566L1029.8 498.594L990.691 472.519L952.021 498.49ZM872.447 498.396L911.554 524.467L950.224 498.494L911.117 472.423L872.447 498.396ZM792.87 498.294L831.982 524.369L870.649 498.398L831.537 472.323L792.87 498.294ZM713.296 498.198L752.402 524.27L791.071 498.297L751.965 472.226L713.296 498.198ZM633.72 498.099L672.83 524.172L711.497 498.201L672.388 472.128L633.72 498.099ZM554.143 497.999L593.254 524.073L631.922 498.102L592.812 472.027L554.143 497.999ZM474.569 497.902L513.676 523.974L552.344 498.003L513.237 471.932L474.569 497.902ZM394.992 497.804L434.102 523.877L472.771 497.905L433.661 471.832L394.992 497.804ZM315.416 497.707L354.524 523.779L393.193 497.807L354.085 471.734L315.416 497.707ZM235.839 497.608L274.948 523.682L313.617 497.71L274.508 471.637L235.839 497.608ZM156.262 497.508L195.373 523.582L234.04 497.611L194.93 471.537L156.262 497.508ZM76.6885 497.41L115.797 523.482L154.464 497.512L115.356 471.439L76.6885 497.41ZM1309.9 472.312L1349 498.382L1387.67 472.41L1348.56 446.339L1309.9 472.312ZM1230.32 472.211L1269.43 498.284L1308.1 472.314L1268.99 446.241L1230.32 472.211ZM1150.74 472.112L1189.85 498.188L1228.52 472.215L1189.41 446.14L1150.74 472.112ZM1071.17 472.017L1110.27 498.086L1148.94 472.115L1109.84 446.046L1071.17 472.017ZM991.59 471.915L1030.7 497.99L1069.37 472.02L1030.26 445.943L991.59 471.915ZM912.016 471.82L951.121 497.891L989.791 471.919L950.686 445.848L912.016 471.82ZM832.435 471.721L871.547 497.796L910.218 471.823L871.104 445.748L832.435 471.721ZM752.863 471.623L791.97 497.693L830.637 471.724L791.53 445.652L752.863 471.623ZM673.285 471.524L712.396 497.598L751.064 471.626L711.955 445.553L673.285 471.524ZM593.709 471.425L632.82 497.498L671.487 471.527L632.377 445.454L593.709 471.425ZM514.136 471.327L553.243 497.399L591.911 471.428L552.804 445.356L514.136 471.327ZM434.559 471.229L473.669 497.302L512.337 471.331L473.228 445.258L434.559 471.229ZM354.983 471.132L394.092 497.204L432.761 471.232L393.652 445.159L354.983 471.132ZM275.405 471.033L314.516 497.106L353.186 471.135L314.075 445.062L275.405 471.033ZM195.828 470.935L234.938 497.008L273.607 471.036L234.497 444.963L195.828 470.935ZM116.254 470.836L155.362 496.908L194.029 470.938L154.922 444.865L116.254 470.836ZM36.6787 470.737L75.7881 496.811L114.456 470.839L75.3467 444.767L36.6787 470.737ZM1349.46 445.736L1388.57 471.807L1427.24 445.837L1388.13 419.766L1349.46 445.736ZM1269.89 445.638L1309 471.711L1347.67 445.739L1308.55 419.666L1269.89 445.638ZM1190.31 445.536L1229.42 471.611L1268.09 445.641L1228.97 419.566L1190.31 445.536ZM1110.74 445.442L1149.84 471.513L1188.51 445.54L1149.41 419.47L1110.74 445.442ZM1031.16 445.341L1070.27 471.416L1108.94 445.445L1069.82 419.37L1031.16 445.341ZM951.583 445.244L990.689 471.315L1029.36 445.344L990.252 419.273L951.583 445.244ZM872.003 445.145L911.115 471.22L949.785 445.248L910.673 419.173L872.003 445.145ZM792.428 445.049L831.534 471.12L870.204 445.148L831.098 419.077L792.428 445.049ZM712.854 444.949L751.963 471.022L790.63 445.053L751.52 418.979L712.854 444.949ZM633.274 444.851L672.386 470.925L711.055 444.952L671.944 418.879L633.274 444.851ZM553.702 444.753L592.81 470.824L631.477 444.854L592.369 418.782L553.702 444.753ZM474.126 444.654L513.235 470.728L551.904 444.756L512.794 418.683L474.126 444.654ZM394.551 444.557L433.659 470.629L472.327 444.658L433.219 418.586L394.551 444.557ZM314.974 444.458L354.083 470.531L392.752 444.56L353.643 418.486L314.974 444.458ZM235.395 444.359L274.506 470.434L313.175 444.461L274.064 418.388L235.395 444.359ZM155.819 444.263L194.928 470.334L233.597 444.362L194.488 418.291L155.819 444.263ZM76.2451 444.163L115.354 470.236L154.021 444.266L114.912 418.192L76.2451 444.163ZM1309.45 419.062L1348.56 445.136L1387.23 419.166L1348.12 393.093L1309.45 419.062ZM1229.87 418.963L1268.99 445.038L1307.65 419.065L1268.54 392.991L1229.87 418.963ZM1150.3 418.866L1189.41 444.937L1228.08 418.966L1188.97 392.896L1150.3 418.866ZM1070.72 418.767L1109.83 444.842L1148.5 418.87L1109.39 392.794L1070.72 418.767ZM991.149 418.67L1030.26 444.741L1068.92 418.771L1029.82 392.699L991.149 418.67ZM911.571 418.569L950.684 444.645L989.352 418.673L950.239 392.598L911.571 418.569ZM831.996 418.474L871.103 444.545L909.772 418.572L870.666 392.501L831.996 418.474ZM752.418 418.376L791.527 444.449L830.197 418.477L791.088 392.403L752.418 418.376ZM672.843 418.275L711.953 444.35L750.62 418.379L711.509 392.306L672.843 418.275ZM593.268 418.18L632.375 444.251L671.044 418.278L631.937 392.207L593.268 418.18ZM513.692 418.08L552.802 444.153L591.47 418.183L552.359 392.109L513.692 418.08ZM434.117 417.982L473.226 444.055L511.894 418.083L472.785 392.011L434.117 417.982ZM354.54 417.883L393.65 443.956L432.318 417.985L393.208 391.912L354.54 417.883ZM274.963 417.784L314.073 443.858L352.742 417.887L313.632 391.812L274.963 417.784ZM195.387 417.688L234.495 443.76L273.164 417.787L234.057 391.715L195.387 417.688ZM115.811 417.589L154.92 443.662L193.589 417.69L154.479 391.617L115.811 417.589ZM36.2354 417.49L75.3447 443.563L114.012 417.593L74.9033 391.52L36.2354 417.49ZM1349.02 392.488L1388.13 418.562L1426.8 392.59L1387.69 366.517L1349.02 392.488ZM1269.44 392.388L1308.55 418.463L1347.22 392.492L1308.11 366.418L1269.44 392.388ZM1189.87 392.293L1228.97 418.363L1267.64 392.391L1228.54 366.321L1189.87 392.293ZM1110.29 392.19L1149.4 418.267L1188.07 392.296L1148.96 366.221L1110.29 392.19ZM1030.71 392.096L1069.82 418.167L1108.49 392.194L1069.39 366.123L1030.71 392.096ZM951.138 391.995L990.25 418.07L1028.92 392.1L989.805 366.024L951.138 391.995ZM871.564 391.898L910.671 417.97L949.339 391.998L910.232 365.927L871.564 391.898ZM791.985 391.801L831.096 417.874L869.766 391.901L830.655 365.828L791.985 391.801ZM712.407 391.702L751.518 417.775L790.188 391.804L751.077 365.729L712.407 391.702ZM632.835 391.604L671.942 417.676L710.609 391.705L671.502 365.634L632.835 391.604ZM553.258 391.506L592.367 417.579L631.037 391.607L591.927 365.534L553.258 391.506ZM473.684 391.407L512.792 417.479L551.46 391.509L512.351 365.437L473.684 391.407ZM394.106 391.309L433.217 417.382L471.886 391.41L432.775 365.337L394.106 391.309ZM314.529 391.209L353.641 417.283L392.309 391.312L353.197 365.238L314.529 391.209ZM234.954 391.112L274.062 417.185L312.731 391.213L273.623 365.141L234.954 391.112ZM155.377 391.015L194.486 417.088L233.156 391.115L194.047 365.042L155.377 391.015ZM75.8018 390.917L114.91 416.989L153.579 391.018L114.471 364.945L75.8018 390.917ZM1309.01 365.813L1348.12 391.889L1386.79 365.917L1347.67 339.843L1309.01 365.813ZM1229.44 365.718L1268.54 391.788L1307.21 365.817L1268.1 339.748L1229.44 365.718ZM1149.85 365.617L1188.97 391.692L1227.64 365.721L1188.52 339.646L1149.85 365.617ZM1070.28 365.521L1109.39 391.591L1148.06 365.621L1108.95 339.55L1070.28 365.521ZM990.703 365.421L1029.82 391.496L1068.49 365.523L1029.37 339.448L990.703 365.421ZM911.131 365.323L950.237 391.395L988.904 365.424L949.798 339.353L911.131 365.323ZM831.554 365.225L870.664 391.298L909.332 365.327L870.223 339.254L831.554 365.225ZM751.975 365.127L791.086 391.2L829.756 365.229L790.645 339.154L751.975 365.127ZM672.4 365.03L711.507 391.102L750.177 365.13L711.07 339.059L672.4 365.03ZM592.825 364.931L631.936 391.004L670.602 365.034L631.492 338.961L592.825 364.931ZM513.249 364.834L552.357 390.906L591.027 364.934L551.919 338.861L513.249 364.834ZM433.673 364.734L472.783 390.808L511.451 364.837L472.341 338.764L433.673 364.734ZM354.096 364.635L393.207 390.709L431.875 364.737L392.765 338.663L354.096 364.635ZM274.521 364.537L313.63 390.609L352.298 364.639L313.189 338.566L274.521 364.537ZM194.945 364.439L234.055 390.512L272.724 364.54L233.614 338.468L194.945 364.439ZM115.368 364.342L154.477 390.414L193.146 364.442L154.038 338.37L115.368 364.342ZM35.792 364.244L74.9014 390.316L113.57 364.345L74.4609 338.272L35.792 364.244ZM1348.57 339.239L1387.69 365.313L1426.35 339.342L1387.24 313.268L1348.57 339.239ZM1269 339.144L1308.11 365.214L1346.78 339.242L1307.67 313.173L1269 339.144ZM1189.42 339.042L1228.54 365.118L1267.2 339.147L1228.09 313.072L1189.42 339.042ZM1109.85 338.946L1148.96 365.018L1187.62 339.046L1148.52 312.975L1109.85 338.946ZM1030.27 338.845L1069.38 364.92L1108.05 338.95L1068.94 312.875L1030.27 338.845ZM950.696 338.75L989.803 364.821L1028.47 338.849L989.366 312.777L950.696 338.75ZM871.12 338.65L910.23 364.724L948.897 338.753L909.788 312.68L871.12 338.65ZM791.543 338.551L830.654 364.625L869.322 338.653L830.212 312.58L791.543 338.551ZM711.968 338.455L751.075 364.526L789.745 338.555L750.638 312.482L711.968 338.455ZM632.39 338.357L671.5 364.431L710.17 338.458L671.06 312.385L632.39 338.357ZM552.816 338.259L591.925 364.331L630.592 338.36L591.483 312.288L552.816 338.259ZM473.239 338.16L512.349 364.233L551.019 338.262L511.908 312.188L473.239 338.16ZM393.662 338.061L432.773 364.134L471.441 338.163L432.33 312.09L393.662 338.061ZM314.088 337.963L353.196 364.035L391.864 338.063L352.757 311.991L314.088 337.963ZM234.512 337.864L273.621 363.938L312.289 337.966L273.18 311.893L234.512 337.864ZM154.937 337.767L194.045 363.839L232.714 337.867L193.605 311.795L154.937 337.767ZM75.3594 337.669L114.468 363.742L153.138 337.77L114.029 311.697L75.3594 337.669ZM1308.57 312.569L1347.67 338.639L1386.34 312.667L1347.24 286.598L1308.57 312.569ZM1228.99 312.468L1268.1 338.544L1306.77 312.572L1267.66 286.497L1228.99 312.468ZM1149.42 312.371L1188.52 338.442L1227.19 312.473L1188.08 286.401L1149.42 312.371ZM1069.84 312.271L1108.95 338.347L1147.62 312.375L1108.51 286.3L1069.84 312.271ZM990.265 312.174L1029.37 338.245L1068.04 312.275L1028.93 286.204L990.265 312.174ZM910.686 312.076L949.796 338.149L988.466 312.178L949.356 286.104L910.686 312.076ZM831.109 311.977L870.221 338.05L908.888 312.079L869.777 286.006L831.109 311.977ZM751.536 311.88L790.644 337.951L829.312 311.979L790.204 285.908L751.536 311.88ZM671.958 311.782L711.067 337.855L749.737 311.883L710.628 285.81L671.958 311.782ZM592.382 311.685L631.49 337.757L670.16 311.785L631.052 285.713L592.382 311.685ZM512.807 311.585L551.917 337.658L590.583 311.688L551.474 285.614L512.807 311.585ZM433.229 311.486L472.339 337.561L511.009 311.588L471.897 285.515L433.229 311.486ZM353.654 311.388L392.763 337.46L431.431 311.489L392.322 285.417L353.654 311.388ZM274.078 311.29L313.188 337.362L351.856 311.392L312.747 285.318L274.078 311.29ZM194.503 311.191L233.612 337.264L272.28 311.293L233.171 285.221L194.503 311.191ZM114.927 311.094L154.036 337.166L192.705 311.194L153.596 285.122L114.927 311.094ZM35.3506 310.996L74.459 337.069L113.129 311.097L74.0195 285.024L35.3506 310.996ZM1348.14 285.994L1387.24 312.064L1425.91 286.093L1386.8 260.022L1348.14 285.994ZM1268.55 285.894L1307.67 311.969L1346.34 285.997L1307.22 259.922L1268.55 285.894ZM1188.98 285.798L1228.09 311.868L1266.76 285.896L1227.65 259.826L1188.98 285.798ZM1109.4 285.696L1148.52 311.771L1187.18 285.802L1148.07 259.727L1109.4 285.696ZM1029.83 285.601L1068.94 311.672L1107.61 285.699L1068.5 259.629L1029.83 285.601ZM950.255 285.501L989.364 311.574L1028.03 285.604L988.921 259.53L950.255 285.501ZM870.675 285.402L909.786 311.477L948.456 285.504L909.346 259.43L870.675 285.402ZM791.103 285.305L830.21 311.376L868.877 285.405L829.77 259.334L791.103 285.305ZM711.526 285.206L750.636 311.279L789.305 285.308L750.194 259.235L711.526 285.206ZM631.949 285.109L671.058 311.182L709.728 285.21L670.619 259.138L631.949 285.109ZM552.371 285.012L591.481 311.085L630.151 285.112L591.041 259.039L552.371 285.012ZM472.796 284.911L511.906 310.985L550.573 285.015L511.463 258.94L472.796 284.911ZM393.22 284.814L432.328 310.887L470.998 284.914L431.89 258.842L393.22 284.814ZM313.645 284.715L352.754 310.788L391.422 284.817L352.312 258.744L313.645 284.715ZM234.069 284.617L273.179 310.689L311.847 284.718L272.738 258.646L234.069 284.617ZM154.494 284.519L193.603 310.592L232.271 284.62L193.162 258.548L154.494 284.519ZM74.918 284.421L114.027 310.494L152.696 284.522L113.587 258.449L74.918 284.421ZM1308.12 259.318L1347.24 285.395L1385.9 259.423L1346.79 233.348L1308.12 259.318ZM1228.55 259.223L1267.66 285.294L1306.32 259.322L1267.22 233.251L1228.55 259.223ZM1148.97 259.122L1188.08 285.197L1226.75 259.227L1187.64 233.151L1148.97 259.122ZM1069.4 259.025L1108.5 285.097L1147.17 259.126L1108.06 233.055L1069.4 259.025ZM989.819 258.927L1028.93 285L1067.6 259.028L1028.49 232.955L989.819 258.927ZM910.244 258.827L949.354 284.9L988.021 258.931L948.91 232.856L910.244 258.827ZM830.668 258.731L869.775 284.803L908.445 258.83L869.338 232.759L830.668 258.731ZM751.093 258.632L790.202 284.705L828.87 258.734L789.76 232.661L751.093 258.632ZM671.518 258.534L710.626 284.606L749.295 258.635L710.187 232.562L671.518 258.534ZM591.939 258.437L631.05 284.51L669.72 258.537L630.609 232.464L591.939 258.437ZM512.36 258.338L551.472 284.411L590.142 258.439L551.03 232.365L512.36 258.338ZM432.788 258.239L471.896 284.312L510.562 258.341L471.454 232.269L432.788 258.239ZM353.21 258.142L392.32 284.214L430.989 258.242L391.88 232.169L353.21 258.142ZM273.637 258.043L312.745 284.115L351.412 258.145L312.304 232.072L273.637 258.043ZM194.061 257.944L233.169 284.017L271.838 258.046L232.729 231.973L194.061 257.944ZM114.485 257.847L153.594 283.919L192.262 257.948L153.153 231.875L114.485 257.847ZM34.9082 257.748L74.0176 283.821L112.687 257.85L73.5771 231.776L34.9082 257.748ZM1347.69 232.744L1386.8 258.819L1425.47 232.849L1386.36 206.772L1347.69 232.744ZM1268.12 232.647L1307.22 258.719L1345.89 232.747L1306.78 206.677L1268.12 232.647ZM1188.54 232.548L1227.65 258.623L1266.32 232.651L1227.21 206.576L1188.54 232.548ZM1108.96 232.451L1148.07 258.522L1186.74 232.551L1147.63 206.479L1108.96 232.451ZM1029.39 232.352L1068.5 258.425L1107.16 232.455L1068.05 206.382L1029.39 232.352ZM949.809 232.253L988.919 258.327L1027.59 232.355L988.479 206.281L949.809 232.253ZM870.236 232.155L909.344 258.227L948.011 232.257L908.903 206.186L870.236 232.155ZM790.658 232.058L829.768 258.131L868.438 232.158L829.328 206.085L790.658 232.058ZM711.084 231.959L750.192 258.031L788.86 232.061L749.752 205.988L711.084 231.959ZM631.508 231.86L670.617 257.934L709.286 231.963L670.176 205.889L631.508 231.86ZM551.929 231.763L591.039 257.836L629.709 231.864L590.599 205.79L551.929 231.763ZM472.353 231.665L511.461 257.737L550.131 231.766L511.022 205.693L472.353 231.665ZM392.778 231.565L431.888 257.639L470.555 231.669L431.445 205.596L392.778 231.565ZM313.202 231.469L352.311 257.541L390.979 231.569L351.871 205.497L313.202 231.469ZM233.627 231.37L272.735 257.442L311.403 231.472L272.295 205.399L233.627 231.37ZM154.052 231.271L193.16 257.345L231.829 231.373L192.72 205.301L154.052 231.271ZM74.4746 231.173L113.585 257.246L152.253 231.275L113.144 205.202L74.4746 231.173ZM1307.68 206.073L1346.79 232.145L1385.46 206.173L1346.35 180.102L1307.68 206.073ZM1228.1 205.973L1267.22 232.048L1305.88 206.077L1266.77 180.002L1228.1 205.973ZM1148.53 205.877L1187.64 231.948L1226.31 205.976L1187.2 179.905L1148.53 205.877ZM1068.95 205.778L1108.06 231.852L1146.73 205.88L1107.62 179.807L1068.95 205.778ZM989.376 205.678L1028.49 231.752L1067.15 205.781L1028.04 179.708L989.376 205.678ZM909.802 205.582L948.908 231.653L987.578 205.682L948.471 179.609L909.802 205.582ZM830.227 205.482L869.336 231.556L908.003 205.585L868.894 179.512L830.227 205.482ZM750.649 205.386L789.758 231.458L828.429 205.485L789.32 179.413L750.649 205.386ZM671.074 205.286L710.185 231.359L748.852 205.389L709.741 179.315L671.074 205.286ZM591.497 205.187L630.607 231.261L669.276 205.289L630.165 179.215L591.497 205.187ZM511.92 205.09L551.028 231.162L589.698 205.19L550.59 179.118L511.92 205.09ZM432.343 204.992L471.452 231.065L510.122 205.093L471.013 179.021L432.343 204.992ZM352.77 204.894L391.878 230.966L430.545 204.995L391.437 178.923L352.77 204.894ZM273.192 204.796L312.302 230.868L350.971 204.896L311.862 178.824L273.192 204.796ZM193.618 204.697L232.728 230.77L271.395 204.799L232.286 178.727L193.618 204.697ZM114.041 204.599L153.151 230.672L191.82 204.7L152.71 178.627L114.041 204.599ZM34.4648 204.499L73.5752 230.573L112.243 204.602L73.1328 178.528L34.4648 204.499ZM1347.25 179.499L1386.36 205.57L1425.02 179.599L1385.92 153.527L1347.25 179.499ZM1267.67 179.398L1306.78 205.474L1345.45 179.502L1306.34 153.427L1267.67 179.398ZM1188.1 179.302L1227.2 205.373L1265.87 179.401L1226.76 153.33L1188.1 179.302ZM1108.52 179.203L1147.63 205.276L1186.3 179.305L1147.19 153.231L1108.52 179.203ZM1028.94 179.104L1068.05 205.178L1106.72 179.206L1067.61 153.133L1028.94 179.104ZM949.369 179.007L988.476 205.078L1027.14 179.107L988.035 153.036L949.369 179.007ZM869.792 178.908L908.901 204.981L947.57 179.01L908.461 152.937L869.792 178.908ZM790.218 178.81L829.326 204.882L867.993 178.912L828.885 152.84L790.218 178.81ZM710.64 178.712L749.75 204.785L788.42 178.813L749.31 152.739L710.64 178.712ZM631.063 178.612L670.174 204.686L708.842 178.715L669.73 152.642L631.063 178.612ZM551.488 178.515L590.597 204.587L629.266 178.615L590.157 152.543L551.488 178.515ZM471.911 178.417L511.021 204.49L549.69 178.518L510.581 152.444L471.911 178.417ZM392.334 178.32L431.442 204.393L470.112 178.42L431.004 152.348L392.334 178.32ZM312.761 178.221L351.869 204.293L390.536 178.323L351.427 152.251L312.761 178.221ZM233.184 178.123L272.293 204.196L310.962 178.224L271.853 152.151L233.184 178.123ZM153.608 178.023L192.718 204.097L231.386 178.126L192.275 152.053L153.608 178.023ZM74.0312 177.925L113.142 203.998L151.81 178.027L112.7 151.953L74.0312 177.925ZM1307.24 152.824L1346.35 178.899L1385.02 152.928L1345.91 126.853L1307.24 152.824ZM1227.66 152.727L1266.77 178.798L1305.44 152.827L1266.33 126.756L1227.66 152.727ZM1148.09 152.628L1187.2 178.701L1225.87 152.73L1186.75 126.657L1148.09 152.628ZM1068.51 152.529L1107.62 178.604L1146.29 152.632L1107.18 126.558L1068.51 152.529ZM988.935 152.433L1028.04 178.504L1066.71 152.532L1027.6 126.461L988.935 152.433ZM909.359 152.334L948.469 178.406L987.136 152.437L948.026 126.363L909.359 152.334ZM829.783 152.236L868.892 178.309L907.561 152.337L868.452 126.265L829.783 152.236ZM750.208 152.137L789.318 178.21L827.984 152.239L788.875 126.166L750.208 152.137ZM670.629 152.038L709.739 178.112L748.41 152.14L709.299 126.065L670.629 152.038ZM591.055 151.939L630.163 178.012L668.831 152.041L629.723 125.969L591.055 151.939ZM511.479 151.842L550.588 177.914L589.257 151.943L550.147 125.87L511.479 151.842ZM431.902 151.745L471.011 177.817L509.681 151.845L470.572 125.772L431.902 151.745ZM352.325 151.647L391.434 177.72L430.104 151.747L390.995 125.675L352.325 151.647ZM272.751 151.548L311.86 177.621L350.527 151.65L311.418 125.578L272.751 151.548ZM193.174 151.45L232.283 177.523L270.953 151.552L231.843 125.478L193.174 151.45ZM113.598 151.351L152.708 177.424L191.375 151.453L152.266 125.38L113.598 151.351ZM34.0205 151.251L73.1309 177.325L111.8 151.354L72.6895 125.279L34.0205 151.251ZM1346.8 126.249L1385.92 152.324L1424.58 126.353L1385.47 100.277L1346.8 126.249ZM1267.23 126.152L1306.34 152.224L1345 126.252L1305.9 100.182L1267.23 126.152ZM1187.65 126.054L1226.76 152.127L1265.43 126.156L1226.32 100.082L1187.65 126.054ZM1108.08 125.954L1147.19 152.028L1185.85 126.057L1146.74 99.9834L1108.08 125.954ZM1028.5 125.858L1067.61 151.93L1106.28 125.958L1067.17 99.8857L1028.5 125.858ZM948.925 125.76L988.034 151.833L1026.7 125.861L987.594 99.7881L948.925 125.76ZM869.351 125.661L908.459 151.733L947.126 125.764L908.018 99.6914L869.351 125.661ZM789.772 125.562L828.883 151.637L867.553 125.664L828.442 99.5908L789.772 125.562ZM710.197 125.463L749.308 151.536L787.975 125.566L748.864 99.4922L710.197 125.463ZM630.62 125.366L669.729 151.438L708.399 125.466L669.291 99.3936L630.62 125.366ZM551.045 125.267L590.155 151.34L628.822 125.369L589.713 99.2959L551.045 125.267ZM471.471 125.169L510.579 151.241L549.247 125.27L510.139 99.1973L471.471 125.169ZM391.893 125.072L431.002 151.145L469.672 125.172L430.562 99.0996L391.893 125.072ZM312.316 124.975L351.425 151.047L390.095 125.075L350.986 99.002L312.316 124.975ZM232.741 124.875L271.852 150.948L310.518 124.978L271.408 98.9043L232.741 124.875ZM153.163 124.776L192.273 150.85L230.942 124.878L191.833 98.8047L153.163 124.776ZM73.5869 124.677L112.697 150.75L151.365 124.779L112.255 98.7061L73.5869 124.677ZM1306.8 99.5781L1345.9 125.649L1384.57 99.6777L1345.46 73.6064L1306.8 99.5781ZM1227.22 99.4795L1266.33 125.553L1305 99.5811L1265.89 73.5078L1227.22 99.4795ZM1147.64 99.3799L1186.75 125.454L1225.42 99.4824L1186.31 73.4082L1147.64 99.3799ZM1068.07 99.2832L1107.18 125.354L1145.84 99.3828L1106.74 73.3115L1068.07 99.2832ZM988.491 99.1846L1027.6 125.258L1066.27 99.2861L1027.16 73.2129L988.491 99.1846ZM908.916 99.0869L948.024 125.159L986.693 99.1875L947.585 73.1152L908.916 99.0869ZM829.34 98.9873L868.45 125.062L907.117 99.0908L868.007 73.0176L829.34 98.9873ZM749.762 98.8887L788.873 124.963L827.542 98.9912L788.432 72.917L749.762 98.8887ZM670.188 98.79L709.297 124.862L747.964 98.8926L708.855 72.8203L670.188 98.79ZM590.611 98.6934L629.721 124.766L668.391 98.793L629.281 72.7207L590.611 98.6934ZM511.037 98.5947L550.146 124.667L588.812 98.6963L549.704 72.624L511.037 98.5947ZM431.461 98.4961L470.569 124.568L509.238 98.5977L470.13 72.5244L431.461 98.4961ZM351.884 98.3994L390.993 124.472L429.663 98.5L390.554 72.4268L351.884 98.3994ZM272.306 98.3008L311.416 124.375L350.086 98.4023L310.976 72.3291L272.306 98.3008ZM192.731 98.2012L231.841 124.274L270.508 98.3047L231.397 72.2305L192.731 98.2012ZM113.152 98.1025L152.264 124.177L190.933 98.2041L151.822 72.1309L113.152 98.1025ZM33.5791 98.0049L72.6875 124.076L111.354 98.1055L72.2471 72.0342L33.5791 98.0049ZM1346.36 73.0029L1385.47 99.0742L1424.14 73.1025L1385.03 47.0312L1346.36 73.0029ZM1266.79 72.9043L1305.9 98.9775L1344.56 73.0068L1305.46 46.9336L1266.79 72.9043ZM1187.21 72.8057L1226.32 98.8789L1264.99 72.9082L1225.88 46.834L1187.21 72.8057ZM1107.63 72.708L1146.74 98.7793L1185.41 72.8086L1146.3 46.7373L1107.63 72.708ZM1028.06 72.6094L1067.17 98.6826L1105.84 72.7119L1066.73 46.6387L1028.06 72.6094ZM948.483 72.5127L987.592 98.585L1026.26 72.6133L987.152 46.541L948.483 72.5127ZM868.906 72.4141L908.017 98.4873L946.685 72.5156L907.574 46.4424L868.906 72.4141ZM789.329 72.3135L828.44 98.3877L867.107 72.418L827.996 46.3438L789.329 72.3135ZM709.754 72.2168L748.862 98.2891L787.531 72.3174L748.423 46.2451L709.754 72.2168ZM630.179 72.1172L669.289 98.1904L707.955 72.2197L668.846 46.1465L630.179 72.1172ZM550.603 72.0205L589.711 98.0928L628.381 72.1201L589.272 46.0479L550.603 72.0205ZM471.027 71.9219L510.137 97.9941L548.804 72.0234L509.695 45.9512L471.027 71.9219ZM391.452 71.8232L430.562 97.8965L469.229 71.9248L430.121 45.8525L391.452 71.8232ZM311.874 71.7256L350.983 97.7988L389.653 71.8271L350.544 45.7539L311.874 71.7256ZM232.296 71.6279L271.406 97.7012L310.076 71.7285L270.966 45.6553L232.296 71.6279ZM152.721 71.5273L191.831 97.6006L230.498 71.6309L191.387 45.5566L152.721 71.5273ZM73.1445 71.4307L112.253 97.5029L150.922 71.5303L111.814 45.459L73.1445 71.4307ZM1306.35 46.3301L1345.46 72.4033L1384.13 46.4316L1345.02 20.3584L1306.35 46.3301ZM1226.78 46.2305L1265.89 72.3047L1304.55 46.333L1265.44 20.2598L1226.78 46.2305ZM1147.2 46.1338L1186.31 72.2051L1224.98 46.2344L1185.87 20.1621L1147.2 46.1338ZM1067.63 46.0352L1106.74 72.1084L1145.4 46.1367L1106.29 20.0645L1067.63 46.0352ZM988.051 45.9375L1027.16 72.0098L1065.83 46.0381L1026.72 19.9658L988.051 45.9375ZM908.473 45.8389L947.583 71.9121L986.252 45.9404L947.142 19.8672L908.473 45.8389ZM828.896 45.7402L868.006 71.8135L906.675 45.8418L867.563 19.7686L828.896 45.7402ZM749.321 45.6416L788.43 71.7139L827.097 45.7441L787.988 19.6709L749.321 45.6416ZM669.744 45.5439L708.854 71.6162L747.523 45.6445L708.414 19.5713L669.744 45.5439ZM590.171 45.4453L629.279 71.5176L667.946 45.5469L628.838 19.4746L590.171 45.4453ZM510.594 45.3477L549.702 71.4199L588.372 45.4473L549.264 19.375L510.594 45.3477ZM431.019 45.249L470.128 71.3213L508.795 45.3506L469.687 19.2783L431.019 45.249ZM351.442 45.1504L390.552 71.2236L429.221 45.252L390.11 19.1787L351.442 45.1504ZM271.863 45.0527L310.974 71.126L349.644 45.1533L310.533 19.0801L271.863 45.0527ZM192.285 44.9541L231.396 71.0273L270.065 45.0557L230.955 18.9814L192.285 44.9541ZM112.713 44.8555L151.82 70.9268L190.487 44.957L151.379 18.8857L112.713 44.8555ZM33.1357 44.7578L72.2451 70.8311L110.914 44.8584L71.8047 18.7861L33.1357 44.7578ZM0 13.4678V12.2637L18.2598 0H20.0527L0 13.4678Z" fill="#C3BDBD" fill-opacity="0.2"/>
</svg>
