<svg width="1460" height="711" viewBox="0 0 1460 711" fill="none" xmlns="http://www.w3.org/2000/svg">
<path fill-rule="evenodd" clip-rule="evenodd" d="M1457.53 126.575L1457.78 126.409L1458.05 126.578L1460 127.794V128.973L1457.79 127.594L1418.41 153.113L1458.21 177.981L1460 176.819V178.011L1459.14 178.566L1460 179.102V180.28L1458.22 179.167L1418.83 204.687L1458.63 229.555L1460 228.667V229.858L1459.57 230.14L1460 230.409V231.589L1458.64 230.74L1419.26 256.26L1459.06 281.128L1460 280.516V281.707L1459.99 281.713L1460 281.717V282.896L1459.07 282.313L1419.68 307.833L1459.48 332.701L1460 332.363V334.205L1459.49 333.887L1420.11 359.406L1459.9 384.273L1460 384.21V385.513L1459.91 385.459L1420.53 410.979L1460 435.643V437.251L1420.95 462.552L1460 486.949V489.099L1421.38 514.124L1460 538.257V539.437L1420.45 514.725L1381.07 540.244L1420.87 565.113L1460 539.754V540.946L1421.8 565.698L1460 589.566V590.801L1420.66 566.22L1381.28 591.739L1421.08 616.607L1460 591.387V592.578L1277.25 711H1275.41L1299.22 695.567L1259.42 670.699L1220.04 696.219L1243.7 711H1241.81L1219.11 696.819L1197.23 711H1195.39L1218.18 696.233L1178.38 671.365L1139 696.885L1161.59 711H1159.7L1138.07 697.485L1117.21 711H1115.38L1137.13 696.9L1097.34 672.032L1057.95 697.552L1079.48 711H1077.59L1057.03 698.152L1037.2 711H1035.36L1056.09 697.567L1016.29 672.698L976.911 698.218L997.366 711H995.479L975.984 698.818L957.185 711H955.346L975.048 698.233L935.252 673.365L896.315 698.596L916.167 711H913.369L895.281 699.697L877.838 711H875.999L894.345 699.112L854.548 674.244L815.612 699.474L834.059 711H832.172L814.686 700.073L797.823 711H795.983L813.749 699.488L773.951 674.62L734.567 700.14L751.948 711H750.061L733.642 700.74L717.808 711H715.969L732.705 700.155L692.907 675.286L653.524 700.806L669.839 711H667.951L652.599 701.406L637.792 711H635.953L651.662 700.821L611.865 675.953L572.481 701.473L587.729 711H585.84L571.555 702.073L557.778 711H555.665L570.223 701.567L530.425 676.699L491.042 702.219L505.095 711H503.206L490.114 702.819L477.489 711H475.648L489.178 702.233L449.381 677.365L409.997 702.885L422.984 711H421.098L409.071 703.485L397.474 711H395.635L408.135 702.9L368.338 678.032L328.954 703.552L340.874 711H338.986L328.028 704.152L317.46 711H315.621L327.092 703.567L287.294 678.698L247.911 704.218L258.765 711H256.877L246.984 704.818L237.444 711H235.605L246.048 704.233L206.251 679.366L166.868 704.886L176.653 711H174.768L2.86719 603.585L2.61035 603.752L2.34082 603.583L0 602.12V600.941L2.59961 602.566L41.9834 577.047L2.18555 552.179L0 553.595V552.401L1.24902 551.593L0 550.812V549.632L2.17578 550.992L41.5586 525.474L1.76172 500.605L0 501.746V500.555L0.825195 500.021L0 499.504V498.325L1.75195 499.42L41.1348 473.9L1.33789 449.032L0 449.898V448.707L0.401367 448.447L0 448.196V447.018L1.32812 447.848L40.7109 422.328L0.913086 397.459L0 398.05V395.709L0.90332 396.273L40.2861 370.755L0.490234 345.887L0 346.204V344.401L0.479492 344.701L39.8633 319.181L0.0664062 294.313L0 294.356V293.093L0.0556641 293.128L39.4385 267.608L0 242.964V241.314L39.0146 216.035L0 191.656V189.467L38.5908 164.462L0 140.348V139.114L39.7285 163.939L79.1123 138.42L39.3164 113.553L0 139.027V137.835L212.717 0H214.557L201.481 8.47266L241.278 33.3408L280.662 7.82129L268.146 0H270.032L281.588 7.2207L292.731 0H294.57L282.524 7.80566L322.322 32.6738L361.705 7.15527L350.255 0H352.142L362.631 6.55469L372.746 0H374.585L363.567 7.13965L403.365 32.0078L442.749 6.48828L432.366 0H434.253L443.675 5.8877L452.761 0H454.603L444.612 6.47363L484.409 31.3418L523.792 5.82227L514.475 0H516.449L524.931 5.2998L533.109 0H534.951L525.868 5.88574L565.664 30.7529L605.048 5.2334L596.673 0H598.561L605.975 4.63281L613.124 0H614.963L606.911 5.21777L646.709 30.0869L686.092 4.56738L678.783 0H680.671L687.019 3.9668L693.14 0H694.979L687.954 4.55176L727.752 29.4199L767.135 3.90039L760.894 0H762.778L768.061 3.30078L773.154 0H774.992L768.997 3.88477L808.795 28.7539L848.178 3.2334L843.004 0H844.892L849.104 2.63281L853.168 0H855.009L850.042 3.21875L889.47 27.8555L928.852 2.33691L925.112 0H927L929.778 1.73633L932.458 0H935.023L930.851 2.7041L970.278 27.3408L1009.66 1.82129L1006.75 0H1008.63L1010.59 1.2207L1012.47 0H1014.31L1011.52 1.80566L1051.32 26.6738L1090.71 1.15527L1088.86 0H1090.74L1091.63 0.554688L1092.49 0H1094.33L1092.57 1.13965L1132.37 26.0078L1171.75 0.488281L1170.97 0H1174.34L1173.61 0.473633L1213.41 25.3418L1252.52 0H1254.96L1457.53 126.575ZM126.134 679.432L165.931 704.3L205.314 678.78L165.518 653.912L126.134 679.432ZM207.178 678.766L246.975 703.633L286.357 678.113L246.562 653.246L207.178 678.766ZM288.221 678.099L328.019 702.967L367.401 677.447L327.604 652.579L288.221 678.099ZM369.264 677.432L409.062 702.3L448.444 676.78L408.647 651.912L369.264 677.432ZM450.308 676.765L490.104 701.633L529.488 676.113L489.69 651.245L450.308 676.765ZM531.351 676.099L571.148 700.967L610.532 675.447L570.734 650.579L531.351 676.099ZM612.791 675.354L652.588 700.221L691.972 674.701L652.174 649.834L612.791 675.354ZM693.833 674.687L733.631 699.555L773.015 674.035L733.218 649.167L693.833 674.687ZM774.878 674.02L814.675 698.888L853.61 673.658L813.813 648.791L774.878 674.02ZM855.582 673.142L895.379 698.01L934.314 672.78L894.518 647.912L855.582 673.142ZM936.178 672.766L975.975 697.633L1015.36 672.113L975.562 647.246L936.178 672.766ZM1017.22 672.099L1057.02 696.967L1096.4 671.447L1056.6 646.579L1017.22 672.099ZM1098.26 671.432L1138.06 696.3L1177.44 670.78L1137.65 645.912L1098.26 671.432ZM1179.31 670.765L1219.1 695.633L1258.49 670.113L1218.69 645.245L1179.31 670.765ZM1260.35 670.099L1300.15 694.967L1339.53 669.447L1299.73 644.579L1260.35 670.099ZM85.3994 653.979L125.197 678.847L164.581 653.327L124.783 628.459L85.3994 653.979ZM166.444 653.312L206.241 678.18L245.624 652.66L205.827 627.792L166.444 653.312ZM247.487 652.646L287.284 677.513L326.667 651.994L286.87 627.126L247.487 652.646ZM328.53 651.979L368.328 676.847L407.711 651.327L367.913 626.459L328.53 651.979ZM409.574 651.312L449.371 676.18L488.755 650.661L448.957 625.792L409.574 651.312ZM490.616 650.646L530.414 675.514L569.798 649.994L530 625.126L490.616 650.646ZM571.661 649.979L611.459 674.847L650.841 649.328L611.043 624.46L571.661 649.979ZM653.101 649.233L692.897 674.102L732.281 648.582L692.484 623.714L653.101 649.233ZM734.144 648.566L773.941 673.435L812.877 648.205L773.079 623.337L734.144 648.566ZM814.847 647.688L854.645 672.557L893.581 647.327L853.783 622.458L814.847 647.688ZM895.444 647.312L935.241 672.18L974.624 646.66L934.827 621.792L895.444 647.312ZM976.487 646.646L1016.28 671.513L1055.67 645.994L1015.87 621.126L976.487 646.646ZM1057.53 645.979L1097.33 670.847L1136.71 645.327L1096.91 620.459L1057.53 645.979ZM1138.57 645.312L1178.37 670.18L1217.75 644.661L1177.96 619.792L1138.57 645.312ZM1219.62 644.646L1259.41 669.514L1298.8 643.994L1259 619.126L1219.62 644.646ZM1300.66 643.979L1340.46 668.847L1379.84 643.328L1340.04 618.46L1300.66 643.979ZM44.666 628.525L84.4629 653.394L123.847 627.874L84.0488 603.005L44.666 628.525ZM125.709 627.858L165.507 652.727L204.891 627.207L165.093 602.339L125.709 627.858ZM206.754 627.192L246.551 652.061L285.934 626.541L246.137 601.673L206.754 627.192ZM287.797 626.525L327.594 651.394L366.977 625.874L327.181 601.006L287.797 626.525ZM368.84 625.858L408.638 650.727L448.021 625.208L408.223 600.339L368.84 625.858ZM449.883 625.192L489.681 650.061L529.064 624.541L489.267 599.673L449.883 625.192ZM530.927 624.525L570.725 649.394L610.106 623.874L570.31 599.006L530.927 624.525ZM611.97 623.859L651.769 648.728L691.151 623.208L651.354 598.34L611.97 623.859ZM693.41 623.113L733.208 647.981L772.144 622.752L732.346 597.884L693.41 623.113ZM774.113 622.235L813.911 647.104L852.847 621.873L813.05 597.005L774.113 622.235ZM854.709 621.858L894.507 646.727L933.891 621.207L894.093 596.339L854.709 621.858ZM935.754 621.192L975.551 646.061L1014.93 620.541L975.137 595.673L935.754 621.192ZM1016.8 620.525L1056.59 645.394L1095.98 619.874L1056.18 595.006L1016.8 620.525ZM1097.84 619.858L1137.64 644.727L1177.02 619.208L1137.22 594.339L1097.84 619.858ZM1178.88 619.192L1218.68 644.061L1258.06 618.541L1218.27 593.673L1178.88 619.192ZM1259.93 618.525L1299.72 643.394L1339.11 617.874L1299.31 593.006L1259.93 618.525ZM1340.97 617.859L1380.77 642.728L1420.15 617.208L1380.35 592.34L1340.97 617.859ZM3.93262 603.072L43.7295 627.94L83.1133 602.421L43.3164 577.553L3.93262 603.072ZM84.9756 602.405L124.773 627.273L164.156 601.754L124.359 576.886L84.9756 602.405ZM166.02 601.738L205.817 626.606L245.2 601.088L205.402 576.219L166.02 601.738ZM247.063 601.072L286.86 625.94L326.244 600.421L286.446 575.553L247.063 601.072ZM328.106 600.405L367.903 625.273L407.287 599.754L367.49 574.887L328.106 600.405ZM409.149 599.739L448.947 624.607L488.331 599.088L448.533 574.219L409.149 599.739ZM490.193 599.072L529.991 623.94L569.373 598.421L529.576 573.553L490.193 599.072ZM571.236 598.405L611.033 623.273L650.417 597.754L610.619 572.886L571.236 598.405ZM652.28 597.739L692.078 622.607L731.27 597.212L731.07 597.088L731.261 596.964L691.663 572.22L652.28 597.739ZM733.75 597.013L773.178 621.65L812.113 596.42L772.686 571.783L733.75 597.013ZM813.976 596.405L853.773 621.273L893.156 595.754L853.359 570.886L813.976 596.405ZM895.02 595.738L934.817 620.606L974.2 595.088L934.402 570.219L895.02 595.738ZM976.063 595.072L1015.86 619.94L1055.24 594.421L1015.45 569.553L976.063 595.072ZM1057.11 594.406L1096.9 619.273L1136.29 593.754L1096.49 568.887L1057.11 594.406ZM1138.15 593.739L1177.95 618.607L1217.33 593.088L1177.53 568.219L1138.15 593.739ZM1219.19 593.072L1258.99 617.94L1298.37 592.421L1258.58 567.553L1219.19 593.072ZM1300.24 592.405L1340.03 617.273L1379.42 591.754L1339.62 566.886L1300.24 592.405ZM44.2422 576.952L84.04 601.82L123.423 576.301L83.626 551.433L44.2422 576.952ZM125.285 576.285L165.083 601.153L204.466 575.634L164.668 550.766L125.285 576.285ZM206.329 575.618L246.127 600.487L285.51 574.968L245.712 550.1L206.329 575.618ZM287.373 574.952L327.17 599.82L366.554 574.301L326.756 549.433L287.373 574.952ZM368.416 574.286L408.213 599.154L447.597 573.634L407.8 548.767L368.416 574.286ZM449.459 573.619L489.258 598.487L528.64 572.968L488.842 548.1L449.459 573.619ZM530.502 572.952L570.3 597.821L609.684 572.301L569.886 547.433L530.502 572.952ZM611.546 572.286L651.344 597.154L690.727 571.635L650.929 546.767L611.546 572.286ZM692.803 571.698L732.23 596.335L771.613 570.815L732.186 546.179L692.803 571.698ZM773.611 571.183L813.04 595.82L852.423 570.301L812.995 545.663L773.611 571.183ZM854.285 570.285L894.083 595.153L933.466 569.634L893.668 544.766L854.285 570.285ZM935.329 569.618L975.127 594.487L1014.51 568.968L974.712 544.1L935.329 569.618ZM1016.37 568.952L1056.17 593.82L1095.55 568.301L1055.76 543.433L1016.37 568.952ZM1097.42 568.286L1137.21 593.154L1176.6 567.634L1136.8 542.767L1097.42 568.286ZM1178.46 567.619L1218.26 592.487L1257.64 566.968L1217.84 542.1L1178.46 567.619ZM1259.5 566.952L1299.3 591.821L1338.68 566.301L1298.89 541.433L1259.5 566.952ZM1340.55 566.286L1380.34 591.154L1419.73 565.635L1379.93 540.767L1340.55 566.286ZM3.1123 551.578L42.9102 576.446L82.293 550.927L42.4961 526.059L3.1123 551.578ZM84.5518 550.832L124.35 575.7L163.732 550.181L123.936 525.313L84.5518 550.832ZM165.596 550.165L205.393 575.033L244.776 549.514L204.979 524.646L165.596 550.165ZM246.639 549.499L286.437 574.367L325.819 548.848L286.021 523.979L246.639 549.499ZM327.683 548.833L367.479 573.701L406.863 548.181L367.066 523.313L327.683 548.833ZM408.727 548.166L448.523 573.034L487.906 547.515L448.109 522.646L408.727 548.166ZM489.769 547.499L529.566 572.368L568.95 546.848L529.152 521.979L489.769 547.499ZM570.812 546.833L610.61 571.701L649.992 546.182L610.195 521.313L570.812 546.833ZM652.068 546.244L691.866 571.113L731.249 545.593L691.451 520.725L652.068 546.244ZM733.112 545.578L772.541 570.215L811.924 544.696L772.496 520.059L733.112 545.578ZM813.922 545.063L853.35 569.7L892.732 544.181L853.305 519.544L813.922 545.063ZM894.596 544.165L934.393 569.033L973.776 543.514L933.979 518.646L894.596 544.165ZM975.639 543.499L1015.44 568.367L1054.82 542.848L1015.02 517.979L975.639 543.499ZM1056.68 542.833L1096.48 567.701L1135.86 542.181L1096.07 517.313L1056.68 542.833ZM1137.73 542.166L1177.52 567.034L1216.91 541.515L1177.11 516.647L1137.73 542.166ZM1218.77 541.499L1258.57 566.368L1297.95 540.848L1258.15 515.979L1218.77 541.499ZM1299.81 540.833L1339.61 565.701L1378.99 540.182L1339.2 515.313L1299.81 540.833ZM43.4219 525.458L83.2197 550.326L122.603 524.807L82.8057 499.938L43.4219 525.458ZM124.862 524.712L164.659 549.58L204.043 524.061L164.245 499.192L124.862 524.712ZM205.905 524.046L245.702 548.914L285.086 523.395L245.288 498.526L205.905 524.046ZM286.948 523.379L326.746 548.247L366.13 522.728L326.332 497.859L286.948 523.379ZM367.992 522.713L407.79 547.581L447.173 522.062L407.375 497.193L367.992 522.713ZM449.035 522.047L488.833 546.915L528.217 521.395L488.419 496.526L449.035 522.047ZM530.078 521.379L569.876 546.248L609.259 520.729L569.461 495.86L530.078 521.379ZM611.335 520.792L651.132 545.66L690.516 520.141L650.718 495.271L611.335 520.792ZM692.379 520.124L732.176 544.992L771.559 519.474L731.762 494.605L692.379 520.124ZM773.422 519.458L812.85 544.096L852.233 518.576L812.806 493.938L773.422 519.458ZM854.231 518.943L893.659 543.58L933.043 518.061L893.615 493.424L854.231 518.943ZM934.905 518.046L974.702 542.914L1014.09 517.395L974.288 492.526L934.905 518.046ZM1015.95 517.379L1055.75 542.247L1095.13 516.728L1055.33 491.859L1015.95 517.379ZM1096.99 516.713L1136.79 541.581L1176.17 516.062L1136.38 491.193L1096.99 516.713ZM1178.04 516.047L1217.83 540.915L1257.22 515.395L1217.42 490.527L1178.04 516.047ZM1259.08 515.379L1298.88 540.248L1338.26 514.729L1298.46 489.86L1259.08 515.379ZM1340.33 514.792L1380.13 539.66L1419.52 514.14L1379.72 489.271L1340.33 514.792ZM2.6875 500.005L42.4854 524.873L81.8691 499.354L42.0713 474.485L2.6875 500.005ZM83.7314 499.339L123.528 524.207L162.912 498.688L123.114 473.819L83.7314 499.339ZM165.172 498.593L204.969 523.461L244.353 497.941L204.555 473.073L165.172 498.593ZM246.214 497.926L286.012 522.794L325.396 497.274L285.599 472.406L246.214 497.926ZM327.258 497.26L367.056 522.128L406.438 496.608L366.642 471.74L327.258 497.26ZM408.302 496.594L448.099 521.462L487.482 495.941L447.686 471.073L408.302 496.594ZM489.346 495.927L529.143 520.795L568.525 495.275L528.729 470.407L489.346 495.927ZM570.601 495.338L610.398 520.207L649.782 494.688L609.984 469.818L570.601 495.338ZM651.645 494.671L691.442 519.54L730.825 494.021L691.028 469.152L651.645 494.671ZM732.688 494.005L772.485 518.873L811.869 493.354L772.071 468.485L732.688 494.005ZM813.731 493.339L853.159 517.976L892.542 492.456L853.114 467.819L813.731 493.339ZM894.541 492.823L933.969 517.461L973.353 491.941L933.924 467.304L894.541 492.823ZM975.214 491.926L1015.01 516.794L1054.4 491.274L1014.6 466.406L975.214 491.926ZM1056.26 491.26L1096.06 516.128L1135.44 490.608L1095.64 465.74L1056.26 491.26ZM1137.3 490.594L1177.1 515.462L1216.48 489.941L1176.69 465.073L1137.3 490.594ZM1218.35 489.927L1258.14 514.795L1297.53 489.275L1257.73 464.407L1218.35 489.927ZM1299.6 489.338L1339.4 514.207L1378.78 488.687L1338.98 463.818L1299.6 489.338ZM1380.64 488.671L1420.44 513.54L1459.83 488.021L1420.03 463.152L1380.64 488.671ZM42.9971 473.885L82.7949 498.753L122.178 473.233L82.3809 448.365L42.9971 473.885ZM124.042 473.219L163.839 498.087L203.222 472.568L163.424 447.699L124.042 473.219ZM205.481 472.473L245.278 497.341L284.662 471.821L244.865 446.953L205.481 472.473ZM286.524 471.806L326.322 496.674L365.705 471.155L325.907 446.286L286.524 471.806ZM367.567 471.14L407.365 496.008L446.749 470.488L406.951 445.62L367.567 471.14ZM448.612 470.474L488.409 495.342L527.792 469.822L487.995 444.954L448.612 470.474ZM529.868 469.886L569.664 494.753L609.048 469.233L569.251 444.366L529.868 469.886ZM610.911 469.218L650.709 494.087L690.092 468.567L650.294 443.698L610.911 469.218ZM691.954 468.552L731.752 493.42L771.135 467.9L731.338 443.032L691.954 468.552ZM772.997 467.885L812.795 492.753L852.178 467.233L812.381 442.365L772.997 467.885ZM854.042 467.219L893.47 491.855L932.852 466.337L893.424 441.699L854.042 467.219ZM934.851 466.704L974.278 491.341L1013.66 465.821L974.234 441.184L934.851 466.704ZM1015.52 465.806L1055.32 490.674L1094.71 465.155L1054.91 440.286L1015.52 465.806ZM1096.57 465.14L1136.37 490.008L1175.75 464.488L1135.95 439.62L1096.57 465.14ZM1177.61 464.474L1217.41 489.342L1256.79 463.822L1217 438.954L1177.61 464.474ZM1258.87 463.886L1298.66 488.753L1338.05 463.233L1298.25 438.365L1258.87 463.886ZM1339.91 463.218L1379.71 488.087L1419.09 462.567L1379.29 437.698L1339.91 463.218ZM2.26367 448.432L42.0615 473.3L81.4443 447.78L41.6475 422.912L2.26367 448.432ZM83.3076 447.765L123.104 472.633L162.487 447.114L122.689 422.246L83.3076 447.765ZM164.351 447.099L204.148 471.967L243.532 446.447L203.734 421.579L164.351 447.099ZM245.791 446.354L285.588 471.221L324.972 445.702L285.174 420.834L245.791 446.354ZM326.833 445.687L366.631 470.555L406.015 445.035L366.218 420.167L326.833 445.687ZM407.878 445.02L447.675 469.888L487.058 444.369L447.261 419.501L407.878 445.02ZM489.134 444.432L528.931 469.3L568.314 443.78L528.518 418.912L489.134 444.432ZM570.178 443.766L609.975 468.633L649.357 443.113L609.562 418.246L570.178 443.766ZM651.221 443.099L691.019 467.967L730.401 442.447L690.604 417.579L651.221 443.099ZM732.264 442.432L772.062 467.3L811.444 441.78L771.647 416.912L732.264 442.432ZM813.308 441.765L853.104 466.633L892.487 441.114L852.689 416.246L813.308 441.765ZM894.351 441.099L933.778 465.736L973.162 440.217L933.734 415.579L894.351 441.099ZM975.16 440.584L1014.59 465.221L1053.97 439.702L1014.54 415.064L975.16 440.584ZM1055.83 439.687L1095.63 464.555L1135.01 439.035L1095.22 414.167L1055.83 439.687ZM1136.88 439.02L1176.67 463.888L1216.06 438.369L1176.26 413.501L1136.88 439.02ZM1218.13 438.432L1257.93 463.3L1297.31 437.78L1257.52 412.912L1218.13 438.432ZM1299.18 437.766L1338.97 462.633L1378.36 437.113L1338.56 412.246L1299.18 437.766ZM1380.22 437.099L1420.02 461.967L1459.4 436.447L1419.6 411.579L1380.22 437.099ZM42.5742 422.312L82.3711 447.18L121.754 421.661L81.9561 396.793L42.5742 422.312ZM123.616 421.646L163.414 446.514L202.798 420.994L163 396.126L123.616 421.646ZM204.661 420.979L244.459 445.847L283.841 420.328L244.043 395.46L204.661 420.979ZM286.101 420.233L325.897 445.102L365.281 419.582L325.484 394.714L286.101 420.233ZM367.144 419.566L406.941 444.435L446.324 418.915L406.526 394.047L367.144 419.566ZM448.399 418.979L488.197 443.847L527.581 418.327L487.783 393.459L448.399 418.979ZM529.444 418.312L569.241 443.18L608.624 417.66L568.827 392.792L529.444 418.312ZM610.487 417.646L650.284 442.513L689.667 416.994L649.871 392.126L610.487 417.646ZM691.53 416.979L731.328 441.847L770.711 416.327L730.913 391.459L691.53 416.979ZM772.574 416.312L812.371 441.18L851.754 415.661L811.956 390.793L772.574 416.312ZM853.616 415.646L893.414 440.514L932.798 414.994L893 390.126L853.616 415.646ZM934.661 414.979L974.089 439.616L1013.47 414.097L974.043 389.46L934.661 414.979ZM1015.47 414.465L1054.9 439.102L1094.28 413.582L1054.85 388.944L1015.47 414.465ZM1096.14 413.566L1135.94 438.435L1175.32 412.915L1135.53 388.047L1096.14 413.566ZM1177.4 412.979L1217.2 437.847L1256.58 412.327L1216.78 387.458L1177.4 412.979ZM1258.44 412.312L1298.24 437.18L1337.62 411.66L1297.83 386.792L1258.44 412.312ZM1339.49 411.646L1379.28 436.513L1418.67 410.994L1378.87 386.126L1339.49 411.646ZM1.83984 396.858L41.6377 421.728L81.0205 396.208L41.2227 371.339L1.83984 396.858ZM82.8828 396.192L122.681 421.061L162.064 395.541L122.267 370.673L82.8828 396.192ZM163.927 395.525L203.725 420.394L243.106 394.874L203.31 370.006L163.927 395.525ZM244.971 394.859L284.769 419.728L324.151 394.208L284.354 369.34L244.971 394.859ZM365.61 368.752L365.58 368.732L326.41 394.113L366.208 418.981L405.591 393.462L365.823 368.613L365.61 368.752ZM407.666 393.525L447.463 418.394L486.847 392.874L447.049 368.005L407.666 393.525ZM488.709 392.858L528.507 417.727L567.891 392.207L528.093 367.339L488.709 392.858ZM569.754 392.192L609.551 417.061L648.934 391.541L609.137 366.673L569.754 392.192ZM650.797 391.525L690.594 416.394L729.977 390.874L690.181 366.006L650.797 391.525ZM731.84 390.858L771.638 415.727L811.021 390.208L771.223 365.339L731.84 390.858ZM812.883 390.192L852.681 415.061L892.064 389.541L852.267 364.673L812.883 390.192ZM893.927 389.525L933.725 414.394L973.106 388.874L933.31 364.006L893.927 389.525ZM974.97 388.859L1014.4 413.496L1053.78 387.977L1014.35 363.34L974.97 388.859ZM1055.78 388.345L1095.21 412.981L1134.59 387.462L1095.16 362.825L1055.78 388.345ZM1136.67 387.525L1176.46 412.394L1215.85 386.873L1176.05 362.005L1136.67 387.525ZM1217.71 386.858L1257.51 411.727L1296.89 386.207L1257.09 361.339L1217.71 386.858ZM1298.75 386.192L1338.55 411.061L1377.93 385.541L1338.14 360.673L1298.75 386.192ZM1379.8 385.525L1419.59 410.394L1458.98 384.874L1419.18 360.006L1379.8 385.525ZM42.1494 370.739L81.9473 395.607L121.331 370.088L81.5332 345.219L42.1494 370.739ZM123.193 370.072L162.991 394.94L202.373 369.421L162.576 344.553L123.193 370.072ZM204.236 369.405L244.033 394.273L283.417 368.754L243.619 343.886L204.236 369.405ZM285.28 368.739L325.078 393.607L364.461 368.089L324.663 343.22L285.28 368.739ZM366.933 368.072L406.729 392.94L446.113 367.421L406.316 342.553L366.933 368.072ZM447.976 367.405L487.773 392.273L527.156 366.754L487.359 341.886L447.976 367.405ZM529.02 366.738L568.817 391.606L608.2 366.088L568.402 341.219L529.02 366.738ZM610.063 366.072L649.86 390.94L689.244 365.421L649.446 340.553L610.063 366.072ZM691.107 365.406L730.903 390.273L770.286 364.755L730.49 339.887L691.107 365.406ZM772.149 364.739L811.947 389.607L851.331 364.088L811.533 339.219L772.149 364.739ZM853.193 364.072L892.991 388.94L932.373 363.421L892.576 338.553L853.193 364.072ZM934.236 363.405L974.033 388.273L1013.42 362.754L973.619 337.886L934.236 363.405ZM1015.28 362.739L1054.71 387.376L1093.64 362.147L1054.22 337.51L1015.28 362.739ZM1096.12 361.948L1096.32 362.073L1096.13 362.196L1135.73 386.94L1175.11 361.42L1135.32 336.552L1096.12 361.948ZM1176.98 361.405L1216.77 386.273L1256.16 360.754L1216.36 335.886L1176.98 361.405ZM1258.02 360.738L1297.82 385.606L1337.2 360.088L1297.4 335.219L1258.02 360.738ZM1339.06 360.072L1378.86 384.94L1418.24 359.421L1378.45 334.553L1339.06 360.072ZM1.41602 345.286L41.2129 370.154L80.5967 344.634L40.7998 319.767L1.41602 345.286ZM82.459 344.619L122.258 369.487L161.641 343.969L121.842 319.1L82.459 344.619ZM163.503 343.952L203.3 368.82L242.684 343.301L202.886 318.433L163.503 343.952ZM244.546 343.286L284.344 368.154L323.727 342.635L283.929 317.767L244.546 343.286ZM325.803 342.698L365.569 367.547L365.784 367.409L365.813 367.428L404.983 342.047L365.186 317.179L325.803 342.698ZM407.242 341.952L447.04 366.82L486.423 341.301L446.626 316.433L407.242 341.952ZM488.285 341.285L528.083 366.153L567.466 340.634L527.668 315.766L488.285 341.285ZM569.329 340.618L609.127 365.487L648.51 339.968L608.712 315.1L569.329 340.618ZM650.373 339.952L690.17 364.82L729.553 339.302L689.756 314.434L650.373 339.952ZM731.416 339.286L771.213 364.154L810.597 338.634L770.8 313.767L731.416 339.286ZM812.459 338.619L852.258 363.487L891.64 337.968L851.842 313.1L812.459 338.619ZM893.502 337.952L933.3 362.821L972.684 337.301L932.886 312.433L893.502 337.952ZM974.546 337.286L1014.34 362.154L1053.28 336.925L1013.48 312.057L974.546 337.286ZM1055.25 336.408L1095.05 361.276L1133.98 336.047L1094.19 311.179L1055.25 336.408ZM1136.24 335.952L1176.04 360.82L1215.42 335.301L1175.63 310.433L1136.24 335.952ZM1217.29 335.285L1257.08 360.153L1296.47 334.634L1256.67 309.766L1217.29 335.285ZM1298.33 334.618L1338.13 359.487L1377.51 333.968L1337.71 309.1L1298.33 334.618ZM1379.37 333.952L1419.17 358.82L1458.55 333.302L1418.76 308.434L1379.37 333.952ZM41.7266 319.166L81.5234 344.034L120.906 318.515L81.1094 293.647L41.7266 319.166ZM122.769 318.499L162.567 343.368L201.95 317.849L162.152 292.979L122.769 318.499ZM203.812 317.833L243.61 342.701L282.992 317.182L243.195 292.313L203.812 317.833ZM285.068 317.244L324.866 342.113L364.249 316.593L324.451 291.725L285.068 317.244ZM366.112 316.578L405.91 341.446L445.293 315.927L405.496 291.059L366.112 316.578ZM447.552 315.832L487.35 340.7L526.732 315.181L486.936 290.313L447.552 315.832ZM528.596 315.165L568.393 340.033L607.776 314.514L567.979 289.646L528.596 315.165ZM609.639 314.499L649.437 339.367L688.819 313.848L649.021 288.979L609.639 314.499ZM690.683 313.833L730.479 338.701L769.863 313.181L730.066 288.313L690.683 313.833ZM771.727 313.166L811.523 338.034L850.906 312.515L811.109 287.647L771.727 313.166ZM852.769 312.499L892.566 337.368L931.95 311.848L892.152 286.979L852.769 312.499ZM933.812 311.833L973.61 336.701L1012.54 311.472L972.748 286.604L933.812 311.833ZM1014.52 310.954L1054.31 335.822L1093.25 310.593L1053.45 285.725L1014.52 310.954ZM1095.11 310.578L1134.91 335.446L1174.29 309.927L1134.5 285.059L1095.11 310.578ZM1176.55 309.832L1216.35 334.7L1255.73 309.181L1215.94 284.313L1176.55 309.832ZM1257.6 309.165L1297.39 334.033L1336.78 308.514L1296.98 283.646L1257.6 309.165ZM1338.64 308.499L1378.44 333.367L1417.82 307.848L1378.02 282.979L1338.64 308.499ZM0.992188 293.713L40.79 318.581L80.1729 293.062L40.375 268.193L0.992188 293.713ZM82.0361 293.047L121.833 317.914L161.217 292.395L121.42 267.527L82.0361 293.047ZM163.078 292.379L202.877 317.248L242.26 291.729L202.461 266.86L163.078 292.379ZM244.335 291.792L284.132 316.66L323.516 291.141L283.718 266.271L244.335 291.792ZM325.379 291.124L365.176 315.992L404.559 290.474L364.762 265.605L325.379 291.124ZM406.422 290.458L446.22 315.326L485.603 289.807L445.806 264.938L406.422 290.458ZM487.862 289.712L527.659 314.58L567.043 289.061L527.245 264.192L487.862 289.712ZM568.905 289.046L608.702 313.914L648.085 288.395L608.288 263.526L568.905 289.046ZM649.948 288.379L689.746 313.247L729.13 287.728L689.332 262.859L649.948 288.379ZM730.992 287.713L770.79 312.581L810.173 287.062L770.375 262.193L730.992 287.713ZM812.036 287.047L851.833 311.915L891.217 286.395L851.42 261.527L812.036 287.047ZM893.078 286.379L932.876 311.248L971.812 286.019L932.014 261.149L893.078 286.379ZM973.782 285.501L1013.58 310.369L1052.52 285.14L1012.72 260.271L973.782 285.501ZM1054.38 285.124L1094.18 309.992L1133.56 284.474L1093.76 259.605L1054.38 285.124ZM1135.42 284.458L1175.22 309.326L1214.6 283.807L1174.81 258.938L1135.42 284.458ZM1216.86 283.712L1256.66 308.58L1296.04 283.061L1256.25 258.192L1216.86 283.712ZM1297.91 283.046L1337.7 307.914L1377.08 282.395L1337.29 257.526L1297.91 283.046ZM1378.95 282.379L1418.75 307.247L1458.13 281.728L1418.33 256.859L1378.95 282.379ZM41.3018 267.593L81.0996 292.461L120.482 266.941L80.6855 242.073L41.3018 267.593ZM122.346 266.927L162.143 291.795L201.525 266.275L161.729 241.407L122.346 266.927ZM203.601 266.338L243.398 291.207L282.782 265.688L242.984 240.818L203.601 266.338ZM284.645 265.671L324.442 290.54L363.825 265.021L324.028 240.152L284.645 265.671ZM365.688 265.005L405.485 289.873L444.869 264.354L405.071 239.485L365.688 265.005ZM446.731 264.339L486.528 289.207L525.912 263.688L486.114 238.819L446.731 264.339ZM528.172 263.593L567.969 288.461L607.352 262.941L567.555 238.073L528.172 263.593ZM609.214 262.926L649.012 287.794L688.396 262.274L648.599 237.406L609.214 262.926ZM690.258 262.26L730.056 287.128L769.438 261.608L729.642 236.74L690.258 262.26ZM771.302 261.594L811.099 286.462L850.482 260.941L810.686 236.073L771.302 261.594ZM852.346 260.927L892.143 285.795L931.078 260.565L891.281 235.697L852.346 260.927ZM933.049 260.048L972.847 284.917L1011.78 259.687L971.984 234.818L933.049 260.048ZM1013.64 259.671L1053.44 284.54L1092.83 259.021L1053.03 234.152L1013.64 259.671ZM1094.69 259.005L1134.49 283.873L1173.87 258.354L1134.07 233.485L1094.69 259.005ZM1175.73 258.339L1215.53 283.207L1254.91 257.688L1215.11 232.819L1175.73 258.339ZM1257.17 257.593L1296.97 282.461L1336.35 256.941L1296.55 232.073L1257.17 257.593ZM1338.21 256.926L1378.01 281.794L1417.4 256.274L1377.6 231.406L1338.21 256.926ZM0.567383 242.14L40.3652 267.008L79.749 241.488L39.9512 216.62L0.567383 242.14ZM81.6123 241.474L121.409 266.342L160.792 240.822L120.995 215.954L81.6123 241.474ZM162.868 240.886L202.664 265.753L242.048 240.233L202.251 215.366L162.868 240.886ZM243.911 240.218L283.709 265.087L323.092 239.567L283.294 214.698L243.911 240.218ZM324.954 239.552L364.752 264.42L404.135 238.9L364.338 214.032L324.954 239.552ZM405.997 238.885L445.795 263.754L485.178 238.233L445.381 213.365L405.997 238.885ZM487.042 238.219L526.839 263.087L566.222 237.568L526.424 212.699L487.042 238.219ZM568.481 237.473L608.278 262.341L647.662 236.821L607.865 211.953L568.481 237.473ZM649.524 236.806L689.322 261.674L728.705 236.155L688.907 211.286L649.524 236.806ZM730.567 236.14L770.365 261.008L809.749 235.488L769.951 210.62L730.567 236.14ZM811.612 235.474L851.409 260.342L890.345 235.112L850.548 210.244L811.612 235.474ZM892.315 234.596L932.112 259.463L971.048 234.233L931.252 209.365L892.315 234.596ZM972.911 234.218L1012.71 259.087L1052.09 233.567L1012.29 208.698L972.911 234.218ZM1053.95 233.552L1093.75 258.42L1133.13 232.9L1093.34 208.032L1053.95 233.552ZM1135 232.885L1174.79 257.754L1214.18 232.233L1174.38 207.365L1135 232.885ZM1216.04 232.219L1255.84 257.087L1295.22 231.568L1255.42 206.699L1216.04 232.219ZM1297.48 231.473L1337.28 256.341L1376.66 230.821L1336.87 205.953L1297.48 231.473ZM1378.52 230.806L1418.32 255.674L1457.71 230.155L1417.91 205.286L1378.52 230.806ZM40.8779 216.02L80.6748 240.888L120.058 215.369L80.2607 190.501L40.8779 216.02ZM122.134 215.432L161.931 240.3L201.314 214.78L161.518 189.912L122.134 215.432ZM203.178 214.766L242.975 239.633L282.357 214.113L242.562 189.246L203.178 214.766ZM284.221 214.099L324.019 238.967L363.401 213.447L323.604 188.579L284.221 214.099ZM365.264 213.433L405.061 238.301L444.444 212.78L404.647 187.912L365.264 213.433ZM446.308 212.765L486.104 237.633L525.487 212.114L485.689 187.246L446.308 212.765ZM527.351 212.099L567.148 236.967L606.532 211.447L566.734 186.579L527.351 212.099ZM608.791 211.354L648.588 236.221L687.972 210.702L648.174 185.834L608.791 211.354ZM689.833 210.687L729.631 235.555L769.015 210.035L729.218 185.167L689.833 210.687ZM770.878 210.02L810.675 234.888L849.61 209.658L809.813 184.791L770.878 210.02ZM851.582 209.142L891.379 234.01L930.314 208.78L890.518 183.912L851.582 209.142ZM932.178 208.766L971.975 233.633L1011.36 208.113L971.562 183.246L932.178 208.766ZM1013.22 208.099L1053.02 232.967L1092.4 207.447L1052.6 182.579L1013.22 208.099ZM1094.26 207.433L1134.06 232.301L1173.44 206.78L1133.65 181.912L1094.26 207.433ZM1175.31 206.765L1215.1 231.633L1254.49 206.114L1214.69 181.246L1175.31 206.765ZM1256.35 206.099L1296.15 230.967L1335.53 205.447L1295.73 180.579L1256.35 206.099ZM1337.79 205.354L1377.59 230.221L1416.97 204.702L1377.17 179.834L1337.79 205.354ZM0.143555 190.566L39.9414 215.435L79.3242 189.915L39.5264 165.047L0.143555 190.566ZM81.3994 189.979L121.197 214.847L160.581 189.327L120.783 164.459L81.3994 189.979ZM162.444 189.312L202.241 214.18L241.624 188.66L201.827 163.792L162.444 189.312ZM243.487 188.646L283.284 213.513L322.667 187.994L282.87 163.126L243.487 188.646ZM324.529 187.979L364.327 212.848L403.711 187.327L363.913 162.459L324.529 187.979ZM405.574 187.312L445.371 212.18L484.754 186.661L444.956 161.793L405.574 187.312ZM486.616 186.646L526.414 211.514L565.798 185.994L526 161.126L486.616 186.646ZM567.661 185.979L607.459 210.847L646.841 185.328L607.043 160.46L567.661 185.979ZM649.101 185.233L688.897 210.102L728.281 184.582L688.484 159.714L649.101 185.233ZM730.144 184.566L769.941 209.435L808.877 184.205L769.079 159.337L730.144 184.566ZM810.847 183.688L850.645 208.557L889.581 183.327L849.783 158.458L810.847 183.688ZM891.444 183.312L931.241 208.18L970.624 182.66L930.827 157.792L891.444 183.312ZM972.487 182.646L1012.28 207.513L1051.67 181.994L1011.87 157.126L972.487 182.646ZM1053.53 181.979L1093.33 206.848L1132.71 181.327L1092.91 156.459L1053.53 181.979ZM1134.57 181.312L1174.37 206.18L1213.75 180.661L1173.96 155.793L1134.57 181.312ZM1215.62 180.646L1255.41 205.514L1294.8 179.994L1255 155.126L1215.62 180.646ZM1296.66 179.979L1336.46 204.847L1375.84 179.328L1336.04 154.46L1296.66 179.979ZM1378.1 179.233L1417.9 204.102L1457.28 178.582L1417.48 153.714L1378.1 179.233ZM40.666 164.525L80.4629 189.394L119.847 163.874L80.0488 139.005L40.666 164.525ZM121.709 163.858L161.507 188.727L200.891 163.207L161.093 138.339L121.709 163.858ZM202.754 163.192L242.551 188.061L281.934 162.541L242.137 137.673L202.754 163.192ZM283.797 162.526L323.593 187.394L362.977 161.874L323.181 137.006L283.797 162.526ZM364.84 161.858L404.638 186.727L444.021 161.208L404.223 136.339L364.84 161.858ZM445.883 161.192L485.681 186.061L525.064 160.541L485.267 135.673L445.883 161.192ZM526.927 160.525L566.725 185.394L606.106 159.874L566.31 135.006L526.927 160.525ZM607.97 159.859L647.769 184.728L687.151 159.208L647.354 134.34L607.97 159.859ZM689.41 159.113L729.208 183.981L768.144 158.752L728.346 133.884L689.41 159.113ZM770.113 158.235L809.911 183.104L848.847 157.873L809.05 133.005L770.113 158.235ZM850.709 157.858L890.507 182.727L929.891 157.207L890.093 132.339L850.709 157.858ZM931.754 157.192L971.551 182.061L1010.93 156.541L971.137 131.673L931.754 157.192ZM1012.8 156.526L1052.59 181.394L1091.98 155.874L1052.18 131.006L1012.8 156.526ZM1093.84 155.858L1133.64 180.727L1173.02 155.208L1133.22 130.339L1093.84 155.858ZM1174.88 155.192L1214.68 180.061L1254.06 154.541L1214.27 129.673L1174.88 155.192ZM1255.93 154.525L1295.72 179.394L1335.11 153.874L1295.31 129.006L1255.93 154.525ZM1336.97 153.859L1376.77 178.728L1416.15 153.208L1376.35 128.34L1336.97 153.859ZM80.9756 138.405L120.773 163.273L160.156 137.754L120.359 112.886L80.9756 138.405ZM162.02 137.738L201.817 162.606L241.2 137.088L201.402 112.219L162.02 137.738ZM243.062 137.072L282.86 161.94L322.244 136.421L282.446 111.553L243.062 137.072ZM324.106 136.405L363.903 161.273L403.286 135.755L363.489 110.887L324.106 136.405ZM405.149 135.739L444.947 160.607L484.331 135.088L444.533 110.219L405.149 135.739ZM486.193 135.072L525.991 159.94L565.373 134.421L525.576 109.553L486.193 135.072ZM567.236 134.405L607.033 159.273L646.417 133.754L606.619 108.886L567.236 134.405ZM648.28 133.739L688.078 158.607L727.27 133.212L727.07 133.088L727.261 132.964L687.663 108.22L648.28 133.739ZM729.75 133.013L769.177 157.649L808.113 132.42L768.686 107.783L729.75 133.013ZM809.976 132.405L849.773 157.273L889.156 131.754L849.359 106.886L809.976 132.405ZM891.02 131.738L930.817 156.606L970.2 131.088L930.402 106.219L891.02 131.738ZM972.062 131.072L1011.86 155.94L1051.24 130.421L1011.45 105.553L972.062 131.072ZM1053.11 130.406L1092.9 155.273L1132.29 129.755L1092.49 104.887L1053.11 130.406ZM1134.15 129.739L1173.95 154.607L1213.33 129.088L1173.53 104.219L1134.15 129.739ZM1215.19 129.072L1254.99 153.94L1294.37 128.421L1254.58 103.553L1215.19 129.072ZM1296.24 128.405L1336.03 153.273L1375.42 127.754L1335.62 102.886L1296.24 128.405ZM1377.28 127.739L1417.08 152.607L1456.46 127.089L1416.66 102.22L1377.28 127.739ZM40.2422 112.952L80.0391 137.82L119.423 112.3L79.626 87.4326L40.2422 112.952ZM121.285 112.285L161.083 137.153L200.466 111.634L160.668 86.7656L121.285 112.285ZM202.328 111.619L242.126 136.487L281.51 110.968L241.712 86.0996L202.328 111.619ZM283.373 110.952L323.17 135.82L362.553 110.302L322.756 85.4336L283.373 110.952ZM364.416 110.286L404.213 135.154L443.597 109.634L403.8 84.7666L364.416 110.286ZM445.459 109.619L485.258 134.487L524.64 108.968L484.842 84.0996L445.459 109.619ZM526.502 108.952L566.3 133.821L605.684 108.301L565.886 83.4326L526.502 108.952ZM607.546 108.286L647.344 133.154L686.727 107.635L646.929 82.7666L607.546 108.286ZM688.803 107.698L728.23 132.335L767.613 106.815L728.186 82.1787L688.803 107.698ZM769.611 107.183L809.039 131.82L848.423 106.3L808.995 81.6631L769.611 107.183ZM850.285 106.285L890.083 131.153L929.466 105.634L889.668 80.7656L850.285 106.285ZM931.328 105.619L971.126 130.487L1010.51 104.968L970.712 80.0996L931.328 105.619ZM1012.37 104.952L1052.17 129.82L1091.55 104.302L1051.76 79.4336L1012.37 104.952ZM1093.42 104.286L1133.21 129.154L1172.6 103.634L1132.8 78.7666L1093.42 104.286ZM1174.46 103.619L1214.26 128.487L1253.64 102.968L1213.84 78.0996L1174.46 103.619ZM1255.5 102.952L1295.3 127.821L1334.68 102.301L1294.89 77.4326L1255.5 102.952ZM1336.55 102.286L1376.34 127.154L1415.73 101.635L1375.93 76.7666L1336.55 102.286ZM80.5518 86.832L120.349 111.7L159.731 86.1807L119.936 61.3135L80.5518 86.832ZM161.595 86.166L201.392 111.034L240.776 85.5137L200.979 60.6455L161.595 86.166ZM242.639 85.499L282.437 110.367L321.819 84.8477L282.021 59.9795L242.639 85.499ZM323.683 84.833L363.479 109.701L402.863 84.1807L363.066 59.3135L323.683 84.833ZM404.727 84.166L444.523 109.034L483.906 83.5146L444.109 58.6465L404.727 84.166ZM485.769 83.499L525.566 108.368L564.95 82.8477L525.152 57.9795L485.769 83.499ZM566.812 82.833L606.61 107.701L645.992 82.1816L606.195 57.3135L566.812 82.833ZM648.068 82.2441L687.866 107.113L727.249 81.5928L687.451 56.7246L648.068 82.2441ZM729.112 81.5781L768.541 106.215L807.924 80.6963L768.496 56.0586L729.112 81.5781ZM809.922 81.0635L849.349 105.7L888.731 80.1807L849.305 55.5439L809.922 81.0635ZM890.595 80.166L930.392 105.034L969.776 79.5137L929.979 54.6455L890.595 80.166ZM971.639 79.499L1011.44 104.367L1050.82 78.8477L1011.02 53.9795L971.639 79.499ZM1052.68 78.833L1092.48 103.701L1131.86 78.1807L1092.07 53.3135L1052.68 78.833ZM1133.73 78.166L1173.52 103.034L1212.91 77.5146L1173.11 52.6475L1133.73 78.166ZM1214.77 77.499L1254.57 102.368L1293.95 76.8477L1254.15 51.9795L1214.77 77.499ZM1295.81 76.833L1335.61 101.701L1374.99 76.1816L1335.2 51.3135L1295.81 76.833ZM120.861 60.7129L160.658 85.5811L200.042 60.0605L160.245 35.1924L120.861 60.7129ZM201.905 60.0459L241.702 84.9141L281.085 59.3945L241.288 34.5264L201.905 60.0459ZM282.948 59.3789L322.746 84.2471L362.13 58.7275L322.332 33.8594L282.948 59.3789ZM363.992 58.7129L403.79 83.5811L443.173 58.0615L403.375 33.1934L363.992 58.7129ZM445.035 58.0469L484.833 82.915L524.217 57.3945L484.419 32.5264L445.035 58.0469ZM526.078 57.3789L565.876 82.248L605.259 56.7285L565.461 31.8604L526.078 57.3789ZM607.335 56.792L647.132 81.6602L686.516 56.1406L646.718 31.2715L607.335 56.792ZM688.379 56.124L728.176 80.9922L767.559 55.4736L727.762 30.6055L688.379 56.124ZM769.422 55.458L808.85 80.0957L848.233 54.5762L808.806 29.9385L769.422 55.458ZM850.23 54.9434L889.658 79.5811L929.042 54.0605L889.615 29.4238L850.23 54.9434ZM930.905 54.0459L970.702 78.9141L1010.08 53.3945L970.288 28.5264L930.905 54.0459ZM1011.95 53.3789L1051.75 78.2471L1091.13 52.7275L1051.33 27.8594L1011.95 53.3789ZM1092.99 52.7129L1132.79 77.5811L1172.17 52.0615L1132.38 27.1934L1092.99 52.7129ZM1174.04 52.0469L1213.83 76.915L1253.22 51.3945L1213.42 26.5273L1174.04 52.0469ZM1255.08 51.3789L1294.88 76.248L1334.26 50.7285L1294.46 25.8604L1255.08 51.3789ZM161.172 34.5928L200.969 59.46L240.352 33.9414L200.555 9.07324L161.172 34.5928ZM242.214 33.9258L282.012 58.7939L321.396 33.2744L281.599 8.40625L242.214 33.9258ZM323.258 33.2598L363.056 58.1279L402.438 32.6084L362.642 7.74023L323.258 33.2598ZM404.302 32.5938L444.099 57.4619L483.482 31.9414L443.686 7.07324L404.302 32.5938ZM485.346 31.9268L525.143 56.7949L564.525 31.2754L524.729 6.40723L485.346 31.9268ZM566.601 31.3379L606.398 56.207L645.782 30.6875L605.984 5.81836L566.601 31.3379ZM647.645 30.6709L687.442 55.54L726.825 30.0205L687.028 5.15234L647.645 30.6709ZM728.688 30.0049L768.485 54.873L807.869 29.3535L768.071 4.48535L728.688 30.0049ZM809.731 29.3389L849.159 53.9756L888.542 28.4561L849.114 3.81934L809.731 29.3389ZM890.541 28.8232L929.969 53.46L969.352 27.9414L929.924 3.30371L890.541 28.8232ZM971.214 27.9258L1011.01 52.7939L1050.4 27.2744L1010.6 2.40625L971.214 27.9258ZM1052.26 27.2598L1092.06 52.1279L1131.44 26.6084L1091.64 1.74023L1052.26 27.2598ZM1133.3 26.5938L1173.1 51.4619L1212.48 25.9414L1172.69 1.07324L1133.3 26.5938ZM1214.35 25.9268L1254.14 50.7949L1293.53 25.2754L1253.73 0.407227L1214.35 25.9268Z" fill="#C3BDBD" fill-opacity="0.2"/>
</svg>
