<svg width="106" height="204" viewBox="0 0 106 204" fill="none" xmlns="http://www.w3.org/2000/svg">
<mask id="path-1-inside-1_530_1563" fill="white">
<path fill-rule="evenodd" clip-rule="evenodd" d="M106 0.00214364V162.569L105.618 162.044L84.3408 191.303C84.3352 191.311 84.3296 191.319 84.324 191.327C84.3159 191.338 84.3076 191.35 84.2991 191.362L84.2783 191.392C84.2647 191.411 84.2501 191.43 84.2356 191.449C84.2202 191.468 84.2039 191.486 84.1867 191.503C78.1737 199.648 68.8305 203.982 59.3632 203.982C53.0725 203.982 46.7356 202.069 41.2773 198.105C27.5549 188.141 24.4712 168.861 34.3854 155.103C34.3931 155.088 34.4045 155.073 34.4162 155.057C34.4277 155.042 34.4392 155.026 34.4469 155.011L55.6782 125.736L21.2951 114.538L21.2693 114.529L21.2126 114.507C21.1999 114.502 21.1865 114.497 21.1717 114.492C5.0903 109.186 -3.72921 91.8036 1.51313 75.6704C6.75539 59.5362 24.1166 50.6522 40.2597 55.8346C40.277 55.8432 40.2992 55.8519 40.3209 55.8577C40.3376 55.8624 40.3542 55.8654 40.3678 55.8654L74.7664 67.0171L74.7972 30.8479C74.8127 13.8352 88.6429 0 105.634 0C105.756 0 105.878 0.000715871 106 0.00214364Z"/>
</mask>
<path fill-rule="evenodd" clip-rule="evenodd" d="M106 0.00214364V162.569L105.618 162.044L84.3408 191.303C84.3352 191.311 84.3296 191.319 84.324 191.327C84.3159 191.338 84.3076 191.35 84.2991 191.362L84.2783 191.392C84.2647 191.411 84.2501 191.43 84.2356 191.449C84.2202 191.468 84.2039 191.486 84.1867 191.503C78.1737 199.648 68.8305 203.982 59.3632 203.982C53.0725 203.982 46.7356 202.069 41.2773 198.105C27.5549 188.141 24.4712 168.861 34.3854 155.103C34.3931 155.088 34.4045 155.073 34.4162 155.057C34.4277 155.042 34.4392 155.026 34.4469 155.011L55.6782 125.736L21.2951 114.538L21.2693 114.529L21.2126 114.507C21.1999 114.502 21.1865 114.497 21.1717 114.492C5.0903 109.186 -3.72921 91.8036 1.51313 75.6704C6.75539 59.5362 24.1166 50.6522 40.2597 55.8346C40.277 55.8432 40.2992 55.8519 40.3209 55.8577C40.3376 55.8624 40.3542 55.8654 40.3678 55.8654L74.7664 67.0171L74.7972 30.8479C74.8127 13.8352 88.6429 0 105.634 0C105.756 0 105.878 0.000715871 106 0.00214364Z" fill="#2F80ED"/>
<path d="M106 0.00214364H107V-0.986211L106.012 -0.997788L106 0.00214364ZM106 162.569L105.191 163.157L107 165.644V162.569H106ZM105.618 162.044L106.427 161.456L105.618 160.344L104.81 161.456L105.618 162.044ZM84.3408 191.303L83.532 190.715L83.5268 190.722L84.3408 191.303ZM84.324 191.327L85.143 191.901L85.1431 191.9L84.324 191.327ZM84.2991 191.362L83.4904 190.774L83.4845 190.782L83.4788 190.79L84.2991 191.362ZM84.2783 191.392L85.0922 191.973L85.0986 191.964L84.2783 191.392ZM84.2356 191.449L85.013 192.078L85.0221 192.067L85.0309 192.055L84.2356 191.449ZM84.1867 191.503L83.4796 190.796L83.4266 190.849L83.3822 190.909L84.1867 191.503ZM41.2773 198.105L41.865 197.296L41.8649 197.296L41.2773 198.105ZM34.3854 155.103L35.1967 155.688L35.2437 155.623L35.2797 155.551L34.3854 155.103ZM34.4162 155.057L35.2128 155.662L35.2174 155.656L34.4162 155.057ZM34.4469 155.011L33.6374 154.424L33.5892 154.49L33.5524 154.564L34.4469 155.011ZM55.6782 125.736L56.4877 126.323L57.2945 125.21L55.9878 124.785L55.6782 125.736ZM21.2951 114.538L20.9641 115.482L20.9748 115.486L20.9855 115.489L21.2951 114.538ZM21.2693 114.529L20.9108 115.463L20.9245 115.468L20.9383 115.473L21.2693 114.529ZM21.2126 114.507L20.8211 115.428L20.8375 115.435L20.8542 115.441L21.2126 114.507ZM21.1717 114.492L20.8583 115.442L20.8692 115.445L20.8801 115.449L21.1717 114.492ZM1.51313 75.6704L2.46418 75.9794L2.46419 75.9794L1.51313 75.6704ZM40.2597 55.8346L40.7051 54.9393L40.6374 54.9056L40.5654 54.8824L40.2597 55.8346ZM40.3209 55.8577L40.5929 54.8953L40.5796 54.8917L40.3209 55.8577ZM40.3678 55.8654L40.6762 54.9142L40.5258 54.8654H40.3678V55.8654ZM74.7664 67.0171L74.458 67.9684L75.7652 68.3922L75.7664 67.018L74.7664 67.0171ZM74.7972 30.8479L73.7972 30.847L73.7972 30.847L74.7972 30.8479ZM105 0.00214364V162.569H107V0.00214364H105ZM104.81 162.632L105.191 163.157L106.809 161.98L106.427 161.456L104.81 162.632ZM85.1496 191.891L106.427 162.632L104.81 161.456L83.5321 190.715L85.1496 191.891ZM85.1431 191.9C85.149 191.892 85.1522 191.887 85.1549 191.884L83.5268 190.722C83.5183 190.734 83.5102 190.745 83.5049 190.753L85.1431 191.9ZM85.1078 191.95C85.1224 191.93 85.1356 191.911 85.143 191.901L83.505 190.753C83.4961 190.766 83.4929 190.77 83.4904 190.774L85.1078 191.95ZM85.0986 191.964L85.1194 191.934L83.4788 190.79L83.4579 190.82L85.0986 191.964ZM85.0309 192.055C85.0438 192.038 85.0679 192.007 85.0921 191.973L83.4644 190.811C83.4614 190.815 83.4565 190.821 83.4403 190.843L85.0309 192.055ZM84.8938 192.21C84.9357 192.168 84.9755 192.124 85.013 192.078L83.4583 190.82C83.465 190.812 83.4721 190.804 83.4796 190.796L84.8938 192.21ZM59.3632 204.982C69.1326 204.982 78.7807 200.509 84.9912 192.097L83.3822 190.909C77.5666 198.787 68.5284 202.982 59.3632 202.982V204.982ZM40.6897 198.914C46.3247 203.006 52.8689 204.982 59.3632 204.982V202.982C53.2762 202.982 47.1464 201.131 41.865 197.296L40.6897 198.914ZM33.5741 154.519C23.3382 168.723 26.5211 188.627 40.6898 198.914L41.8649 197.296C28.5888 187.656 25.6042 168.999 35.1967 155.688L33.5741 154.519ZM33.6197 154.453C33.6143 154.46 33.5465 154.545 33.4911 154.656L35.2797 155.551C35.2563 155.598 35.2343 155.631 35.2245 155.645C35.2149 155.659 35.2078 155.668 35.2128 155.662L33.6197 154.453ZM33.5524 154.564C33.5761 154.516 33.5982 154.483 33.6071 154.47C33.6156 154.458 33.6223 154.449 33.6151 154.459L35.2174 155.656C35.2175 155.655 35.2865 155.568 35.3413 155.458L33.5524 154.564ZM54.8687 125.148L33.6374 154.424L35.2564 155.598L56.4877 126.323L54.8687 125.148ZM20.9855 115.489L55.3685 126.686L55.9878 124.785L21.6048 113.587L20.9855 115.489ZM20.9383 115.473L20.9641 115.482L21.6261 113.595L21.6003 113.586L20.9383 115.473ZM20.8542 115.441L20.9108 115.463L21.6278 113.596L21.5711 113.574L20.8542 115.441ZM20.8801 115.449C20.8425 115.437 20.8163 115.426 20.8211 115.428L21.6042 113.587C21.5834 113.578 21.5305 113.556 21.4632 113.535L20.8801 115.449ZM0.562083 75.3613C-4.8504 92.0182 4.25421 109.963 20.8583 115.442L21.485 113.542C5.92639 108.409 -2.60802 91.589 2.46418 75.9794L0.562083 75.3613ZM40.5654 54.8824C23.8975 49.5316 5.97451 58.7034 0.562076 75.3613L2.46419 75.9794C7.53626 60.369 24.3356 51.7728 39.954 56.7867L40.5654 54.8824ZM40.5796 54.8917C40.6058 54.8988 40.6276 54.9062 40.6452 54.9129C40.6627 54.9196 40.6827 54.9281 40.7051 54.9393L39.8143 56.7299C39.8878 56.7665 39.9724 56.7996 40.0622 56.8237L40.5796 54.8917ZM40.3678 54.8654C40.4306 54.8654 40.4805 54.872 40.5117 54.8772C40.5448 54.8828 40.572 54.8895 40.5928 54.8954L40.049 56.82C40.1122 56.8379 40.227 56.8654 40.3678 56.8654V54.8654ZM75.0748 66.0659L40.6762 54.9142L40.0594 56.8167L74.458 67.9684L75.0748 66.0659ZM73.7972 30.847L73.7664 67.0163L75.7664 67.018L75.7972 30.8487L73.7972 30.847ZM105.634 -1C88.0898 -1 73.8132 13.2835 73.7972 30.847L75.7972 30.8488C75.8122 14.3868 89.1961 1 105.634 1V-1ZM106.012 -0.997788C105.886 -0.999261 105.76 -1 105.634 -1V1C105.752 1 105.87 1.00069 105.988 1.00208L106.012 -0.997788Z" fill="black" mask="url(#path-1-inside-1_530_1563)"/>
</svg>
