<svg width="228" height="456" viewBox="0 0 228 456" fill="none" xmlns="http://www.w3.org/2000/svg">
<path fill-rule="evenodd" clip-rule="evenodd" d="M0 0.450198L227.039 227.489L227.393 227.843L227.039 228.196L0 455.235L0 453.821L13.8463 439.975L0 426.128L0 424.714L14.5534 439.268L84.5569 369.264L14.5534 299.26L0 313.814V312.4L13.8463 298.553L0 284.707L0 283.293L14.5534 297.846L84.557 227.843L14.5534 157.839L0 172.393V170.978L13.8463 157.132L0 143.286L0 141.872L14.5534 156.425L84.557 86.4214L14.5534 16.4178L0 30.9712V29.557L13.8463 15.7107L0 1.8644L0 0.450198ZM15.2605 157.132L85.2641 87.1285L155.268 157.132L85.2641 227.136L15.2605 157.132ZM85.9712 227.843L155.975 157.839L225.978 227.843L155.975 297.846L85.9712 227.843ZM85.2641 228.55L155.268 298.553L85.2641 368.557L15.2605 298.553L85.2641 228.55Z" fill="white"/>
</svg>
