<svg width="1440" height="637" viewBox="0 0 1440 637" fill="none" xmlns="http://www.w3.org/2000/svg">
<path d="M0 222V524.4" stroke="white"/>
<path d="M75.6 222V524.4" stroke="white"/>
<path d="M151.2 222V524.4" stroke="white"/>
<path d="M226.8 222V524.4" stroke="white"/>
<path d="M302.4 222V524.4" stroke="white"/>
<path d="M378 222V524.4" stroke="white"/>
<path d="M453.6 222V524.4" stroke="white"/>
<path d="M529.2 222V524.4" stroke="white"/>
<path d="M604.8 222V524.4" stroke="white"/>
<path d="M680.4 222V524.4" stroke="white"/>
<path d="M756 222V524.4" stroke="white"/>
<path d="M831.6 222V524.4" stroke="white"/>
<path d="M907.2 222V524.4" stroke="white"/>
<path d="M982.8 222V524.4" stroke="white"/>
<path d="M1058.4 222V524.4" stroke="white"/>
<path d="M1134 222V524.4" stroke="white"/>
<path d="M1213.2 222V524.4" stroke="white"/>
<path d="M1288.8 222V524.4" stroke="white"/>
<path d="M1364.4 222V524.4" stroke="white"/>
<path d="M1440 222V524.4" stroke="white"/>
<path d="M0 222H1440" stroke="white"/>
<path d="M0 297.789H1440" stroke="white"/>
<path d="M0 373.579H1440" stroke="white"/>
<path d="M0 449.369H1440" stroke="white"/>
<path d="M0 525.158H1440" stroke="white"/>
<path d="M-50.6942 525.433L-49.945 525L-50.6942 524.567L-96.317 498.205L-62.8713 440.295L-17.2217 466.611L-16.4724 467.043L-16.472 466.178L-16.4462 413.5H50.4462L50.472 466.178L50.4724 467.043L51.2217 466.611L96.8709 440.295L130.317 498.205L84.6938 524.567L83.9446 525L84.6938 525.433L130.317 551.795L96.8709 609.705L51.2217 583.389L50.4724 582.957L50.472 583.822L50.4462 636.5H-16.4462L-16.472 583.822L-16.4724 582.957L-17.2217 583.389L-62.8713 609.705L-96.317 551.795L-50.6942 525.433Z" fill="#F14E3A" stroke="black"/>
<path d="M407.303 108.689L407.8 108.736L407.303 108.689C406.749 114.456 404.856 120.173 401.521 125.378C390.226 143.006 366.657 148.071 348.878 136.679C331.098 125.286 325.851 101.758 337.147 84.1298C340.652 78.6597 345.337 74.4005 350.664 71.4665C358.254 67.2861 364.148 58.3167 364.977 49.6925C365.531 43.9251 367.424 38.2077 370.759 33.0028C382.055 15.3741 405.623 10.3094 423.402 21.7017C441.182 33.0943 446.429 56.6223 435.133 74.251C431.628 79.721 426.943 83.9803 421.616 86.9142C414.026 91.0947 408.132 100.064 407.303 108.689Z" fill="#219653" stroke="black"/>
<path d="M992.5 385.68V352.5H1036.65C1063.83 352.5 1085.95 374.467 1085.95 401.5C1085.95 428.533 1063.83 450.5 1036.65 450.5H992.5V417.32H1036.65C1045.45 417.32 1052.59 410.209 1052.59 401.5C1052.59 392.79 1045.45 385.68 1036.65 385.68H992.5Z" fill="#9B51E0" stroke="black"/>
<g filter="url(#filter0_d_439_3642)">
<path d="M1327.19 458.612C1327.44 456.463 1330.56 456.463 1330.81 458.612L1332.95 476.643C1335.72 499.926 1354.07 518.283 1377.36 521.046L1395.39 523.185C1397.54 523.441 1397.54 526.559 1395.39 526.815L1377.36 528.954C1354.07 531.717 1335.72 550.074 1332.95 573.357L1330.81 591.388C1330.56 593.537 1327.44 593.537 1327.19 591.388L1325.05 573.357C1322.28 550.074 1303.93 531.717 1280.64 528.954L1262.61 526.815C1260.46 526.559 1260.46 523.441 1262.61 523.185L1280.64 521.046C1303.93 518.283 1322.28 499.926 1325.05 476.643L1327.19 458.612Z" fill="#F2994A"/>
<path d="M1327.68 458.671C1327.68 458.671 1327.68 458.671 1327.68 458.671C1327.87 457.11 1330.13 457.11 1330.32 458.671C1330.32 458.671 1330.32 458.671 1330.32 458.671L1332.46 476.702C1335.25 500.215 1353.79 518.753 1377.3 521.542L1395.33 523.682C1396.89 523.867 1396.89 526.133 1395.33 526.318L1377.3 528.458C1353.79 531.247 1335.25 549.785 1332.46 573.298L1330.32 591.329C1330.13 592.89 1327.87 592.89 1327.68 591.329L1325.54 573.298C1322.75 549.785 1304.21 531.247 1280.7 528.458L1262.67 526.318C1262.67 526.318 1262.67 526.318 1262.67 526.318C1261.11 526.133 1261.11 523.867 1262.67 523.682C1262.67 523.682 1262.67 523.682 1262.67 523.682L1280.7 521.542C1304.21 518.753 1322.75 500.215 1325.54 476.702L1327.68 458.671Z" stroke="#031926" stroke-linejoin="round"/>
</g>
<defs>
<filter id="filter0_d_439_3642" x="1260.9" y="457" width="136.1" height="136.3" filterUnits="userSpaceOnUse" color-interpolation-filters="sRGB">
<feFlood flood-opacity="0" result="BackgroundImageFix"/>
<feColorMatrix in="SourceAlpha" type="matrix" values="0 0 0 0 0 0 0 0 0 0 0 0 0 0 0 0 0 0 127 0" result="hardAlpha"/>
<feOffset dx="-0.1" dy="0.3"/>
<feComposite in2="hardAlpha" operator="out"/>
<feColorMatrix type="matrix" values="0 0 0 0 0.0117647 0 0 0 0 0.0980392 0 0 0 0 0.14902 0 0 0 1 0"/>
<feBlend mode="normal" in2="BackgroundImageFix" result="effect1_dropShadow_439_3642"/>
<feBlend mode="normal" in="SourceGraphic" in2="effect1_dropShadow_439_3642" result="shape"/>
</filter>
</defs>
</svg>
