<svg width="1336" height="543" viewBox="0 0 1336 543" fill="none" xmlns="http://www.w3.org/2000/svg">
<path d="M776.101 534.992L776.101 534.992C777.932 535.368 779.748 535.127 781.336 534.407C783.727 533.324 785.587 531.162 786.173 528.421L786.181 528.384L786.185 528.373L786.185 528.373L786.185 528.371L786.186 528.365L786.188 528.356L786.189 528.352L788.331 517.963L788.47 517.289L789.067 517.629L798.291 522.868L798.295 522.87L798.302 522.874L798.307 522.877L798.307 522.877L798.312 522.88C798.31 522.879 798.308 522.878 798.307 522.878L798.271 522.945L798.071 523.318M776.101 534.992L798.302 522.875L798.24 522.993L798.071 523.318M776.101 534.992C771.5 534.047 768.517 529.535 769.446 524.93L769.453 524.89L769.454 524.884C769.454 524.883 769.454 524.882 769.454 524.881L771.578 514.511L771.716 513.838L771.033 513.914L760.503 515.083L760.502 515.083C760.491 515.084 760.474 515.085 760.455 515.087C755.793 515.585 751.581 512.208 751.059 507.539L750.562 507.594L751.059 507.539C750.538 502.876 753.892 498.654 758.547 498.106C758.567 498.105 758.587 498.103 758.608 498.1C758.615 498.099 758.623 498.097 758.631 498.096L769.135 496.915L769.818 496.838L769.535 496.212L765.166 486.548C763.225 482.253 765.133 477.18 769.419 475.238C773.705 473.296 778.778 475.205 780.725 479.492L785.111 489.159L785.394 489.785L785.903 489.322L793.74 482.18L793.406 481.813L793.74 482.18C797.221 479.008 802.634 479.257 805.808 482.734C808.983 486.212 808.736 491.629 805.261 494.803L805.598 495.173L805.261 494.803L797.429 501.957L796.921 502.421L797.519 502.761L806.732 508.01L806.748 508.019M776.101 534.992L806.727 508.006M798.071 523.318C798.076 523.32 798.08 523.322 798.084 523.325M798.071 523.318C798.069 523.316 798.066 523.315 798.063 523.313C798.057 523.31 798.051 523.307 798.044 523.303L789.277 518.323L789.31 518.165L788.82 518.064L788.573 518.498L788.714 518.578L786.679 528.453L786.675 528.474L786.673 528.485M798.084 523.325L786.194 528.349L786.192 528.353C786.192 528.354 786.191 528.356 786.191 528.357C786.19 528.361 786.188 528.365 786.187 528.369C786.187 528.37 786.186 528.372 786.186 528.373C786.185 528.375 786.185 528.377 786.184 528.379L786.242 528.394L786.333 528.418L786.422 528.435L786.673 528.485M798.084 523.325C802.413 525.758 807.92 524.23 810.375 519.91L798.084 523.325ZM798.084 523.325L798.329 522.889C798.331 522.89 798.333 522.891 798.334 522.892M798.084 523.325L798.342 522.897C798.34 522.895 798.337 522.894 798.334 522.892M786.673 528.485L786.437 528.441L786.386 528.432L786.47 528.453L786.668 528.505M786.673 528.485C786.671 528.491 786.67 528.498 786.668 528.505L786.668 528.505M786.668 528.505L786.512 528.469L786.185 528.394M786.668 528.505C786.666 528.512 786.664 528.519 786.662 528.526C786.041 531.429 784.071 533.717 781.542 534.863C779.862 535.624 777.938 535.88 776 535.482L786.185 528.394M786.185 528.394L786.181 528.394L786.181 528.393M786.185 528.394L786.181 528.393M786.181 528.393L786.181 528.393L786.182 528.388C786.182 528.386 786.183 528.386 786.182 528.387L786.181 528.393ZM798.334 522.892C802.423 525.186 807.623 523.742 809.94 519.663L809.941 519.663C812.263 515.581 810.835 510.368 806.764 508.029L806.751 508.021L806.748 508.019M798.334 522.892L806.748 508.019M806.748 508.019L806.764 508.028L806.767 508.03L806.804 508.044C806.79 508.038 806.777 508.033 806.765 508.027C806.758 508.024 806.752 508.02 806.746 508.017C806.744 508.016 806.741 508.014 806.739 508.013C806.736 508.011 806.735 508.01 806.733 508.009C806.731 508.008 806.73 508.007 806.728 508.006M806.748 508.019L806.728 508.006M806.748 508.019L806.738 508.013L806.733 508.009L806.728 508.006M806.728 508.006L806.727 508.006M806.727 508.006L806.727 508.005L806.727 508.006Z" fill="#F2994A" stroke="black"/>
<g filter="url(#filter0_d_495_3333)">
<circle cx="32" cy="32" r="32" fill="#27AE60"/>
<circle cx="32" cy="32" r="31.5" stroke="black"/>
</g>
<path d="M1274.02 81.0537L1306.92 82.4676L1322.14 111.66L1304.47 139.439L1271.58 138.025L1256.35 108.832L1274.02 81.0537Z" fill="#56CCF2" stroke="black"/>
<defs>
<filter id="filter0_d_495_3333" x="0" y="0" width="65" height="66" filterUnits="userSpaceOnUse" color-interpolation-filters="sRGB">
<feFlood flood-opacity="0" result="BackgroundImageFix"/>
<feColorMatrix in="SourceAlpha" type="matrix" values="0 0 0 0 0 0 0 0 0 0 0 0 0 0 0 0 0 0 127 0" result="hardAlpha"/>
<feOffset dx="1" dy="2"/>
<feComposite in2="hardAlpha" operator="out"/>
<feColorMatrix type="matrix" values="0 0 0 0 0 0 0 0 0 0 0 0 0 0 0 0 0 0 1 0"/>
<feBlend mode="normal" in2="BackgroundImageFix" result="effect1_dropShadow_495_3333"/>
<feBlend mode="normal" in="SourceGraphic" in2="effect1_dropShadow_495_3333" result="shape"/>
</filter>
</defs>
</svg>
