<svg width="476" height="738" viewBox="0 0 476 738" fill="none" xmlns="http://www.w3.org/2000/svg">
<path fill-rule="evenodd" clip-rule="evenodd" d="M58.9771 738L58.2855 737.472L0 692.957L0 690.441L23.3833 708.299L49.1455 674.567L15.4135 648.805L0 668.987L0 665.692L13.8241 647.591L0 637.033L0 634.517L15.038 646.002L40.8001 612.27L7.06821 586.508L0 595.763L0 592.468L5.47876 585.294L0 581.11V578.593L6.69272 583.704L32.4549 549.973L0 525.186L0 522.669L33.6688 548.383L59.4309 514.651L25.6989 488.889L0 522.538L0 519.243L24.1095 487.675L0 469.262V466.745L25.3235 486.086L51.0856 452.354L17.3537 426.591L0 449.314V446.019L15.7642 425.378L0 413.338V410.821L16.9782 423.788L42.7403 390.056L9.00836 364.294L0 376.089L0 372.794L7.41891 363.08L0 357.414V354.897L8.63287 361.491L34.395 327.759L0.663055 301.997L0 302.865L0 298.974L0.287537 299.193L26.0497 265.461L0 245.566L0 243.05L27.2636 263.872L53.0257 230.14L19.2938 204.378L0 229.64L0 226.345L17.7043 203.164L0 189.642V187.126L302.284 417.99L303.079 418.597L302.472 419.392L59.6872 737.284L59.1404 738H58.9771ZM475.733 0L248.687 297.284L248.08 298.079L247.285 297.472L0 108.612L0 106.095L0.454987 106.443L26.2171 72.711L0 52.6881L0 50.1715L27.4311 71.1215L53.1932 37.3896L19.4613 11.6274L0 37.1093L0 33.8142L17.8718 10.4135L4.23676 0L7.53188 0L19.0858 8.82407L25.825 0H28.3415L20.6752 10.038L54.4071 35.8001L80.1693 2.06821L77.4613 0L80.7563 0L81.3832 0.47876L81.7489 0L84.2654 0L82.9727 1.69269L116.705 27.4548L137.673 0L140.189 0L118.294 28.6688L152.026 54.4309L177.788 20.699L150.686 0H153.981L179.002 19.1095L193.597 0L196.113 0L180.592 20.3235L214.323 46.0856L240.086 12.3537L223.91 0L227.205 0L241.299 10.7642L249.52 0L252.037 0L242.889 11.9781L276.621 37.7403L302.383 4.00836L297.135 0L300.43 0L303.597 2.41891L305.444 0L307.961 0L305.186 3.63284L338.918 29.395L361.368 0L363.885 0L340.508 30.6089L374.24 56.371L400.002 22.6391L370.359 0L373.654 0L401.216 21.0496L417.292 0H419.809L402.805 22.2635L436.537 48.0257L462.299 14.2938L443.584 0H446.879L463.513 12.7044L473.216 0H475.733ZM401.591 23.853L435.323 49.6152L409.561 83.3471L375.829 57.585L401.591 23.853ZM374.615 59.1744L408.347 84.9366L382.585 118.669L348.853 92.9063L374.615 59.1744ZM347.639 94.4958L381.371 120.258L355.609 153.99L321.877 128.228L347.639 94.4958ZM320.663 129.817L354.395 155.579L328.633 189.311L294.901 163.549L320.663 129.817ZM293.687 165.139L327.419 190.901L301.657 224.633L267.925 198.871L293.687 165.139ZM266.711 200.46L300.443 226.222L274.681 259.954L240.949 234.192L266.711 200.46ZM239.735 235.781L273.467 261.544L247.705 295.275L213.973 269.513L239.735 235.781ZM238.145 234.567L212.383 268.299L178.651 242.537L204.414 208.805L238.145 234.567ZM202.824 207.591L177.062 241.323L143.33 215.561L169.092 181.829L202.824 207.591ZM167.503 180.615L141.741 214.347L108.009 188.585L133.771 154.853L167.503 180.615ZM132.181 153.639L106.419 187.371L72.6873 161.609L98.4494 127.877L132.181 153.639ZM96.8599 126.663L71.0978 160.395L37.3658 134.633L63.128 100.901L96.8599 126.663ZM61.5385 99.687L35.7764 133.419L2.04446 107.657L27.8066 73.9249L61.5385 99.687ZM339.294 32.1983L373.026 57.9605L347.264 91.6924L313.532 65.9303L339.294 32.1983ZM312.318 67.5197L346.05 93.2819L320.288 127.014L286.556 101.252L312.318 67.5197ZM285.342 102.841L319.074 128.603L293.312 162.335L259.58 136.573L285.342 102.841ZM258.366 138.162L292.098 163.925L266.335 197.657L232.604 171.894L258.366 138.162ZM231.39 173.484L265.122 199.246L239.359 232.978L205.627 207.216L231.39 173.484ZM229.8 172.27L204.038 206.002L170.306 180.24L196.068 146.508L229.8 172.27ZM194.479 145.294L168.717 179.026L134.985 153.264L160.747 119.532L194.479 145.294ZM159.157 118.318L133.395 152.05L99.6633 126.288L125.425 92.5557L159.157 118.318ZM123.836 91.3418L98.0739 125.074L64.3419 99.3115L90.1041 65.5796L123.836 91.3418ZM88.5146 64.3657L62.7524 98.0976L29.0205 72.3354L54.7827 38.6035L88.5146 64.3657ZM303.973 5.22229L337.704 30.9844L311.942 64.7163L278.21 38.9542L303.973 5.22229ZM276.996 40.5437L310.728 66.3058L284.966 100.038L251.234 74.2756L276.996 40.5437ZM250.02 75.8651L283.752 101.627L257.99 135.359L224.258 109.597L250.02 75.8651ZM223.044 111.186L256.776 136.949L231.014 170.681L197.282 144.918L223.044 111.186ZM221.455 109.973L195.693 143.704L161.961 117.942L187.723 84.2104L221.455 109.973ZM186.133 82.9964L160.371 116.728L126.639 90.9662L152.402 57.2343L186.133 82.9964ZM150.812 56.0204L125.05 89.7523L91.318 63.9901L117.08 30.2582L150.812 56.0204ZM115.491 29.0443L89.7285 62.7762L55.9966 37.0141L81.7588 3.28214L115.491 29.0443ZM241.675 13.5676L275.407 39.3297L249.645 73.0617L215.913 47.2995L241.675 13.5676ZM214.699 48.889L248.431 74.6512L222.669 108.383L188.937 82.6209L214.699 48.889ZM213.11 47.675L187.347 81.407L153.615 55.6448L179.378 21.9129L213.11 47.675ZM28.8531 265.086L54.6152 231.354L88.3471 257.116L62.585 290.848L28.8531 265.086ZM64.1744 292.062L89.9366 258.33L123.669 284.092L97.9064 317.824L64.1744 292.062ZM99.4958 319.038L125.258 285.306L158.99 311.068L133.228 344.8L99.4958 319.038ZM134.817 346.014L160.579 312.282L194.311 338.044L168.549 371.776L134.817 346.014ZM170.139 372.99L195.901 339.258L229.633 365.02L203.87 398.752L170.139 372.99ZM205.46 399.966L231.222 366.234L264.954 391.996L239.192 425.728L205.46 399.966ZM240.781 426.942L266.544 393.21L300.275 418.972L274.513 452.704L240.781 426.942ZM239.567 428.532L273.299 454.294L247.537 488.026L213.805 462.264L239.567 428.532ZM212.591 463.853L246.323 489.615L220.561 523.347L186.829 497.585L212.591 463.853ZM185.615 499.174L219.347 524.937L193.585 558.669L159.853 532.906L185.615 499.174ZM158.639 534.496L192.371 560.258L166.609 593.99L132.877 568.228L158.639 534.496ZM131.663 569.817L165.395 595.579L139.633 629.311L105.901 603.549L131.663 569.817ZM104.687 605.139L138.419 630.901L112.657 664.633L78.9249 638.87L104.687 605.139ZM77.711 640.46L111.443 666.222L85.6808 699.954L51.9489 674.192L77.711 640.46ZM50.7349 675.781L84.4669 701.544L58.7047 735.275L24.9727 709.513L50.7349 675.781ZM1.87701 300.407L27.6391 266.675L61.3711 292.437L35.6089 326.169L1.87701 300.407ZM37.1984 327.383L62.9605 293.651L96.6924 319.413L70.9303 353.145L37.1984 327.383ZM72.5198 354.359L98.2819 320.627L132.014 346.39L106.252 380.121L72.5198 354.359ZM107.841 381.335L133.603 347.603L167.335 373.366L141.573 407.098L107.841 381.335ZM143.163 408.311L168.925 374.58L202.657 400.342L176.894 434.074L143.163 408.311ZM178.484 435.287L204.246 401.556L237.978 427.318L212.216 461.05L178.484 435.287ZM177.27 436.877L211.002 462.639L185.24 496.371L151.508 470.609L177.27 436.877ZM150.294 472.198L184.026 497.961L158.264 531.692L124.532 505.93L150.294 472.198ZM123.318 507.52L157.05 533.282L131.288 567.014L97.5556 541.252L123.318 507.52ZM96.3417 542.841L130.074 568.603L104.312 602.335L70.5796 576.573L96.3417 542.841ZM69.3657 578.162L103.098 603.925L77.3354 637.657L43.6035 611.894L69.3657 578.162ZM42.3896 613.484L76.1215 639.246L50.3594 672.978L16.6274 647.216L42.3896 613.484ZM10.2223 362.705L35.9844 328.973L69.7164 354.735L43.9543 388.467L10.2223 362.705ZM45.5437 389.681L71.3058 355.949L105.038 381.711L79.2756 415.443L45.5437 389.681ZM80.8651 416.657L106.627 382.925L140.359 408.687L114.597 442.419L80.8651 416.657ZM116.186 443.633L141.949 409.901L175.681 435.663L149.918 469.395L116.186 443.633ZM114.973 445.222L148.704 470.984L122.942 504.716L89.2104 478.954L114.973 445.222ZM87.9964 480.544L121.728 506.306L95.9662 540.038L62.2343 514.276L87.9964 480.544ZM61.0204 515.865L94.7523 541.627L68.9901 575.359L35.2582 549.597L61.0204 515.865ZM34.0443 551.186L67.7762 576.949L42.0141 610.681L8.28214 584.918L34.0443 551.186ZM18.5676 425.002L44.3298 391.27L78.0617 417.032L52.2995 450.764L18.5676 425.002ZM53.889 451.978L79.6511 418.246L113.383 444.008L87.6209 477.74L53.889 451.978ZM52.675 453.568L86.407 479.33L60.6448 513.062L26.9129 487.299L52.675 453.568Z" fill="white"/>
<mask id="path-2-inside-1_423_3637" fill="white">
<path fill-rule="evenodd" clip-rule="evenodd" d="M0 358.518V212.268L10.6721 230.442L79.069 173.415L31.5012 255.424L121.932 240.964L44.0888 284.178L140.298 292.79L43.154 306.648L118.892 347.821L19.3373 326.505L80.3006 399.623L0 358.518Z"/>
</mask>
<path fill-rule="evenodd" clip-rule="evenodd" d="M0 358.518V212.268L10.6721 230.442L79.069 173.415L31.5012 255.424L121.932 240.964L44.0888 284.178L140.298 292.79L43.154 306.648L118.892 347.821L19.3373 326.505L80.3006 399.623L0 358.518Z" fill="#CBEE4C"/>
<path d="M0 358.518H-1V359.129L-0.455658 359.408L0 358.518ZM0 212.268L0.862315 211.762L-1 208.59V212.268H0ZM10.6721 230.442L9.80983 230.948L10.4069 231.965L11.3125 231.21L10.6721 230.442ZM79.069 173.415L79.934 173.916L78.4286 172.646L79.069 173.415ZM31.5012 255.424L30.6362 254.922L29.5796 256.744L31.6591 256.411L31.5012 255.424ZM121.932 240.964L122.418 241.839L121.774 239.977L121.932 240.964ZM44.0888 284.178L43.6035 283.304L40.7572 284.884L43.9997 285.174L44.0888 284.178ZM140.298 292.79L140.439 293.78L140.387 291.794L140.298 292.79ZM43.154 306.648L43.0128 305.658L40.0236 306.084L42.6764 307.526L43.154 306.648ZM118.892 347.821L118.683 348.799L119.37 346.943L118.892 347.821ZM19.3373 326.505L19.5467 325.527L16.7144 324.921L18.5693 327.146L19.3373 326.505ZM80.3006 399.623L79.8449 400.513L81.0686 398.982L80.3006 399.623ZM1 358.518V212.268H-1V358.518H1ZM-0.862315 212.774L9.80983 230.948L11.5345 229.936L0.862315 211.762L-0.862315 212.774ZM11.3125 231.21L79.7094 174.183L78.4286 172.646L10.0318 229.674L11.3125 231.21ZM78.204 172.913L30.6362 254.922L32.3663 255.925L79.934 173.916L78.204 172.913ZM31.6591 256.411L122.09 241.952L121.774 239.977L31.3434 254.436L31.6591 256.411ZM121.447 240.09L43.6035 283.304L44.5742 285.053L122.418 241.839L121.447 240.09ZM43.9997 285.174L140.209 293.786L140.387 291.794L44.178 283.182L43.9997 285.174ZM140.157 291.8L43.0128 305.658L43.2952 307.638L140.439 293.78L140.157 291.8ZM42.6764 307.526L118.414 348.7L119.37 346.943L43.6316 305.769L42.6764 307.526ZM119.101 346.843L19.5467 325.527L19.128 327.483L118.683 348.799L119.101 346.843ZM18.5693 327.146L79.5325 400.263L81.0686 398.982L20.1054 325.865L18.5693 327.146ZM80.7562 398.732L0.455658 357.628L-0.455658 359.408L79.8449 400.513L80.7562 398.732Z" fill="black" mask="url(#path-2-inside-1_423_3637)"/>
</svg>
