<svg width="381" height="263" viewBox="0 0 381 263" fill="none" xmlns="http://www.w3.org/2000/svg">
<path fill-rule="evenodd" clip-rule="evenodd" d="M381 118.45L262.843 0.292969L0.13562 263H1.54982L50.7107 213.839L99.8716 263H101.286L51.4178 213.132L121.421 143.129L191.425 213.132L141.557 263H142.971L192.132 213.839L241.293 263H242.707L192.839 213.132L262.843 143.129L332.846 213.132L282.978 263H284.393L333.553 213.839L381 261.286V259.872L334.26 213.132L381 166.393V164.978L333.553 212.425L263.55 142.421L333.553 72.4178L381 119.864V118.45ZM192.132 212.425L122.128 142.421L192.132 72.4179L262.136 142.421L192.132 212.425ZM262.843 141.714L192.839 71.7108L262.843 1.70718L332.846 71.7107L262.843 141.714Z" fill="white"/>
<g filter="url(#filter0_d_496_3363)">
<path d="M219.879 111.996C220.037 110.668 221.963 110.668 222.121 111.996L223.442 123.133C225.149 137.513 236.487 148.851 250.867 150.558L262.004 151.879C263.332 152.037 263.332 153.963 262.004 154.121L250.867 155.442C236.487 157.149 225.149 168.487 223.442 182.867L222.121 194.004C221.963 195.332 220.037 195.332 219.879 194.004L218.558 182.867C216.851 168.487 205.513 157.149 191.133 155.442L179.996 154.121C178.668 153.963 178.668 152.037 179.996 151.879L191.133 150.558C205.513 148.851 216.851 137.513 218.558 123.133L219.879 111.996Z" fill="#27AE60"/>
<path d="M220.376 112.055C220.376 112.055 220.376 112.055 220.376 112.055C220.464 111.315 221.536 111.315 221.624 112.055C221.624 112.055 221.624 112.055 221.624 112.055L222.946 123.191C224.679 137.802 236.198 149.321 250.808 151.054L261.945 152.376C262.685 152.464 262.685 153.537 261.945 153.624L250.808 154.946C236.198 156.679 224.679 168.198 222.946 182.808L221.624 193.945C221.537 194.685 220.464 194.685 220.376 193.945L219.054 182.808C217.321 168.198 205.802 156.679 191.191 154.946L180.055 153.624C180.055 153.624 180.055 153.624 180.055 153.624C179.315 153.536 179.315 152.464 180.055 152.376C180.055 152.376 180.055 152.376 180.055 152.376L191.191 151.054C205.802 149.321 217.321 137.802 219.054 123.191L220.376 112.055Z" stroke="#031926" stroke-linejoin="round"/>
</g>
<defs>
<filter id="filter0_d_496_3363" x="178.9" y="111" width="84.1" height="84.3" filterUnits="userSpaceOnUse" color-interpolation-filters="sRGB">
<feFlood flood-opacity="0" result="BackgroundImageFix"/>
<feColorMatrix in="SourceAlpha" type="matrix" values="0 0 0 0 0 0 0 0 0 0 0 0 0 0 0 0 0 0 127 0" result="hardAlpha"/>
<feOffset dx="-0.1" dy="0.3"/>
<feComposite in2="hardAlpha" operator="out"/>
<feColorMatrix type="matrix" values="0 0 0 0 0.0117647 0 0 0 0 0.0980392 0 0 0 0 0.14902 0 0 0 1 0"/>
<feBlend mode="normal" in2="BackgroundImageFix" result="effect1_dropShadow_496_3363"/>
<feBlend mode="normal" in="SourceGraphic" in2="effect1_dropShadow_496_3363" result="shape"/>
</filter>
</defs>
</svg>
