<svg width="166" height="33" viewBox="0 0 166 33" fill="none" xmlns="http://www.w3.org/2000/svg">
<path d="M0 0H32.129V10.7097V32.129H21.4194V18.1241L7.41439 32.129H0V24.3027L13.5931 10.7097H0V0Z" fill="black"/>
<path d="M52.4728 28.548C51.0434 28.548 49.9448 28.3027 49.1768 27.812C48.4088 27.3213 47.8434 26.7773 47.4808 26.18H46.9048V28.1H42.9368V5.7H46.9688V14.052H47.5448C47.7794 13.668 48.0888 13.3053 48.4728 12.964C48.8781 12.6227 49.4008 12.3453 50.0408 12.132C50.7021 11.8973 51.5128 11.78 52.4728 11.78C53.7528 11.78 54.9368 12.1 56.0248 12.74C57.1128 13.3587 57.9874 14.276 58.6488 15.492C59.3101 16.708 59.6408 18.18 59.6408 19.908V20.42C59.6408 22.148 59.3101 23.62 58.6488 24.836C57.9874 26.052 57.1128 26.98 56.0248 27.62C54.9368 28.2387 53.7528 28.548 52.4728 28.548ZM51.2568 25.028C52.4941 25.028 53.5288 24.6333 54.3608 23.844C55.1928 23.0333 55.6088 21.86 55.6088 20.324V20.004C55.6088 18.468 55.1928 17.3053 54.3608 16.516C53.5501 15.7053 52.5154 15.3 51.2568 15.3C50.0194 15.3 48.9848 15.7053 48.1528 16.516C47.3208 17.3053 46.9048 18.468 46.9048 20.004V20.324C46.9048 21.86 47.3208 23.0333 48.1528 23.844C48.9848 24.6333 50.0194 25.028 51.2568 25.028ZM63.343 28.1V12.228H67.375V28.1H63.343ZM65.359 10.372C64.6337 10.372 64.015 10.1373 63.503 9.668C63.0124 9.19867 62.767 8.58001 62.767 7.81201C62.767 7.04401 63.0124 6.42534 63.503 5.95601C64.015 5.48667 64.6337 5.252 65.359 5.252C66.1057 5.252 66.7244 5.48667 67.215 5.95601C67.7057 6.42534 67.951 7.04401 67.951 7.81201C67.951 8.58001 67.7057 9.19867 67.215 9.668C66.7244 10.1373 66.1057 10.372 65.359 10.372ZM77.923 28.1C76.8777 28.1 76.0244 27.78 75.363 27.14C74.723 26.4787 74.403 25.604 74.403 24.516V15.556H70.435V12.228H74.403V7.3H78.435V12.228H82.787V15.556H78.435V23.812C78.435 24.452 78.7337 24.772 79.331 24.772H82.403V28.1H77.923ZM87.7168 28.1L85.4768 12.228H89.4768L90.8848 25.38H91.4608L93.5088 12.228H99.9728L102.021 25.38H102.597L104.005 12.228H108.005L105.765 28.1H99.0768L97.0288 14.948H96.4528L94.4048 28.1H87.7168ZM111.531 28.1V12.228H115.563V28.1H111.531ZM113.547 10.372C112.821 10.372 112.203 10.1373 111.691 9.668C111.2 9.19867 110.955 8.58001 110.955 7.81201C110.955 7.04401 111.2 6.42534 111.691 5.95601C112.203 5.48667 112.821 5.252 113.547 5.252C114.293 5.252 114.912 5.48667 115.403 5.95601C115.893 6.42534 116.139 7.04401 116.139 7.81201C116.139 8.58001 115.893 9.19867 115.403 9.668C114.912 10.1373 114.293 10.372 113.547 10.372ZM126.623 28.548C124.553 28.548 122.857 28.1 121.535 27.204C120.212 26.308 119.412 25.028 119.135 23.364L122.847 22.404C122.996 23.1507 123.241 23.7373 123.583 24.164C123.945 24.5907 124.383 24.9 124.895 25.092C125.428 25.2627 126.004 25.348 126.623 25.348C127.561 25.348 128.255 25.188 128.703 24.868C129.151 24.5267 129.375 24.1107 129.375 23.62C129.375 23.1293 129.161 22.756 128.735 22.5C128.308 22.2227 127.625 21.9987 126.687 21.828L125.791 21.668C124.681 21.4547 123.668 21.1667 122.751 20.804C121.833 20.42 121.097 19.8973 120.543 19.236C119.988 18.5747 119.711 17.7213 119.711 16.676C119.711 15.0973 120.287 13.892 121.439 13.06C122.591 12.2067 124.105 11.78 125.983 11.78C127.753 11.78 129.225 12.1747 130.399 12.964C131.572 13.7533 132.34 14.788 132.703 16.068L128.959 17.22C128.788 16.4093 128.436 15.8333 127.903 15.492C127.391 15.1507 126.751 14.98 125.983 14.98C125.215 14.98 124.628 15.1187 124.223 15.396C123.817 15.652 123.615 16.0147 123.615 16.484C123.615 16.996 123.828 17.38 124.255 17.636C124.681 17.8707 125.257 18.052 125.983 18.18L126.879 18.34C128.073 18.5533 129.151 18.8413 130.111 19.204C131.092 19.5453 131.86 20.0467 132.415 20.708C132.991 21.348 133.279 22.2227 133.279 23.332C133.279 24.996 132.671 26.2867 131.455 27.204C130.26 28.1 128.649 28.548 126.623 28.548ZM144.044 28.548C142.465 28.548 141.068 28.2173 139.852 27.556C138.657 26.8733 137.718 25.924 137.036 24.708C136.374 23.4707 136.044 22.02 136.044 20.356V19.972C136.044 18.308 136.374 16.868 137.036 15.652C137.697 14.4147 138.625 13.4653 139.82 12.804C141.014 12.1213 142.401 11.78 143.98 11.78C145.537 11.78 146.892 12.132 148.044 12.836C149.196 13.5187 150.092 14.4787 150.732 15.716C151.372 16.932 151.692 18.3507 151.692 19.972V21.348H140.14C140.182 22.436 140.588 23.3213 141.356 24.004C142.124 24.6867 143.062 25.028 144.172 25.028C145.302 25.028 146.134 24.7827 146.668 24.292C147.201 23.8013 147.606 23.2573 147.884 22.66L151.18 24.388C150.881 24.9427 150.444 25.5507 149.868 26.212C149.313 26.852 148.566 27.4067 147.628 27.876C146.689 28.324 145.494 28.548 144.044 28.548ZM140.172 18.34H147.596C147.51 17.4227 147.137 16.6867 146.476 16.132C145.836 15.5773 144.993 15.3 143.948 15.3C142.86 15.3 141.996 15.5773 141.356 16.132C140.716 16.6867 140.321 17.4227 140.172 18.34Z" fill="black"/>
<path d="M156.241 24.3042V23.9136H158.969V24.3042H157.825V27.55H157.385V24.3042H156.241ZM159.648 23.9136H160.174L161.41 26.9321H161.452L162.688 23.9136H163.214V27.55H162.802V24.7872H162.766L161.63 27.55H161.232L160.096 24.7872H160.06V27.55H159.648V23.9136Z" fill="black"/>
</svg>
