<svg width="49" height="47" viewBox="0 0 49 47" fill="none" xmlns="http://www.w3.org/2000/svg">
<path d="M3.67127 14.8909C0.344093 15.3905 -0.917448 19.5245 1.56392 21.7966L8.67326 28.3065C9.67188 29.2209 10.1401 30.5784 9.91755 31.914L8.33308 41.4224C7.78006 44.7412 11.3219 47.2184 14.2496 45.5606L22.6377 40.8109C23.816 40.1437 25.2518 40.1179 26.4532 40.7423L35.0067 45.1875C37.992 46.739 41.4426 44.136 40.7706 40.8393L38.8454 31.394C38.575 30.0672 38.9941 28.6937 39.9593 27.744L46.83 20.9829C49.2281 18.623 47.8188 14.537 44.4758 14.1574L34.8979 13.0696C33.5525 12.9168 32.3757 12.0937 31.7707 10.8824L27.4637 2.25855C25.9604 -0.751399 21.6389 -0.673708 20.2447 2.38833L16.2504 11.1614C15.6894 12.3937 14.543 13.2585 13.2039 13.4596L3.67127 14.8909Z" fill="#FBB200"/>
</svg>
