<svg width="115" height="30" viewBox="0 0 115 30" fill="none" xmlns="http://www.w3.org/2000/svg">
<path d="M0 4H20V10.6667V24H13.3333V15.2821L4.61538 24H0V19.1282L8.46154 10.6667H0V4Z" fill="black"/>
<path d="M32.832 23.336C31.76 23.336 30.936 23.152 30.36 22.784C29.784 22.416 29.36 22.008 29.088 21.56H28.656V23H25.68V6.2H28.704V12.464H29.136C29.312 12.176 29.544 11.904 29.832 11.648C30.136 11.392 30.528 11.184 31.008 11.024C31.504 10.848 32.112 10.76 32.832 10.76C33.792 10.76 34.68 11 35.496 11.48C36.312 11.944 36.968 12.632 37.464 13.544C37.96 14.456 38.208 15.56 38.208 16.856V17.24C38.208 18.536 37.96 19.64 37.464 20.552C36.968 21.464 36.312 22.16 35.496 22.64C34.68 23.104 33.792 23.336 32.832 23.336ZM31.92 20.696C32.848 20.696 33.624 20.4 34.248 19.808C34.872 19.2 35.184 18.32 35.184 17.168V16.928C35.184 15.776 34.872 14.904 34.248 14.312C33.64 13.704 32.864 13.4 31.92 13.4C30.992 13.4 30.216 13.704 29.592 14.312C28.968 14.904 28.656 15.776 28.656 16.928V17.168C28.656 18.32 28.968 19.2 29.592 19.808C30.216 20.4 30.992 20.696 31.92 20.696ZM40.9847 23V11.096H44.0087V23H40.9847ZM42.4967 9.704C41.9527 9.704 41.4887 9.528 41.1047 9.176C40.7367 8.824 40.5527 8.36 40.5527 7.784C40.5527 7.208 40.7367 6.744 41.1047 6.392C41.4887 6.04 41.9527 5.864 42.4967 5.864C43.0567 5.864 43.5207 6.04 43.8887 6.392C44.2567 6.744 44.4407 7.208 44.4407 7.784C44.4407 8.36 44.2567 8.824 43.8887 9.176C43.5207 9.528 43.0567 9.704 42.4967 9.704ZM51.9197 23C51.1357 23 50.4957 22.76 49.9997 22.28C49.5197 21.784 49.2797 21.128 49.2797 20.312V13.592H46.3037V11.096H49.2797V7.4H52.3037V11.096H55.5677V13.592H52.3037V19.784C52.3037 20.264 52.5277 20.504 52.9757 20.504H55.2797V23H51.9197ZM59.265 23L57.585 11.096H60.585L61.641 20.96H62.073L63.609 11.096H68.457L69.993 20.96H70.425L71.481 11.096H74.481L72.801 23H67.785L66.249 13.136H65.817L64.281 23H59.265ZM77.1253 23V11.096H80.1493V23H77.1253ZM78.6373 9.704C78.0933 9.704 77.6293 9.528 77.2453 9.176C76.8773 8.824 76.6933 8.36 76.6933 7.784C76.6933 7.208 76.8773 6.744 77.2453 6.392C77.6293 6.04 78.0933 5.864 78.6373 5.864C79.1973 5.864 79.6613 6.04 80.0293 6.392C80.3973 6.744 80.5813 7.208 80.5813 7.784C80.5813 8.36 80.3973 8.824 80.0293 9.176C79.6613 9.528 79.1973 9.704 78.6373 9.704ZM88.4443 23.336C86.8923 23.336 85.6203 23 84.6283 22.328C83.6363 21.656 83.0363 20.696 82.8283 19.448L85.6123 18.728C85.7243 19.288 85.9083 19.728 86.1643 20.048C86.4363 20.368 86.7643 20.6 87.1483 20.744C87.5483 20.872 87.9803 20.936 88.4443 20.936C89.1483 20.936 89.6683 20.816 90.0043 20.576C90.3403 20.32 90.5083 20.008 90.5083 19.64C90.5083 19.272 90.3483 18.992 90.0283 18.8C89.7083 18.592 89.1963 18.424 88.4923 18.296L87.8203 18.176C86.9883 18.016 86.2283 17.8 85.5403 17.528C84.8523 17.24 84.3003 16.848 83.8843 16.352C83.4683 15.856 83.2603 15.216 83.2603 14.432C83.2603 13.248 83.6923 12.344 84.5563 11.72C85.4203 11.08 86.5563 10.76 87.9643 10.76C89.2923 10.76 90.3963 11.056 91.2763 11.648C92.1563 12.24 92.7323 13.016 93.0043 13.976L90.1963 14.84C90.0683 14.232 89.8043 13.8 89.4043 13.544C89.0203 13.288 88.5403 13.16 87.9643 13.16C87.3883 13.16 86.9483 13.264 86.6443 13.472C86.3403 13.664 86.1883 13.936 86.1883 14.288C86.1883 14.672 86.3483 14.96 86.6683 15.152C86.9883 15.328 87.4203 15.464 87.9643 15.56L88.6363 15.68C89.5323 15.84 90.3403 16.056 91.0603 16.328C91.7963 16.584 92.3723 16.96 92.7883 17.456C93.2203 17.936 93.4363 18.592 93.4363 19.424C93.4363 20.672 92.9803 21.64 92.0683 22.328C91.1723 23 89.9643 23.336 88.4443 23.336ZM101.51 23.336C100.326 23.336 99.2783 23.088 98.3663 22.592C97.4703 22.08 96.7663 21.368 96.2543 20.456C95.7583 19.528 95.5103 18.44 95.5103 17.192V16.904C95.5103 15.656 95.7583 14.576 96.2543 13.664C96.7503 12.736 97.4463 12.024 98.3423 11.528C99.2383 11.016 100.278 10.76 101.462 10.76C102.63 10.76 103.646 11.024 104.51 11.552C105.374 12.064 106.046 12.784 106.526 13.712C107.006 14.624 107.246 15.688 107.246 16.904V17.936H98.5823C98.6143 18.752 98.9183 19.416 99.4943 19.928C100.07 20.44 100.774 20.696 101.606 20.696C102.454 20.696 103.078 20.512 103.478 20.144C103.878 19.776 104.182 19.368 104.39 18.92L106.862 20.216C106.638 20.632 106.31 21.088 105.878 21.584C105.462 22.064 104.902 22.48 104.198 22.832C103.494 23.168 102.598 23.336 101.51 23.336ZM98.6063 15.68H104.174C104.11 14.992 103.83 14.44 103.334 14.024C102.854 13.608 102.222 13.4 101.438 13.4C100.622 13.4 99.9743 13.608 99.4943 14.024C99.0143 14.44 98.7183 14.992 98.6063 15.68Z" fill="black"/>
<path d="M106.193 20.4034V20.0909H108.375V20.4034H107.46V23H107.108V20.4034H106.193ZM108.919 20.0909H109.339L110.328 22.5057H110.362L111.35 20.0909H111.771V23H111.441V20.7898H111.413L110.504 23H110.186L109.277 20.7898H109.248V23H108.919V20.0909Z" fill="black"/>
</svg>
