<svg width="118" height="30" viewBox="0 0 118 30" fill="none" xmlns="http://www.w3.org/2000/svg">
<path d="M0 4H20.5217V10.8406V24.5217H13.6812V15.5764L4.73579 24.5217H0V19.5229L8.68228 10.8406H0V4Z" fill="#6E61FF"/>
<path d="M33.4581 23.336C32.3861 23.336 31.5621 23.152 30.9861 22.784C30.4101 22.416 29.9861 22.008 29.7141 21.56H29.2821V23H26.3061V6.2H29.3301V12.464H29.7621C29.9381 12.176 30.1701 11.904 30.4581 11.648C30.7621 11.392 31.1541 11.184 31.6341 11.024C32.1301 10.848 32.7381 10.76 33.4581 10.76C34.4181 10.76 35.3061 11 36.1221 11.48C36.9381 11.944 37.5941 12.632 38.0901 13.544C38.5861 14.456 38.8341 15.56 38.8341 16.856V17.24C38.8341 18.536 38.5861 19.64 38.0901 20.552C37.5941 21.464 36.9381 22.16 36.1221 22.64C35.3061 23.104 34.4181 23.336 33.4581 23.336ZM32.5461 20.696C33.4741 20.696 34.2501 20.4 34.8741 19.808C35.4981 19.2 35.8101 18.32 35.8101 17.168V16.928C35.8101 15.776 35.4981 14.904 34.8741 14.312C34.2661 13.704 33.4901 13.4 32.5461 13.4C31.6181 13.4 30.8421 13.704 30.2181 14.312C29.5941 14.904 29.2821 15.776 29.2821 16.928V17.168C29.2821 18.32 29.5941 19.2 30.2181 19.808C30.8421 20.4 31.6181 20.696 32.5461 20.696ZM41.6108 23V11.096H44.6348V23H41.6108ZM43.1228 9.704C42.5788 9.704 42.1148 9.528 41.7308 9.176C41.3628 8.824 41.1788 8.36 41.1788 7.784C41.1788 7.208 41.3628 6.744 41.7308 6.392C42.1148 6.04 42.5788 5.864 43.1228 5.864C43.6828 5.864 44.1468 6.04 44.5148 6.392C44.8828 6.744 45.0668 7.208 45.0668 7.784C45.0668 8.36 44.8828 8.824 44.5148 9.176C44.1468 9.528 43.6828 9.704 43.1228 9.704ZM52.5458 23C51.7618 23 51.1218 22.76 50.6258 22.28C50.1458 21.784 49.9058 21.128 49.9058 20.312V13.592H46.9298V11.096H49.9058V7.4H52.9298V11.096H56.1938V13.592H52.9298V19.784C52.9298 20.264 53.1538 20.504 53.6018 20.504H55.9058V23H52.5458ZM59.8911 23L58.2111 11.096H61.2111L62.2671 20.96H62.6991L64.2351 11.096H69.0831L70.6191 20.96H71.0511L72.1071 11.096H75.1071L73.4271 23H68.4111L66.8751 13.136H66.4431L64.9071 23H59.8911ZM77.7514 23V11.096H80.7754V23H77.7514ZM79.2634 9.704C78.7194 9.704 78.2554 9.528 77.8714 9.176C77.5034 8.824 77.3194 8.36 77.3194 7.784C77.3194 7.208 77.5034 6.744 77.8714 6.392C78.2554 6.04 78.7194 5.864 79.2634 5.864C79.8234 5.864 80.2874 6.04 80.6554 6.392C81.0234 6.744 81.2074 7.208 81.2074 7.784C81.2074 8.36 81.0234 8.824 80.6554 9.176C80.2874 9.528 79.8234 9.704 79.2634 9.704ZM89.0704 23.336C87.5184 23.336 86.2464 23 85.2544 22.328C84.2624 21.656 83.6624 20.696 83.4544 19.448L86.2384 18.728C86.3504 19.288 86.5344 19.728 86.7904 20.048C87.0624 20.368 87.3904 20.6 87.7744 20.744C88.1744 20.872 88.6064 20.936 89.0704 20.936C89.7744 20.936 90.2944 20.816 90.6304 20.576C90.9664 20.32 91.1344 20.008 91.1344 19.64C91.1344 19.272 90.9744 18.992 90.6544 18.8C90.3344 18.592 89.8224 18.424 89.1184 18.296L88.4464 18.176C87.6144 18.016 86.8544 17.8 86.1664 17.528C85.4784 17.24 84.9264 16.848 84.5104 16.352C84.0944 15.856 83.8864 15.216 83.8864 14.432C83.8864 13.248 84.3184 12.344 85.1824 11.72C86.0464 11.08 87.1824 10.76 88.5904 10.76C89.9184 10.76 91.0224 11.056 91.9024 11.648C92.7824 12.24 93.3584 13.016 93.6304 13.976L90.8224 14.84C90.6944 14.232 90.4304 13.8 90.0304 13.544C89.6464 13.288 89.1664 13.16 88.5904 13.16C88.0144 13.16 87.5744 13.264 87.2704 13.472C86.9664 13.664 86.8144 13.936 86.8144 14.288C86.8144 14.672 86.9744 14.96 87.2944 15.152C87.6144 15.328 88.0464 15.464 88.5904 15.56L89.2624 15.68C90.1584 15.84 90.9664 16.056 91.6864 16.328C92.4224 16.584 92.9984 16.96 93.4144 17.456C93.8464 17.936 94.0624 18.592 94.0624 19.424C94.0624 20.672 93.6064 21.64 92.6944 22.328C91.7984 23 90.5904 23.336 89.0704 23.336ZM102.136 23.336C100.952 23.336 99.9043 23.088 98.9923 22.592C98.0963 22.08 97.3923 21.368 96.8803 20.456C96.3843 19.528 96.1363 18.44 96.1363 17.192V16.904C96.1363 15.656 96.3843 14.576 96.8803 13.664C97.3763 12.736 98.0723 12.024 98.9683 11.528C99.8643 11.016 100.904 10.76 102.088 10.76C103.256 10.76 104.272 11.024 105.136 11.552C106 12.064 106.672 12.784 107.152 13.712C107.632 14.624 107.872 15.688 107.872 16.904V17.936H99.2083C99.2403 18.752 99.5443 19.416 100.12 19.928C100.696 20.44 101.4 20.696 102.232 20.696C103.08 20.696 103.704 20.512 104.104 20.144C104.504 19.776 104.808 19.368 105.016 18.92L107.488 20.216C107.264 20.632 106.936 21.088 106.504 21.584C106.088 22.064 105.528 22.48 104.824 22.832C104.12 23.168 103.224 23.336 102.136 23.336ZM99.2323 15.68H104.8C104.736 14.992 104.456 14.44 103.96 14.024C103.48 13.608 102.848 13.4 102.064 13.4C101.248 13.4 100.6 13.608 100.12 14.024C99.6403 14.44 99.3443 14.992 99.2323 15.68Z" fill="#6E61FF"/>
<path d="M109.677 23V20.68H108.861V20.2H111.021V20.68H110.205V23H109.677ZM111.381 23V20.2H112.361L112.845 22.64H112.917L113.401 20.2H114.381V23H113.869V20.588H113.797L113.317 23H112.445L111.965 20.588H111.893V23H111.381Z" fill="#6E61FF"/>
</svg>
