<svg width="78" height="81" viewBox="0 0 78 81" fill="none" xmlns="http://www.w3.org/2000/svg">
<path d="M22.5135 13.9929C20.4162 1.9432 37.2045 -3.24116 42.2665 7.893C45.4647 14.9276 53.9277 17.815 60.7586 14.2022C71.5705 8.48402 81.689 22.8486 72.664 31.1035C66.962 36.319 66.8311 45.26 72.3779 50.6402C81.1573 59.1559 70.6226 73.218 59.9828 67.1857C53.2606 63.3745 44.7167 66.0129 41.3139 72.9508C35.928 83.932 19.2987 78.2583 21.7479 66.2752C23.2953 58.7042 18.1458 51.3938 10.496 50.3015C-1.61206 48.5726 -1.35481 31.0039 10.7987 29.6303C18.4772 28.7624 23.8386 21.6059 22.5135 13.9929ZM44.8496 51.2915C50.8549 49.437 54.2199 43.0653 52.3654 37.0599C50.5109 31.0545 44.1392 27.6896 38.1338 29.5441C32.1284 31.3986 28.7634 37.7703 30.6179 43.7757C32.4725 49.7811 38.8442 53.146 44.8496 51.2915Z" fill="#2F80ED" stroke="#111111" stroke-width="3"/>
</svg>
