<svg width="371" height="836" viewBox="0 0 371 836" fill="none" xmlns="http://www.w3.org/2000/svg">
<path fill-rule="evenodd" clip-rule="evenodd" d="M411 434.032L320.687 552.284L320.08 553.079L319.285 552.472L1.393 309.687L0.598267 309.08L1.20523 308.285L236.653 0L239.169 0L219.21 26.1336L252.942 51.8958L278.704 18.1638L254.921 0L258.216 0L411 116.686V119.202L386.258 100.306L360.496 134.038L394.228 159.8L411 137.839V141.134L395.817 161.014L411 172.61V175.126L394.603 162.603L368.841 196.335L402.573 222.097L411 211.064V214.359L404.163 223.311L411 228.533V231.05L402.949 224.901L377.186 258.633L410.918 284.395L411 284.288V287.583L385.532 320.93L411 340.381V342.898L384.318 322.52L358.556 356.252L392.288 382.014L411 357.513V360.808L393.877 383.228L411 396.305V398.822L392.663 384.817L366.901 418.549L400.633 444.311L411 430.737V434.032ZM254.532 53.1097L280.294 19.3778L314.026 45.1399L288.264 78.8718L254.532 53.1097ZM289.853 80.0858L315.615 46.3538L349.347 72.116L323.585 105.848L289.853 80.0858ZM325.174 107.062L350.937 73.3299L384.668 99.0921L358.906 132.824L325.174 107.062ZM365.687 420.139L399.419 445.901L373.657 479.633L339.925 453.871L365.687 420.139ZM338.711 455.46L372.443 481.222L346.681 514.954L312.949 489.192L338.711 455.46ZM311.735 490.781L345.467 516.544L319.705 550.275L285.973 524.513L311.735 490.781ZM310.145 489.567L284.383 523.299L250.651 497.537L276.413 463.805L310.145 489.567ZM274.824 462.591L249.062 496.323L215.33 470.561L241.092 436.829L274.824 462.591ZM239.503 435.615L213.741 469.347L180.009 443.585L205.771 409.853L239.503 435.615ZM204.181 408.639L178.419 442.371L144.687 416.609L170.449 382.877L204.181 408.639ZM168.86 381.663L143.098 415.395L109.366 389.633L135.128 355.901L168.86 381.663ZM133.538 354.687L107.776 388.419L74.0444 362.657L99.8066 328.925L133.538 354.687ZM98.2171 327.711L72.455 361.443L38.723 335.681L64.4852 301.949L98.2171 327.711ZM62.8957 300.735L37.1336 334.467L3.40166 308.705L29.1638 274.973L62.8957 300.735ZM64.1097 299.145L30.3777 273.383L56.1399 239.651L89.8718 265.414L64.1097 299.145ZM91.0857 263.824L57.3538 238.062L83.116 204.33L116.848 230.092L91.0857 263.824ZM118.062 228.503L84.3299 202.741L110.092 169.009L143.824 194.771L118.062 228.503ZM145.038 193.181L111.306 167.419L137.068 133.687L170.8 159.449L145.038 193.181ZM172.014 157.86L138.282 132.098L164.044 98.3658L197.776 124.128L172.014 157.86ZM198.99 122.539L165.258 96.7764L191.02 63.0444L224.752 88.8066L198.99 122.539ZM225.966 87.2171L192.234 61.455L217.996 27.7231L251.728 53.4852L225.966 87.2171ZM227.556 88.431L253.318 54.6992L287.05 80.4613L261.287 114.193L227.556 88.431ZM262.877 115.407L288.639 81.6752L322.371 107.437L296.609 141.169L262.877 115.407ZM298.198 142.383L323.96 108.651L357.692 134.413L331.93 168.145L298.198 142.383ZM333.52 169.359L359.282 135.627L393.014 161.39L367.252 195.121L333.52 169.359ZM357.342 357.841L391.074 383.603L365.311 417.335L331.58 391.573L357.342 357.841ZM330.366 393.162L364.098 418.925L338.335 452.657L304.603 426.894L330.366 393.162ZM303.39 428.484L337.121 454.246L311.359 487.978L277.627 462.216L303.39 428.484ZM301.8 427.27L276.038 461.002L242.306 435.24L268.068 401.508L301.8 427.27ZM266.479 400.294L240.717 434.026L206.985 408.264L232.747 374.532L266.479 400.294ZM231.157 373.318L205.395 407.05L171.663 381.288L197.425 347.556L231.157 373.318ZM195.836 346.342L170.074 380.074L136.342 354.312L162.104 320.58L195.836 346.342ZM160.515 319.366L134.752 353.098L101.02 327.335L126.783 293.604L160.515 319.366ZM125.193 292.39L99.431 326.122L65.6991 300.359L91.4613 266.627L125.193 292.39ZM126.407 290.8L92.6752 265.038L118.437 231.306L152.169 257.068L126.407 290.8ZM153.383 255.479L119.651 229.717L145.413 195.985L179.145 221.747L153.383 255.479ZM180.359 220.157L146.627 194.395L172.389 160.663L206.121 186.425L180.359 220.157ZM207.335 184.836L173.603 159.074L199.366 125.342L233.097 151.104L207.335 184.836ZM234.311 149.515L200.58 123.752L226.342 90.0205L260.074 115.783L234.311 149.515ZM235.901 150.729L261.663 116.997L295.395 142.759L269.633 176.491L235.901 150.729ZM271.222 177.705L296.984 143.973L330.716 169.735L304.954 203.467L271.222 177.705ZM306.544 204.681L332.306 170.949L366.038 196.711L340.276 230.443L306.544 204.681ZM341.865 231.657L367.627 197.925L401.359 223.687L375.597 257.419L341.865 231.657ZM375.972 260.222L409.704 285.984L383.942 319.716L350.21 293.954L375.972 260.222ZM348.996 295.544L382.728 321.306L356.966 355.038L323.234 329.276L348.996 295.544ZM322.02 330.865L355.752 356.627L329.99 390.359L296.258 364.597L322.02 330.865ZM295.044 366.186L328.776 391.949L303.014 425.68L269.282 399.918L295.044 366.186ZM293.455 364.973L267.693 398.704L233.961 372.942L259.723 339.21L293.455 364.973ZM258.133 337.996L232.371 371.728L198.639 345.966L224.401 312.234L258.133 337.996ZM222.812 311.02L197.05 344.752L163.318 318.99L189.08 285.258L222.812 311.02ZM187.491 284.044L161.728 317.776L127.997 292.014L153.759 258.282L187.491 284.044ZM188.705 282.455L154.973 256.693L180.735 222.961L214.467 248.723L188.705 282.455ZM215.681 247.133L181.949 221.371L207.711 187.639L241.443 213.402L215.681 247.133ZM242.657 211.812L208.925 186.05L234.687 152.318L268.419 178.08L242.657 211.812ZM244.246 213.026L270.008 179.294L303.74 205.056L277.978 238.788L244.246 213.026ZM279.568 240.002L305.33 206.27L339.062 232.032L313.299 265.764L279.568 240.002ZM314.889 266.978L340.651 233.246L374.383 259.008L348.621 292.74L314.889 266.978ZM313.675 268.568L347.407 294.33L321.645 328.062L287.913 302.3L313.675 268.568ZM286.699 303.889L320.431 329.651L294.669 363.383L260.937 337.621L286.699 303.889ZM285.109 302.675L259.347 336.407L225.615 310.645L251.378 276.913L285.109 302.675ZM249.788 275.699L224.026 309.431L190.294 283.669L216.056 249.937L249.788 275.699ZM251.002 274.11L217.27 248.347L243.032 214.615L276.764 240.378L251.002 274.11ZM252.591 275.323L278.354 241.592L312.086 267.354L286.323 301.086L252.591 275.323Z" fill="white"/>
<path d="M296.063 687.546L239.146 654.932L303.053 669.737L304.651 670.107L303.531 668.909L258.756 620.967L315.459 653.951L316.877 654.776L316.16 653.301L287.506 594.291L331.968 642.523L333.079 643.729L332.83 642.108L322.841 577.274L351.111 636.469L351.818 637.949L352.057 636.327L361.622 571.429L370.5 631.66V797.902L362.101 770.354L361.622 768.786L361.144 770.354L342.013 833.101L342.227 767.503L342.232 765.863L341.312 767.221L304.536 821.542L324.076 758.92L324.564 757.354L323.285 758.381L272.131 799.448L309.261 745.369L310.189 744.017L308.665 744.621L247.679 768.786L299.099 728.053L300.384 727.035L298.75 727.163L233.35 732.277L294.492 708.51L296.021 707.916L294.421 707.556L230.419 693.167L295.851 688.479L297.486 688.362L296.063 687.546Z" fill="#F2994A" stroke="black"/>
</svg>
