<svg width="59" height="57" viewBox="0 0 59 57" fill="none" xmlns="http://www.w3.org/2000/svg">
<g filter="url(#filter0_d_431_3641)">
<path d="M49.2465 37.2252C49.2821 36.9249 49.7179 36.9249 49.7535 37.2252L50.0524 39.7443C50.4384 42.9971 53.0029 45.5616 56.2557 45.9476L58.7748 46.2465C59.0751 46.2821 59.0751 46.7179 58.7748 46.7535L56.2557 47.0524C53.0029 47.4384 50.4384 50.0029 50.0524 53.2557L49.7535 55.7748C49.7179 56.0751 49.2821 56.0751 49.2465 55.7748L48.9476 53.2557C48.5616 50.0029 45.9971 47.4384 42.7443 47.0524L40.2252 46.7535C39.9249 46.7179 39.9249 46.2821 40.2252 46.2465L42.7443 45.9476C45.9971 45.5616 48.5616 42.9971 48.9476 39.7443L49.2465 37.2252Z" fill="#F2994A"/>
<path d="M42.8032 46.5559L42.3321 46.5L42.8032 46.4441C46.2854 46.0309 49.0309 43.2854 49.4441 39.8032L49.5 39.3321L49.5559 39.8032C49.9691 43.2854 52.7146 46.0309 56.1968 46.4441L56.6679 46.5L56.1968 46.5559C52.7146 46.9691 49.9691 49.7146 49.5559 53.1968L49.5 53.6679L49.4441 53.1968C49.0309 49.7146 46.2854 46.9691 42.8032 46.5559Z" stroke="#031926" stroke-linejoin="round"/>
</g>
<mask id="path-3-inside-1_431_3641" fill="white">
<path d="M33.6405 22.3392C34.2295 22.4602 34.8144 22.3824 35.3252 22.1509C36.0939 21.8026 36.6931 21.1069 36.8816 20.2244C36.8824 20.2224 36.883 20.2203 36.8836 20.2182C36.8841 20.2161 36.8845 20.214 36.885 20.212L36.8855 20.2088C36.886 20.2066 36.8864 20.2045 36.8868 20.2024L37.5379 17.0439L40.3421 18.6367C40.3449 18.6385 40.3476 18.6397 40.3503 18.6411C40.3516 18.6418 40.3528 18.6425 40.3541 18.6433C41.6701 19.3829 43.3444 18.9186 44.0907 17.6052C44.8383 16.2913 44.3786 14.6142 43.0687 13.8614L43.0657 13.8594C43.0631 13.8577 43.0611 13.8564 43.0585 13.8554L40.2574 12.2596L42.6385 10.0848C43.757 9.06318 43.8362 7.32003 42.8145 6.20096C41.793 5.08193 40.0514 5.00165 38.9311 6.02255L36.5485 8.19363L35.2153 5.25492C34.5886 3.87542 32.9566 3.26093 31.577 3.88608C30.1974 4.51123 29.5835 6.14345 30.2082 7.52537L31.5365 10.4633L28.3332 10.8235C28.332 10.824 28.3306 10.8243 28.3291 10.8246C28.3271 10.8249 28.325 10.825 28.3232 10.8249C26.8218 10.9981 25.739 12.3582 25.907 13.8611C26.075 15.3639 27.4306 16.4508 28.9316 16.29C28.933 16.2898 28.9342 16.2897 28.9355 16.2897L28.9409 16.2894L28.9433 16.2892L32.147 15.9333L31.5003 19.0915C31.5002 19.093 31.4999 19.0947 31.4995 19.0963C31.4991 19.098 31.4988 19.0997 31.4987 19.1012C31.1999 20.5831 32.1597 22.0351 33.6405 22.3392Z"/>
</mask>
<path d="M33.6405 22.3392C34.2295 22.4602 34.8144 22.3824 35.3252 22.1509C36.0939 21.8026 36.6931 21.1069 36.8816 20.2244C36.8824 20.2224 36.883 20.2203 36.8836 20.2182C36.8841 20.2161 36.8845 20.214 36.885 20.212L36.8855 20.2088C36.886 20.2066 36.8864 20.2045 36.8868 20.2024L37.5379 17.0439L40.3421 18.6367C40.3449 18.6385 40.3476 18.6397 40.3503 18.6411C40.3516 18.6418 40.3528 18.6425 40.3541 18.6433C41.6701 19.3829 43.3444 18.9186 44.0907 17.6052C44.8383 16.2913 44.3786 14.6142 43.0687 13.8614L43.0657 13.8594C43.0631 13.8577 43.0611 13.8564 43.0585 13.8554L40.2574 12.2596L42.6385 10.0848C43.757 9.06318 43.8362 7.32003 42.8145 6.20096C41.793 5.08193 40.0514 5.00165 38.9311 6.02255L36.5485 8.19363L35.2153 5.25492C34.5886 3.87542 32.9566 3.26093 31.577 3.88608C30.1974 4.51123 29.5835 6.14345 30.2082 7.52537L31.5365 10.4633L28.3332 10.8235C28.332 10.824 28.3306 10.8243 28.3291 10.8246C28.3271 10.8249 28.325 10.825 28.3232 10.8249C26.8218 10.9981 25.739 12.3582 25.907 13.8611C26.075 15.3639 27.4306 16.4508 28.9316 16.29C28.933 16.2898 28.9342 16.2897 28.9355 16.2897L28.9409 16.2894L28.9433 16.2892L32.147 15.9333L31.5003 19.0915C31.5002 19.093 31.4999 19.0947 31.4995 19.0963C31.4991 19.098 31.4988 19.0997 31.4987 19.1012C31.1999 20.5831 32.1597 22.0351 33.6405 22.3392Z" fill="#2F80ED"/>
<path d="M33.6405 22.3392L33.8417 21.3596L33.8416 21.3596L33.6405 22.3392ZM36.8816 20.2244L35.9457 19.8722L35.9193 19.9422L35.9037 20.0154L36.8816 20.2244ZM36.8836 20.2182L37.8512 20.4705L37.855 20.4562L37.8582 20.4419L36.8836 20.2182ZM36.885 20.212L37.8661 20.4055L37.8682 20.3942L36.885 20.212ZM36.8855 20.2088L35.9061 20.0068L35.9041 20.0167L35.9023 20.0265L36.8855 20.2088ZM36.8868 20.2024L35.9073 20.0005L35.9057 20.0089L36.8868 20.2024ZM37.5379 17.0439L38.0318 16.1744L36.8361 15.4952L36.5585 16.842L37.5379 17.0439ZM40.3421 18.6367L40.8766 17.7915L40.8566 17.7789L40.836 17.7672L40.3421 18.6367ZM40.3503 18.6411L39.8785 19.5229L39.8891 19.5284L40.3503 18.6411ZM40.3541 18.6433L39.8374 19.4994L39.8506 19.5075L39.8642 19.5151L40.3541 18.6433ZM44.0907 17.6052L43.2216 17.1106L43.2213 17.1111L44.0907 17.6052ZM43.0687 13.8614L42.5189 14.6967L42.5442 14.7133L42.5704 14.7284L43.0687 13.8614ZM43.0657 13.8594L42.512 14.6921L42.5159 14.6947L43.0657 13.8594ZM43.0585 13.8554L42.5634 14.7243L42.6322 14.7635L42.7063 14.7914L43.0585 13.8554ZM40.2574 12.2596L39.583 11.5212L38.5683 12.4481L39.7624 13.1285L40.2574 12.2596ZM42.6385 10.0848L41.9641 9.34639L41.9641 9.3464L42.6385 10.0848ZM42.8145 6.20096L42.076 6.87518L42.076 6.8752L42.8145 6.20096ZM38.9311 6.02255L39.6046 6.76172L39.6047 6.76169L38.9311 6.02255ZM36.5485 8.19363L35.6378 8.60677L36.2058 9.85877L37.222 8.9328L36.5485 8.19363ZM35.2153 5.25492L36.1259 4.84178L36.1257 4.8413L35.2153 5.25492ZM30.2082 7.52537L29.297 7.93729L29.297 7.93734L30.2082 7.52537ZM31.5365 10.4633L31.6482 11.457L33.0138 11.3035L32.4477 10.0513L31.5365 10.4633ZM28.3332 10.8235L28.2214 9.82972L28.0644 9.84738L27.9204 9.91261L28.3332 10.8235ZM28.3291 10.8246L28.1796 9.8357L28.166 9.83794L28.3291 10.8246ZM28.3232 10.8249L28.3593 9.82558L28.2838 9.82285L28.2087 9.83151L28.3232 10.8249ZM25.907 13.8611L26.9008 13.7501L26.9008 13.75L25.907 13.8611ZM28.9316 16.29L29.0382 17.2843L29.0495 17.283L29.0608 17.2816L28.9316 16.29ZM28.9355 16.2897L28.9586 17.2894L28.9764 17.289L28.9942 17.288L28.9355 16.2897ZM28.9409 16.2894L28.9996 17.2877L29.0143 17.2868L29.0289 17.2855L28.9409 16.2894ZM28.9433 16.2892L29.0314 17.2853L29.0426 17.2843L29.0537 17.283L28.9433 16.2892ZM32.147 15.9333L33.1267 16.1339L33.4024 14.7877L32.0366 14.9394L32.147 15.9333ZM31.5003 19.0915L30.5206 18.8908L30.5042 18.9713L30.501 19.0533L31.5003 19.0915ZM31.4995 19.0963L32.4746 19.3181L32.4762 19.3108L31.4995 19.0963ZM31.4987 19.1012L32.479 19.2989L32.4949 19.2199L32.498 19.1394L31.4987 19.1012ZM33.4392 23.3187C34.2422 23.4837 35.0417 23.3773 35.7379 23.0618L34.9124 21.2401C34.5871 21.3875 34.2168 21.4367 33.8417 21.3596L33.4392 23.3187ZM35.7379 23.0618C36.7818 22.5887 37.6015 21.6409 37.8595 20.4333L35.9037 20.0154C35.7846 20.5729 35.406 21.0164 34.9124 21.2401L35.7379 23.0618ZM37.8175 20.5766C37.8307 20.5417 37.8419 20.5063 37.8512 20.4705L35.9159 19.9659C35.9242 19.9343 35.9341 19.903 35.9457 19.8722L37.8175 20.5766ZM37.8582 20.4419C37.8583 20.4415 37.8594 20.4367 37.8606 20.4314C37.8619 20.4257 37.8639 20.4166 37.866 20.4055L35.9039 20.0184C35.9056 20.0094 35.9072 20.0024 35.908 19.9987C35.9087 19.9954 35.9093 19.9928 35.9089 19.9945L37.8582 20.4419ZM37.8682 20.3942L37.8688 20.391L35.9023 20.0265L35.9017 20.0297L37.8682 20.3942ZM37.8649 20.4107C37.867 20.4006 37.8686 20.3924 37.8689 20.3906C37.869 20.3903 37.869 20.39 37.869 20.3898C37.8691 20.3895 37.8691 20.3896 37.8691 20.3895C37.8691 20.3893 37.8691 20.3896 37.869 20.39C37.8689 20.3907 37.8684 20.393 37.8679 20.396L35.9057 20.0089C35.9049 20.0129 35.9042 20.0162 35.9039 20.018C35.9037 20.0189 35.9036 20.0197 35.9035 20.0201C35.9035 20.0202 35.9035 20.0203 35.9035 20.0204C35.9035 20.0204 35.9034 20.0205 35.9034 20.0205C35.9034 20.0206 35.9034 20.0206 35.9034 20.0206C35.9034 20.0205 35.9037 20.0189 35.9042 20.0167C35.9046 20.0145 35.9053 20.0111 35.9061 20.0068L37.8649 20.4107ZM37.8662 20.4043L38.5173 17.2458L36.5585 16.842L35.9074 20.0005L37.8662 20.4043ZM37.044 17.9134L39.8482 19.5062L40.836 17.7672L38.0318 16.1744L37.044 17.9134ZM39.8075 19.4818C39.8441 19.505 39.8743 19.5208 39.8874 19.5276C39.8921 19.53 39.899 19.5335 39.8954 19.5317C39.8945 19.5312 39.8875 19.5277 39.8786 19.5229L40.822 17.7594C40.8117 17.7539 40.8034 17.7496 40.8011 17.7485C40.7961 17.746 40.8018 17.7488 40.805 17.7505C40.8154 17.7559 40.8429 17.7702 40.8766 17.7915L39.8075 19.4818ZM39.8891 19.5284C39.8636 19.5152 39.8446 19.5038 39.8374 19.4994L40.8708 17.7872C40.861 17.7812 40.8395 17.7684 40.8115 17.7538L39.8891 19.5284ZM39.8642 19.5151C41.6598 20.5242 43.9417 19.8915 44.9602 18.0992L43.2213 17.1111C42.7471 17.9457 41.6805 18.2416 40.844 17.7715L39.8642 19.5151ZM44.9599 18.0997C45.9806 16.3059 45.3529 14.0207 43.567 12.9943L42.5704 14.7284C43.4044 15.2077 43.6961 16.2768 43.2216 17.1106L44.9599 18.0997ZM43.6185 13.026L43.6154 13.024L42.5159 14.6947L42.5189 14.6967L43.6185 13.026ZM43.6193 13.0266C43.605 13.0171 43.5249 12.9625 43.4107 12.9195L42.7063 14.7914C42.5974 14.7504 42.5213 14.6983 42.512 14.6921L43.6193 13.0266ZM43.5535 12.9866L40.7525 11.3907L39.7624 13.1285L42.5634 14.7243L43.5535 12.9866ZM40.9318 12.9979L43.3129 10.8231L41.9641 9.3464L39.583 11.5212L40.9318 12.9979ZM43.3129 10.8231C44.8391 9.42913 44.947 7.05358 43.5531 5.52673L42.076 6.8752C42.7254 7.58648 42.6748 8.69723 41.9641 9.34639L43.3129 10.8231ZM43.5531 5.52675C42.1594 4.00011 39.7858 3.89073 38.2575 5.28342L39.6047 6.76169C40.317 6.11256 41.4266 6.16376 42.076 6.87518L43.5531 5.52675ZM38.2576 5.28339L35.8749 7.45447L37.222 8.9328L39.6046 6.76172L38.2576 5.28339ZM37.4591 7.7805L36.1259 4.84178L34.3046 5.66805L35.6378 8.60677L37.4591 7.7805ZM36.1257 4.8413C35.2711 2.96013 33.0473 2.12191 31.1642 2.97524L31.9897 4.79693C32.8658 4.39994 33.906 4.7907 34.3048 5.66854L36.1257 4.8413ZM31.1642 2.97524C29.2808 3.82869 28.4454 6.05353 29.297 7.93729L31.1194 7.11345C30.7216 6.23337 31.114 5.19378 31.9897 4.79693L31.1642 2.97524ZM29.297 7.93734L30.6253 10.8753L32.4477 10.0513L31.1194 7.1134L29.297 7.93734ZM31.4247 9.46954L28.2214 9.82972L28.4449 11.8172L31.6482 11.457L31.4247 9.46954ZM27.9204 9.91261C27.9833 9.8841 28.038 9.86729 28.0757 9.85732C28.1152 9.84688 28.1504 9.8402 28.1796 9.83579L28.4785 11.8133C28.5279 11.8059 28.6289 11.7873 28.7459 11.7343L27.9204 9.91261ZM28.166 9.83794C28.2028 9.83185 28.2362 9.82851 28.2652 9.82674C28.2941 9.82498 28.3256 9.82436 28.3593 9.82558L28.2872 11.8243C28.3515 11.8266 28.4206 11.823 28.4922 11.8112L28.166 9.83794ZM28.2087 9.83151C26.1598 10.0678 24.6841 11.922 24.9132 13.9722L26.9008 13.75C26.794 12.7945 27.4839 11.9284 28.4378 11.8183L28.2087 9.83151ZM24.9132 13.9722C25.1423 16.0222 26.9899 17.5038 29.0382 17.2843L28.825 15.2956C27.8714 15.3979 27.0076 14.7057 26.9008 13.7501L24.9132 13.9722ZM29.0608 17.2816C29.0077 17.2885 28.9658 17.2893 28.9586 17.2894L28.9123 15.29C28.9027 15.2902 28.8583 15.2911 28.8024 15.2983L29.0608 17.2816ZM28.9942 17.288L28.9996 17.2877L28.8821 15.2911L28.8767 15.2914L28.9942 17.288ZM29.0289 17.2855L29.0314 17.2853L28.8552 15.293L28.8528 15.2933L29.0289 17.2855ZM29.0537 17.283L32.2575 16.9272L32.0366 14.9394L28.8329 15.2953L29.0537 17.283ZM31.1674 15.7326L30.5206 18.8908L32.48 19.2921L33.1267 16.1339L31.1674 15.7326ZM30.501 19.0533C30.5033 18.9928 30.5108 18.9454 30.515 18.9214C30.5173 18.9083 30.5194 18.8979 30.5207 18.8918C30.5213 18.8886 30.5219 18.886 30.5222 18.8845C30.5224 18.8837 30.5225 18.883 30.5226 18.8826C30.5227 18.8822 30.5228 18.8819 30.5228 18.8819L32.4762 19.3108C32.4763 19.3105 32.4775 19.305 32.4789 19.2984C32.4803 19.2915 32.4826 19.2802 32.485 19.2663C32.4895 19.2407 32.4972 19.1917 32.4996 19.1296L30.501 19.0533ZM30.5244 18.8745C30.524 18.8764 30.519 18.8978 30.5143 18.9246C30.5095 18.9517 30.5018 19.0009 30.4994 19.0631L32.498 19.1394C32.4957 19.2 32.4882 19.2477 32.4837 19.2731C32.4792 19.2982 32.4746 19.318 32.4746 19.3181L30.5244 18.8745ZM30.5184 18.9036C30.1109 20.9248 31.4182 22.9037 33.4393 23.3187L33.8416 21.3596C32.9011 21.1665 32.2889 20.2414 32.479 19.2989L30.5184 18.9036Z" fill="black" mask="url(#path-3-inside-1_431_3641)"/>
<path d="M7.24074 40.4329L7.98997 40L7.24074 39.5671L0.682986 35.7779L5.33557 27.722L11.8974 31.5049L12.6467 31.9368L12.6471 31.0719L12.6508 23.5H21.9563L21.96 31.0719L21.9605 31.9368L22.7098 31.5048L29.2715 27.722L33.9241 35.7779L27.3663 39.5671L26.6171 40L27.3663 40.4329L33.9241 44.2221L29.2715 52.278L22.7098 48.4952L21.9605 48.0632L21.96 48.9281L21.9563 56.5H12.6508L12.6471 48.9281L12.6467 48.0632L11.8974 48.4952L5.33557 52.278L0.682987 44.2221L7.24074 40.4329Z" fill="#F8B3B8" stroke="black"/>
<defs>
<filter id="filter0_d_431_3641" x="39.9" y="37" width="19.1" height="19.3" filterUnits="userSpaceOnUse" color-interpolation-filters="sRGB">
<feFlood flood-opacity="0" result="BackgroundImageFix"/>
<feColorMatrix in="SourceAlpha" type="matrix" values="0 0 0 0 0 0 0 0 0 0 0 0 0 0 0 0 0 0 127 0" result="hardAlpha"/>
<feOffset dx="-0.1" dy="0.3"/>
<feComposite in2="hardAlpha" operator="out"/>
<feColorMatrix type="matrix" values="0 0 0 0 0.0117647 0 0 0 0 0.0980392 0 0 0 0 0.14902 0 0 0 1 0"/>
<feBlend mode="normal" in2="BackgroundImageFix" result="effect1_dropShadow_431_3641"/>
<feBlend mode="normal" in="SourceGraphic" in2="effect1_dropShadow_431_3641" result="shape"/>
</filter>
</defs>
</svg>
