<svg width="84" height="84" viewBox="0 0 84 84" fill="none" xmlns="http://www.w3.org/2000/svg">
<g filter="url(#filter0_d_211_3868)">
<path d="M41.3925 0.983805C41.5483 -0.327935 43.4517 -0.327935 43.6075 0.983805L44.9132 11.9881C46.5992 26.1977 57.8024 37.4008 72.0118 39.0868L83.0161 40.3925C84.328 40.5483 84.328 42.4517 83.0161 42.6075L72.0118 43.9132C57.8024 45.5992 46.5992 56.8024 44.9132 71.0118L43.6075 82.0161C43.4517 83.328 41.5483 83.328 41.3925 82.0161L40.0868 71.0118C38.4008 56.8024 27.1977 45.5992 12.9881 43.9132L1.98381 42.6075C0.672065 42.4517 0.672065 40.5483 1.98381 40.3925L12.9881 39.0868C27.1977 37.4008 38.4008 26.1977 40.0868 11.9881L41.3925 0.983805Z" fill="#FFBB25"/>
<path d="M41.889 1.04277C41.889 1.04275 41.889 1.04274 41.889 1.04272C41.975 0.319102 43.025 0.319086 43.111 1.04272C43.111 1.04274 43.111 1.04275 43.111 1.04277L44.4167 12.047C46.1299 26.486 57.514 37.8701 71.9529 39.5833L82.9572 40.889C83.681 40.975 83.681 42.025 82.9571 42.111L71.9529 43.4167C57.514 45.1299 46.1299 56.514 44.4167 70.9529L43.111 81.9572C43.025 82.681 41.975 82.681 41.889 81.9571L40.5833 70.9529C38.8701 56.514 27.486 45.1299 13.047 43.4167L2.04277 42.111C2.04275 42.111 2.04274 42.111 2.04272 42.111C1.31909 42.025 1.3191 40.975 2.04272 40.889C2.04274 40.889 2.04275 40.889 2.04277 40.889L13.047 39.5833C27.486 37.8701 38.8701 26.486 40.5833 12.047L41.889 1.04277Z" stroke="#031926" stroke-linejoin="round"/>
</g>
<defs>
<filter id="filter0_d_211_3868" x="0.9" y="0" width="83.1" height="83.3" filterUnits="userSpaceOnUse" color-interpolation-filters="sRGB">
<feFlood flood-opacity="0" result="BackgroundImageFix"/>
<feColorMatrix in="SourceAlpha" type="matrix" values="0 0 0 0 0 0 0 0 0 0 0 0 0 0 0 0 0 0 127 0" result="hardAlpha"/>
<feOffset dx="-0.1" dy="0.3"/>
<feComposite in2="hardAlpha" operator="out"/>
<feColorMatrix type="matrix" values="0 0 0 0 0.0117647 0 0 0 0 0.0980392 0 0 0 0 0.14902 0 0 0 1 0"/>
<feBlend mode="normal" in2="BackgroundImageFix" result="effect1_dropShadow_211_3868"/>
<feBlend mode="normal" in="SourceGraphic" in2="effect1_dropShadow_211_3868" result="shape"/>
</filter>
</defs>
</svg>
