<svg width="158" height="158" viewBox="0 0 158 158" fill="none" xmlns="http://www.w3.org/2000/svg">
<path d="M87.8185 155.837C87.8143 156.082 87.7345 156.2 87.6664 156.267C87.581 156.352 87.4399 156.425 87.2611 156.443C87.0824 156.461 86.9295 156.418 86.8288 156.352C86.7486 156.3 86.6467 156.2 86.5933 155.961L82.0124 135.4C75.9464 108.173 52.0142 88.6502 24.1243 88.1763L3.06216 87.8185C2.81672 87.8143 2.69879 87.7345 2.6313 87.6664C2.54661 87.581 2.47367 87.4398 2.45554 87.2611C2.43741 87.0825 2.48051 86.9296 2.54633 86.8289C2.59877 86.7486 2.69825 86.6467 2.93785 86.5933L23.4989 82.0124C50.7253 75.9464 70.2485 52.0142 70.7223 24.1243L71.0801 3.06216C71.0843 2.81672 71.1642 2.69879 71.2322 2.6313C71.3176 2.54661 71.4588 2.47367 71.6375 2.45554C71.8161 2.43741 71.9691 2.48052 72.0697 2.54633C72.15 2.59877 72.2519 2.69825 72.3053 2.93785L76.8862 23.4989C82.9522 50.7253 106.884 70.2485 134.775 70.7223L155.837 71.0801C156.082 71.0843 156.2 71.1641 156.267 71.2322C156.352 71.3176 156.425 71.4587 156.443 71.6375C156.461 71.8162 156.418 71.9691 156.352 72.0698C156.3 72.15 156.2 72.2519 155.961 72.3053L135.4 76.8862C108.173 82.9522 88.6502 106.884 88.1764 134.775L87.8185 155.837Z" fill="#F2994A" stroke="#111111" stroke-width="3"/>
</svg>
