<svg width="155" height="30" viewBox="0 0 155 30" fill="none" xmlns="http://www.w3.org/2000/svg">
<path d="M0 0.000976562H30V10.001V30.001H20V16.9241L6.92308 30.001H0V22.6933L12.6923 10.001H0V0.000976562Z" fill="white"/>
<path d="M49.776 26.449C48.3467 26.449 47.248 26.2036 46.48 25.713C45.712 25.2223 45.1467 24.6783 44.784 24.081H44.208V26.001H40.24V3.60098H44.272V11.953H44.848C45.0827 11.569 45.392 11.2063 45.776 10.865C46.1813 10.5236 46.704 10.2463 47.344 10.033C48.0053 9.79831 48.816 9.68097 49.776 9.68097C51.056 9.68097 52.24 10.001 53.328 10.641C54.416 11.2596 55.2907 12.177 55.952 13.393C56.6133 14.609 56.944 16.081 56.944 17.809V18.321C56.944 20.049 56.6133 21.521 55.952 22.737C55.2907 23.953 54.416 24.881 53.328 25.521C52.24 26.1396 51.056 26.449 49.776 26.449ZM48.56 22.929C49.7973 22.929 50.832 22.5343 51.664 21.745C52.496 20.9343 52.912 19.761 52.912 18.225V17.905C52.912 16.369 52.496 15.2063 51.664 14.417C50.8533 13.6063 49.8187 13.201 48.56 13.201C47.3227 13.201 46.288 13.6063 45.456 14.417C44.624 15.2063 44.208 16.369 44.208 17.905V18.225C44.208 19.761 44.624 20.9343 45.456 21.745C46.288 22.5343 47.3227 22.929 48.56 22.929ZM60.6463 26.001V10.129H64.6783V26.001H60.6463ZM62.6623 8.27298C61.9369 8.27298 61.3183 8.03831 60.8063 7.56898C60.3156 7.09964 60.0703 6.48098 60.0703 5.71298C60.0703 4.94498 60.3156 4.32631 60.8063 3.85698C61.3183 3.38764 61.9369 3.15298 62.6623 3.15298C63.4089 3.15298 64.0276 3.38764 64.5183 3.85698C65.0089 4.32631 65.2543 4.94498 65.2543 5.71298C65.2543 6.48098 65.0089 7.09964 64.5183 7.56898C64.0276 8.03831 63.4089 8.27298 62.6623 8.27298ZM75.2263 26.001C74.1809 26.001 73.3276 25.681 72.6663 25.041C72.0263 24.3796 71.7063 23.505 71.7063 22.417V13.457H67.7383V10.129H71.7063V5.20098H75.7383V10.129H80.0903V13.457H75.7383V21.713C75.7383 22.353 76.0369 22.673 76.6343 22.673H79.7063V26.001H75.2263ZM85.02 26.001L82.78 10.129H86.78L88.188 23.281H88.764L90.812 10.129H97.276L99.324 23.281H99.9L101.308 10.129H105.308L103.068 26.001H96.38L94.332 12.849H93.756L91.708 26.001H85.02ZM108.834 26.001V10.129H112.866V26.001H108.834ZM110.85 8.27298C110.124 8.27298 109.506 8.03831 108.994 7.56898C108.503 7.09964 108.258 6.48098 108.258 5.71298C108.258 4.94498 108.503 4.32631 108.994 3.85698C109.506 3.38764 110.124 3.15298 110.85 3.15298C111.596 3.15298 112.215 3.38764 112.706 3.85698C113.196 4.32631 113.442 4.94498 113.442 5.71298C113.442 6.48098 113.196 7.09964 112.706 7.56898C112.215 8.03831 111.596 8.27298 110.85 8.27298ZM123.926 26.449C121.856 26.449 120.16 26.001 118.838 25.105C117.515 24.209 116.715 22.929 116.438 21.265L120.15 20.305C120.299 21.0516 120.544 21.6383 120.886 22.065C121.248 22.4916 121.686 22.801 122.198 22.993C122.731 23.1636 123.307 23.249 123.926 23.249C124.864 23.249 125.558 23.089 126.006 22.769C126.454 22.4276 126.678 22.0116 126.678 21.521C126.678 21.0303 126.464 20.657 126.038 20.401C125.611 20.1236 124.928 19.8996 123.99 19.729L123.094 19.569C121.984 19.3556 120.971 19.0676 120.054 18.705C119.136 18.321 118.4 17.7983 117.846 17.137C117.291 16.4756 117.014 15.6223 117.014 14.577C117.014 12.9983 117.59 11.793 118.742 10.961C119.894 10.1076 121.408 9.68097 123.286 9.68097C125.056 9.68097 126.528 10.0756 127.702 10.865C128.875 11.6543 129.643 12.689 130.006 13.969L126.262 15.121C126.091 14.3103 125.739 13.7343 125.206 13.393C124.694 13.0516 124.054 12.881 123.286 12.881C122.518 12.881 121.931 13.0196 121.526 13.297C121.12 13.553 120.918 13.9156 120.918 14.385C120.918 14.897 121.131 15.281 121.558 15.537C121.984 15.7716 122.56 15.953 123.286 16.081L124.182 16.241C125.376 16.4543 126.454 16.7423 127.414 17.105C128.395 17.4463 129.163 17.9476 129.718 18.609C130.294 19.249 130.582 20.1236 130.582 21.233C130.582 22.897 129.974 24.1876 128.758 25.105C127.563 26.001 125.952 26.449 123.926 26.449ZM141.347 26.449C139.768 26.449 138.371 26.1183 137.155 25.457C135.96 24.7743 135.022 23.825 134.339 22.609C133.678 21.3716 133.347 19.921 133.347 18.257V17.873C133.347 16.209 133.678 14.769 134.339 13.553C135 12.3156 135.928 11.3663 137.123 10.705C138.318 10.0223 139.704 9.68097 141.283 9.68097C142.84 9.68097 144.195 10.033 145.347 10.737C146.499 11.4196 147.395 12.3796 148.035 13.617C148.675 14.833 148.995 16.2516 148.995 17.873V19.249H137.443C137.486 20.337 137.891 21.2223 138.659 21.905C139.427 22.5876 140.366 22.929 141.475 22.929C142.606 22.929 143.438 22.6836 143.971 22.193C144.504 21.7023 144.91 21.1583 145.187 20.561L148.483 22.289C148.184 22.8436 147.747 23.4516 147.171 24.113C146.616 24.753 145.87 25.3076 144.931 25.777C143.992 26.225 142.798 26.449 141.347 26.449ZM137.475 16.241H144.899C144.814 15.3236 144.44 14.5876 143.779 14.033C143.139 13.4783 142.296 13.201 141.251 13.201C140.163 13.201 139.299 13.4783 138.659 14.033C138.019 14.5876 137.624 15.3236 137.475 16.241Z" fill="white"/>
<path d="M147.241 21.7982V21.4076H149.969V21.7982H148.825V25.0439H148.385V21.7982H147.241ZM150.648 21.4076H151.174L152.41 24.426H152.452L153.688 21.4076H154.214V25.0439H153.802V22.2812H153.766L152.63 25.0439H152.232L151.096 22.2812H151.06V25.0439H150.648V21.4076Z" fill="white"/>
</svg>
