<svg width="62" height="62" viewBox="0 0 62 62" fill="none" xmlns="http://www.w3.org/2000/svg">
<path d="M16 0.5C7.43959 0.5 0.5 7.43959 0.5 16C0.5 23.2062 5.41753 29.2637 12.0799 31C5.41753 32.7363 0.5 38.7938 0.5 46C0.5 54.5605 7.43959 61.5 16 61.5C23.2062 61.5 29.2637 56.5826 31 49.9202C32.7363 56.5826 38.7938 61.5 46 61.5C54.5605 61.5 61.5 54.5605 61.5 46C61.5 38.7938 56.5826 32.7363 49.9202 31C56.5826 29.2637 61.5 23.2062 61.5 16C61.5 7.43959 54.5605 0.5 46 0.5C38.7938 0.5 32.7363 5.41753 31 12.0799C29.2637 5.41753 23.2062 0.5 16 0.5Z" fill="#A483D0" stroke="black"/>
</svg>
