<svg width="99" height="101" viewBox="0 0 99 101" fill="none" xmlns="http://www.w3.org/2000/svg">
<path d="M3.00857 15.9343C8.20006 11.3901 14.1845 7.83388 20.6667 5.44638C27.6183 2.88596 35.0063 1.71984 42.4086 2.0146C49.811 2.30936 57.0828 4.05924 63.8088 7.16432C70.5349 10.2694 76.5835 14.6689 81.6094 20.1116C86.6352 25.5542 90.5398 31.9335 93.1002 38.8852C95.6606 45.8369 96.8268 53.2248 96.532 60.6272C96.2372 68.0295 94.4873 75.3013 91.3823 82.0274C88.4869 88.2992 84.4661 93.9819 79.5235 98.7956L68.6477 87.0177C72.0476 83.6358 74.821 79.6725 76.8343 75.3113C79.0574 70.4957 80.3103 65.2894 80.5213 59.9896C80.7323 54.6898 79.8974 49.4004 78.0643 44.4232C76.2311 39.4461 73.4356 34.8788 69.8373 30.982C66.239 27.0853 61.9084 23.9354 57.0928 21.7123C52.2772 19.4892 47.0709 18.2363 41.7711 18.0253C36.4713 17.8142 31.1818 18.6491 26.2047 20.4823C21.6972 22.1425 17.5259 24.5919 13.8844 27.7122L3.00857 15.9343Z" fill="#9B51E0" stroke="#111111" stroke-width="3"/>
</svg>
