<?xml version="1.0" encoding="UTF-8"?>
<svg version="1.1" xmlns="http://www.w3.org/2000/svg" width="512" height="512">
<path d="M0 0 C1.45108658 0.00273422 1.45108658 0.00273422 2.93148804 0.00552368 C17.26440977 0.05095174 31.21023917 0.55983928 45.3125 3.3125 C46.65803955 3.55395752 46.65803955 3.55395752 48.03076172 3.80029297 C107.84088904 14.62287989 165.35495829 48.68064457 202.3125 97.3125 C202.72918945 97.85277832 203.14587891 98.39305664 203.57519531 98.94970703 C211.2584873 108.9447116 218.00092968 119.40459036 224.3125 130.3125 C224.70679199 130.98974121 225.10108398 131.66698242 225.50732422 132.36474609 C238.68961173 155.2833756 247.29510918 180.85822563 252.625 206.6875 C252.77243652 207.39817627 252.91987305 208.10885254 253.07177734 208.84106445 C256.05713787 224.48358366 256.6873098 240.11919606 256.625 256 C256.62226578 257.45108658 256.62226578 257.45108658 256.61947632 258.93148804 C256.57404826 273.26440977 256.06516072 287.21023917 253.3125 301.3125 C253.15152832 302.20952637 252.99055664 303.10655273 252.82470703 304.03076172 C242.00212011 363.84088904 207.94435543 421.35495829 159.3125 458.3125 C158.77222168 458.72918945 158.23194336 459.14587891 157.67529297 459.57519531 C147.6802884 467.2584873 137.22040964 474.00092968 126.3125 480.3125 C125.63525879 480.70679199 124.95801758 481.10108398 124.26025391 481.50732422 C101.3416244 494.68961173 75.76677437 503.29510918 49.9375 508.625 C49.22682373 508.77243652 48.51614746 508.91987305 47.78393555 509.07177734 C32.14141634 512.05713787 16.50580394 512.6873098 0.625 512.625 C-0.34239105 512.62317719 -1.3097821 512.62135437 -2.30648804 512.61947632 C-16.63940977 512.57404826 -30.58523917 512.06516072 -44.6875 509.3125 C-45.58452637 509.15152832 -46.48155273 508.99055664 -47.40576172 508.82470703 C-107.21588904 498.00212011 -164.72995829 463.94435543 -201.6875 415.3125 C-202.10418945 414.77222168 -202.52087891 414.23194336 -202.95019531 413.67529297 C-210.6334873 403.6802884 -217.37592968 393.22040964 -223.6875 382.3125 C-224.08179199 381.63525879 -224.47608398 380.95801758 -224.88232422 380.26025391 C-238.06461173 357.3416244 -246.67010918 331.76677437 -252 305.9375 C-252.14743652 305.22682373 -252.29487305 304.51614746 -252.44677734 303.78393555 C-255.43213787 288.14141634 -256.0623098 272.50580394 -256 256.625 C-255.99817719 255.65760895 -255.99635437 254.6902179 -255.99447632 253.69351196 C-255.94904826 239.36059023 -255.44016072 225.41476083 -252.6875 211.3125 C-252.44604248 209.96696045 -252.44604248 209.96696045 -252.19970703 208.59423828 C-241.37712011 148.78411096 -207.31935543 91.27004171 -158.6875 54.3125 C-158.14722168 53.89581055 -157.60694336 53.47912109 -157.05029297 53.04980469 C-147.0552884 45.3665127 -136.59540964 38.62407032 -125.6875 32.3125 C-125.01025879 31.91820801 -124.33301758 31.52391602 -123.63525391 31.11767578 C-100.7166244 17.93538827 -75.14177437 9.32989082 -49.3125 4 C-48.60182373 3.85256348 -47.89114746 3.70512695 -47.15893555 3.55322266 C-31.51641634 0.56786213 -15.88080394 -0.0623098 0 0 Z " fill="#C6C3BD" transform="translate(255.6875,-0.3125)"/>
<path d="M0 0 C1.45108658 0.00273422 1.45108658 0.00273422 2.93148804 0.00552368 C17.26440977 0.05095174 31.21023917 0.55983928 45.3125 3.3125 C46.65803955 3.55395752 46.65803955 3.55395752 48.03076172 3.80029297 C107.84088904 14.62287989 165.35495829 48.68064457 202.3125 97.3125 C202.72918945 97.85277832 203.14587891 98.39305664 203.57519531 98.94970703 C211.2584873 108.9447116 218.00092968 119.40459036 224.3125 130.3125 C224.70679199 130.98974121 225.10108398 131.66698242 225.50732422 132.36474609 C238.68961173 155.2833756 247.29510918 180.85822563 252.625 206.6875 C252.77243652 207.39817627 252.91987305 208.10885254 253.07177734 208.84106445 C256.05713787 224.48358366 256.6873098 240.11919606 256.625 256 C256.62226578 257.45108658 256.62226578 257.45108658 256.61947632 258.93148804 C256.57404826 273.26440977 256.06516072 287.21023917 253.3125 301.3125 C253.15152832 302.20952637 252.99055664 303.10655273 252.82470703 304.03076172 C245.04015006 347.05146896 225.70719382 386.45497349 198.3125 420.3125 C195.50847058 417.50847058 195.171065 414.24175223 194.25 410.5 C186.24066323 380.01993795 168.93756933 352.01069307 147.3125 329.3125 C146.76964355 328.74241211 146.22678711 328.17232422 145.66748047 327.58496094 C137.42636492 318.98767867 129.06073003 311.17523102 119.3125 304.3125 C118.7462793 303.90725098 118.18005859 303.50200195 117.59667969 303.08447266 C99.53109788 290.2341628 80.08164529 281.8750854 59.3125 274.3125 C62.51101634 271.06845318 65.77628029 267.95637495 69.1875 264.9375 C70.89702751 263.39715764 72.60543912 261.85557551 74.3125 260.3125 C74.93511719 259.75820313 75.55773437 259.20390625 76.19921875 258.6328125 C96.08755812 239.9961868 104.35869062 212.35136348 105.53125 185.921875 C105.79385644 177.00817671 104.82687838 168.89396142 102.3125 160.3125 C101.98378906 159.07113281 101.65507812 157.82976562 101.31640625 156.55078125 C97.27522134 141.9109829 90.43570293 128.67890329 80.3125 117.3125 C79.66152344 116.508125 79.01054687 115.70375 78.33984375 114.875 C64.43608793 98.24246968 44.86544096 88.88251971 24.3125 83.3125 C23.15621094 82.94640625 21.99992187 82.5803125 20.80859375 82.203125 C14.31492221 80.61466579 7.52142344 80.91777796 0.875 80.9375 C0.15940918 80.93837616 -0.55618164 80.93925232 -1.29345703 80.94015503 C-30.33272205 81.05768174 -55.21929731 92.36323854 -76.05078125 112.609375 C-95.25603728 132.90923111 -105.48494187 160.2422575 -104.77636719 188.01025391 C-103.68970193 216.16204888 -93.0003214 239.89805599 -73.6875 260.3125 C-73.07777344 260.96347656 -72.46804687 261.61445313 -71.83984375 262.28515625 C-67.80358555 266.46852181 -63.42565729 269.95271574 -58.6875 273.3125 C-61.44626804 275.15167869 -63.77447928 276.20869113 -66.8515625 277.37890625 C-90.06512795 286.34374515 -110.79620045 296.92837909 -129.6875 313.3125 C-130.4815625 313.99570312 -131.275625 314.67890625 -132.09375 315.3828125 C-143.81697651 325.69772933 -154.65557348 336.55429706 -163.6875 349.3125 C-164.08888184 349.86953613 -164.49026367 350.42657227 -164.90380859 351.00048828 C-179.86152879 371.89390576 -190.3368267 395.45295648 -196.6875 420.3125 C-200.49573439 416.67488543 -203.7138705 412.87866606 -206.8125 408.625 C-207.28478027 407.97708496 -207.75706055 407.32916992 -208.24365234 406.66162109 C-213.8614291 398.83094982 -218.86318328 390.65007816 -223.6875 382.3125 C-224.08179199 381.63525879 -224.47608398 380.95801758 -224.88232422 380.26025391 C-238.06461173 357.3416244 -246.67010918 331.76677437 -252 305.9375 C-252.14743652 305.22682373 -252.29487305 304.51614746 -252.44677734 303.78393555 C-255.43213787 288.14141634 -256.0623098 272.50580394 -256 256.625 C-255.99817719 255.65760895 -255.99635437 254.6902179 -255.99447632 253.69351196 C-255.94904826 239.36059023 -255.44016072 225.41476083 -252.6875 211.3125 C-252.44604248 209.96696045 -252.44604248 209.96696045 -252.19970703 208.59423828 C-241.37712011 148.78411096 -207.31935543 91.27004171 -158.6875 54.3125 C-158.14722168 53.89581055 -157.60694336 53.47912109 -157.05029297 53.04980469 C-147.0552884 45.3665127 -136.59540964 38.62407032 -125.6875 32.3125 C-125.01025879 31.91820801 -124.33301758 31.52391602 -123.63525391 31.11767578 C-100.7166244 17.93538827 -75.14177437 9.32989082 -49.3125 4 C-48.60182373 3.85256348 -47.89114746 3.70512695 -47.15893555 3.55322266 C-31.51641634 0.56786213 -15.88080394 -0.0623098 0 0 Z " fill="#EEEBE7" transform="translate(255.6875,-0.3125)"/>
</svg>
