<svg width="144" height="27" viewBox="0 0 144 27" fill="none" xmlns="http://www.w3.org/2000/svg">
<path d="M143.203 24.8687C136.061 24.1386 137.045 14.5129 129.904 13.7828C122.762 13.0528 121.778 22.6786 114.636 21.9486C107.495 21.2185 108.479 11.5928 101.354 10.8645C94.2119 10.1344 93.228 19.7602 86.1033 19.0319C78.9615 18.3019 79.9455 8.67609 72.8208 7.9478C65.679 7.21777 64.695 16.8435 57.5538 16.1136C50.412 15.3835 51.3959 5.75775 44.2542 5.02771C37.1129 4.29773 36.1289 13.9235 28.9872 13.1935C21.8454 12.4634 22.8293 2.83765 15.6875 2.10761C8.54626 1.37763 7.5623 11.0034 0.420513 10.2734" stroke="#111111" stroke-width="3" stroke-miterlimit="10"/>
</svg>
